G04 #@! TF.FileFunction,Copper,L1,Top,Signal*
%FSLAX46Y46*%
G04 Gerber Fmt 4.6, Leading zero omitted, Abs format (unit mm)*
G04 Created by KiCad (PCBNEW 4.0.0-rc1-stable) date 19.10.2015 17:54:31*
%MOMM*%
G01*
G04 APERTURE LIST*
%ADD10C,0.100000*%
%ADD11R,1.016000X0.889000*%
%ADD12R,0.800000X0.800000*%
%ADD13R,0.800000X0.200000*%
%ADD14O,0.800000X0.200000*%
%ADD15R,0.899160X0.701040*%
%ADD16O,0.899160X0.701040*%
%ADD17R,1.100000X1.000000*%
%ADD18R,1.100000X0.900000*%
%ADD19R,1.000000X1.100000*%
%ADD20R,0.900000X1.100000*%
%ADD21R,1.000000X0.900000*%
%ADD22C,3.600000*%
%ADD23C,1.600000*%
%ADD24R,2.500000X1.500000*%
%ADD25R,1.500000X2.500000*%
%ADD26R,1.250000X0.400000*%
%ADD27C,1.699260*%
%ADD28R,1.676400X1.676400*%
%ADD29C,1.676400*%
%ADD30C,0.800000*%
%ADD31C,0.200000*%
%ADD32C,0.500000*%
%ADD33C,0.254000*%
G04 APERTURE END LIST*
D10*
X195181900Y-99033800D02*
X194831900Y-99033800D01*
X194831900Y-99033800D02*
X194981900Y-98883800D01*
X194981900Y-98883800D02*
X195081900Y-98983800D01*
X195081900Y-98983800D02*
X194981900Y-98983800D01*
X195431900Y-98883800D02*
X195431900Y-99033800D01*
X195431900Y-99033800D02*
X195331900Y-99033800D01*
X195331900Y-99033800D02*
X195381900Y-98983800D01*
X195381900Y-98383800D02*
X195231900Y-98483800D01*
X195231900Y-98483800D02*
X195131900Y-98383800D01*
X195131900Y-98383800D02*
X195281900Y-98383800D01*
X194831900Y-98383800D02*
X194731900Y-98483800D01*
X194731900Y-98483800D02*
X194631900Y-98383800D01*
X194631900Y-98383800D02*
X194731900Y-98383800D01*
X194531900Y-99033800D02*
X194531900Y-98933800D01*
X194531900Y-98933800D02*
X194631900Y-99033800D01*
X194481900Y-98783800D02*
X194481900Y-99083800D01*
X194481900Y-99083800D02*
X195481900Y-99083800D01*
X195481900Y-99083800D02*
X195481900Y-98783800D01*
X194481900Y-98333800D02*
X194731900Y-98583800D01*
X194731900Y-98583800D02*
X194981900Y-98333800D01*
X194981900Y-98333800D02*
X195231900Y-98583800D01*
X195231900Y-98583800D02*
X195481900Y-98333800D01*
X195481900Y-98333800D02*
X194481900Y-98333800D01*
X194981900Y-98783800D02*
X195231900Y-99033800D01*
X195231900Y-99033800D02*
X195481900Y-98783800D01*
X194981900Y-98783800D02*
X194731900Y-99033800D01*
X194731900Y-99033800D02*
X194481900Y-98783800D01*
X191831600Y-102097000D02*
X191831600Y-101747000D01*
X191831600Y-101747000D02*
X191981600Y-101897000D01*
X191981600Y-101897000D02*
X191881600Y-101997000D01*
X191881600Y-101997000D02*
X191881600Y-101897000D01*
X191981600Y-102347000D02*
X191831600Y-102347000D01*
X191831600Y-102347000D02*
X191831600Y-102247000D01*
X191831600Y-102247000D02*
X191881600Y-102297000D01*
X192481600Y-102297000D02*
X192381600Y-102147000D01*
X192381600Y-102147000D02*
X192481600Y-102047000D01*
X192481600Y-102047000D02*
X192481600Y-102197000D01*
X192481600Y-101747000D02*
X192381600Y-101647000D01*
X192381600Y-101647000D02*
X192481600Y-101547000D01*
X192481600Y-101547000D02*
X192481600Y-101647000D01*
X191831600Y-101447000D02*
X191931600Y-101447000D01*
X191931600Y-101447000D02*
X191831600Y-101547000D01*
X192081600Y-101397000D02*
X191781600Y-101397000D01*
X191781600Y-101397000D02*
X191781600Y-102397000D01*
X191781600Y-102397000D02*
X192081600Y-102397000D01*
X192531600Y-101397000D02*
X192281600Y-101647000D01*
X192281600Y-101647000D02*
X192531600Y-101897000D01*
X192531600Y-101897000D02*
X192281600Y-102147000D01*
X192281600Y-102147000D02*
X192531600Y-102397000D01*
X192531600Y-102397000D02*
X192531600Y-101397000D01*
X192081600Y-101897000D02*
X191831600Y-102147000D01*
X191831600Y-102147000D02*
X192081600Y-102397000D01*
X192081600Y-101897000D02*
X191831600Y-101647000D01*
X191831600Y-101647000D02*
X192081600Y-101397000D01*
X192421800Y-103457100D02*
X192421800Y-103807100D01*
X192421800Y-103807100D02*
X192271800Y-103657100D01*
X192271800Y-103657100D02*
X192371800Y-103557100D01*
X192371800Y-103557100D02*
X192371800Y-103657100D01*
X192271800Y-103207100D02*
X192421800Y-103207100D01*
X192421800Y-103207100D02*
X192421800Y-103307100D01*
X192421800Y-103307100D02*
X192371800Y-103257100D01*
X191771800Y-103257100D02*
X191871800Y-103407100D01*
X191871800Y-103407100D02*
X191771800Y-103507100D01*
X191771800Y-103507100D02*
X191771800Y-103357100D01*
X191771800Y-103807100D02*
X191871800Y-103907100D01*
X191871800Y-103907100D02*
X191771800Y-104007100D01*
X191771800Y-104007100D02*
X191771800Y-103907100D01*
X192421800Y-104107100D02*
X192321800Y-104107100D01*
X192321800Y-104107100D02*
X192421800Y-104007100D01*
X192171800Y-104157100D02*
X192471800Y-104157100D01*
X192471800Y-104157100D02*
X192471800Y-103157100D01*
X192471800Y-103157100D02*
X192171800Y-103157100D01*
X191721800Y-104157100D02*
X191971800Y-103907100D01*
X191971800Y-103907100D02*
X191721800Y-103657100D01*
X191721800Y-103657100D02*
X191971800Y-103407100D01*
X191971800Y-103407100D02*
X191721800Y-103157100D01*
X191721800Y-103157100D02*
X191721800Y-104157100D01*
X192171800Y-103657100D02*
X192421800Y-103407100D01*
X192421800Y-103407100D02*
X192171800Y-103157100D01*
X192171800Y-103657100D02*
X192421800Y-103907100D01*
X192421800Y-103907100D02*
X192171800Y-104157100D01*
D11*
X223735700Y-101178400D03*
X223735700Y-99654400D03*
X218751600Y-112312200D03*
X218751600Y-110788200D03*
X193403400Y-107052200D03*
X193403400Y-108576200D03*
X196765100Y-97960200D03*
X196765100Y-99484200D03*
X200506600Y-107032600D03*
X200506600Y-108556600D03*
X216751600Y-112312200D03*
X216751600Y-110788200D03*
X201835400Y-101450600D03*
X201835400Y-102974600D03*
X200418400Y-99490100D03*
X200418400Y-97966100D03*
X198594100Y-99483800D03*
X198594100Y-97959800D03*
D12*
X196748800Y-103272300D03*
X197548800Y-103272300D03*
X196748800Y-102472300D03*
X197548800Y-102472300D03*
X196748800Y-104072300D03*
X197548800Y-104072300D03*
D13*
X198648800Y-104472300D03*
D14*
X198648800Y-104072300D03*
X198648800Y-103672300D03*
X198648800Y-103272300D03*
X198648800Y-102872300D03*
X198648800Y-102472300D03*
X198648800Y-102072300D03*
X195648800Y-102072300D03*
X195648800Y-102472300D03*
X195648800Y-102872300D03*
X195648800Y-103272300D03*
X195648800Y-103672300D03*
X195648800Y-104072300D03*
X195648800Y-104472300D03*
D15*
X218701560Y-115700440D03*
D16*
X218701560Y-114399960D03*
X216801640Y-114399960D03*
X216801640Y-115700440D03*
D17*
X194981900Y-99483800D03*
D18*
X194981900Y-97933800D03*
D19*
X191381600Y-101897000D03*
D20*
X192931600Y-101897000D03*
D19*
X192871800Y-103657100D03*
D20*
X191321800Y-103657100D03*
D21*
X225677700Y-101164600D03*
X225677700Y-99664600D03*
X195191400Y-108557900D03*
X195191400Y-107057900D03*
X196950100Y-108550100D03*
X196950100Y-107050100D03*
X198719200Y-107050200D03*
X198719200Y-108550200D03*
D22*
X217750000Y-102524300D03*
X207750000Y-102524300D03*
D23*
X215250000Y-95524300D03*
X212750000Y-95524300D03*
X210250000Y-95524300D03*
D21*
X215854400Y-91354400D03*
X215854400Y-92854400D03*
D24*
X229250800Y-115480700D03*
X229250800Y-105180700D03*
X225050800Y-115480700D03*
X225050800Y-105180700D03*
D25*
X222850800Y-112530700D03*
X222850800Y-108130700D03*
D26*
X224725800Y-111630700D03*
X224725800Y-110980700D03*
X224725800Y-110330700D03*
X224725800Y-109680700D03*
X224725800Y-109030700D03*
D27*
X191721360Y-92382000D03*
X192120140Y-94782300D03*
X194121660Y-89981700D03*
X199120380Y-94782300D03*
X198119620Y-92382000D03*
X229361340Y-92274200D03*
X228962560Y-89873900D03*
X226961040Y-94674500D03*
X221962320Y-89873900D03*
X222963080Y-92274200D03*
D28*
X211317600Y-91304500D03*
D29*
X208777600Y-91304500D03*
D30*
X222499800Y-114380700D03*
X223101200Y-116087600D03*
X213671600Y-90195900D03*
X218304300Y-90258900D03*
X211617600Y-94393500D03*
X208012100Y-94340300D03*
X224201300Y-108230700D03*
X219859600Y-110439500D03*
X219597800Y-114947900D03*
X222627700Y-99457500D03*
X201526400Y-98165700D03*
X198384600Y-101372300D03*
X197834900Y-109464600D03*
X200727400Y-103203100D03*
X192373200Y-105345500D03*
X194762500Y-96874400D03*
X191178600Y-99915300D03*
X192916200Y-99118900D03*
X191033800Y-96838200D03*
X193676400Y-92349300D03*
X199649600Y-90104800D03*
X204355800Y-90141000D03*
X202437100Y-94521300D03*
X205043600Y-98358700D03*
X204681600Y-103897500D03*
X201170100Y-105236900D03*
X191504400Y-111535900D03*
X197803400Y-111861700D03*
X204428200Y-111391100D03*
X211632200Y-111029100D03*
X191576800Y-115880100D03*
X197405200Y-115880100D03*
X201749300Y-115192200D03*
X208881000Y-115735300D03*
X214528300Y-115662800D03*
X208120700Y-108965600D03*
X210184200Y-106648700D03*
X215433400Y-106612500D03*
X210220400Y-98394900D03*
X216736600Y-98575900D03*
X220284300Y-106576300D03*
X221455800Y-102675800D03*
X220006100Y-96404300D03*
X229334500Y-101667300D03*
X225899400Y-97854000D03*
X229113900Y-96561900D03*
X225836300Y-90826200D03*
X195554800Y-109607900D03*
D31*
X224143700Y-101522900D02*
X223735700Y-101178400D01*
X224143700Y-101622900D02*
X224143700Y-101522900D01*
X224143700Y-101664300D02*
X224143700Y-101622900D01*
X224202300Y-101722900D02*
X224143700Y-101664300D01*
X224703500Y-101946100D02*
X224202300Y-101722900D01*
X225277700Y-101514600D02*
X225677700Y-101164600D01*
X225277700Y-101614600D02*
X225277700Y-101514600D01*
X225277700Y-101656000D02*
X225277700Y-101614600D01*
X225219100Y-101714600D02*
X225277700Y-101656000D01*
X224703500Y-101946100D02*
X225219100Y-101714600D01*
X224703500Y-104430700D02*
X224703500Y-101946100D01*
X224703500Y-104530700D02*
X224703500Y-104430700D01*
X225050800Y-105180700D02*
X224703500Y-104530700D01*
X223900800Y-116087600D02*
X225050800Y-115480700D01*
X223800800Y-116087600D02*
X223900800Y-116087600D01*
X223101200Y-116087600D02*
X223800800Y-116087600D01*
X222499800Y-113780700D02*
X222499800Y-114380700D01*
X222499800Y-113680700D02*
X222499800Y-113780700D01*
X222850800Y-112530700D02*
X222499800Y-113680700D01*
X222850800Y-111380700D02*
X222850800Y-112530700D01*
X222850800Y-111280700D02*
X222850800Y-111380700D01*
X222850800Y-109380700D02*
X222850800Y-111280700D01*
X222850800Y-109280700D02*
X222850800Y-109380700D01*
X222850800Y-108130700D02*
X222850800Y-109280700D01*
X223900800Y-105830700D02*
X225050800Y-105180700D01*
X223900800Y-105930700D02*
X223900800Y-105830700D01*
X223742200Y-106939300D02*
X223900800Y-105930700D01*
X223659400Y-107022100D02*
X223742200Y-106939300D01*
X223600800Y-107022100D02*
X223659400Y-107022100D01*
X223500800Y-107022100D02*
X223600800Y-107022100D01*
X222850800Y-108130700D02*
X223500800Y-107022100D01*
X228100800Y-105180700D02*
X229250800Y-105180700D01*
X228000800Y-105180700D02*
X228100800Y-105180700D01*
X226300800Y-105180700D02*
X228000800Y-105180700D01*
X226200800Y-105180700D02*
X226300800Y-105180700D01*
X225050800Y-105180700D02*
X226200800Y-105180700D01*
X228100800Y-115480700D02*
X229250800Y-115480700D01*
X228000800Y-115480700D02*
X228100800Y-115480700D01*
X226300800Y-115480700D02*
X228000800Y-115480700D01*
X226200800Y-115480700D02*
X226300800Y-115480700D01*
X225050800Y-115480700D02*
X226200800Y-115480700D01*
D32*
X194681900Y-97733800D02*
X194981900Y-97933800D01*
X194681900Y-97483800D02*
X194681900Y-97733800D01*
X194762500Y-96874400D02*
X194681900Y-97483800D01*
X210292800Y-92593200D02*
X208777600Y-91304500D01*
X213268000Y-94273800D02*
X210292800Y-92593200D01*
X215250000Y-95524300D02*
X213268000Y-94273800D01*
D31*
X197848800Y-103272300D02*
X197548800Y-103272300D01*
X197948800Y-103272300D02*
X197848800Y-103272300D01*
X198348800Y-103272300D02*
X197948800Y-103272300D01*
X198648800Y-103272300D02*
X198348800Y-103272300D01*
X196448800Y-103272300D02*
X196748800Y-103272300D01*
X196348800Y-103272300D02*
X196448800Y-103272300D01*
X195948800Y-103272300D02*
X196348800Y-103272300D01*
X195648800Y-103272300D02*
X195948800Y-103272300D01*
D32*
X201223800Y-103169100D02*
X200727400Y-103203100D01*
X201327400Y-103169100D02*
X201223800Y-103169100D01*
X201577400Y-103169100D02*
X201327400Y-103169100D01*
X201835400Y-102974600D02*
X201577400Y-103169100D01*
X198322800Y-109250200D02*
X197834900Y-109464600D01*
X198469200Y-109103800D02*
X198322800Y-109250200D01*
X198469200Y-109000200D02*
X198469200Y-109103800D01*
X198469200Y-108750200D02*
X198469200Y-109000200D01*
X198719200Y-108550200D02*
X198469200Y-108750200D01*
X193558400Y-104657600D02*
X193990500Y-104233500D01*
X192373200Y-105345500D02*
X193558400Y-104657600D01*
X192444900Y-106421100D02*
X192373200Y-105345500D01*
X192444900Y-107310100D02*
X192444900Y-106421100D01*
X192444900Y-107683300D02*
X192444900Y-107310100D01*
X192645400Y-108235300D02*
X192444900Y-107683300D01*
X192791800Y-108381700D02*
X192645400Y-108235300D01*
X192895400Y-108381700D02*
X192791800Y-108381700D01*
X193145400Y-108381700D02*
X192895400Y-108381700D01*
X193403400Y-108576200D02*
X193145400Y-108381700D01*
D31*
X198384600Y-102072300D02*
X198384600Y-101372300D01*
X198648800Y-102072300D02*
X198384600Y-102072300D01*
D32*
X197845200Y-101822300D02*
X198384600Y-101372300D01*
X197698800Y-101968700D02*
X197845200Y-101822300D01*
X197698800Y-102072300D02*
X197698800Y-101968700D01*
X197698800Y-102322300D02*
X197698800Y-102072300D01*
X197548800Y-102472300D02*
X197698800Y-102322300D01*
X191721400Y-92382000D02*
X192120100Y-94782300D01*
D31*
X194148800Y-103975200D02*
X193990500Y-104233500D01*
X194851700Y-103272300D02*
X194148800Y-103975200D01*
X195348800Y-103272300D02*
X194851700Y-103272300D01*
X195648800Y-103272300D02*
X195348800Y-103272300D01*
D32*
X191668200Y-104457100D02*
X192373200Y-105345500D01*
X191521800Y-104310700D02*
X191668200Y-104457100D01*
X191521800Y-104207100D02*
X191521800Y-104310700D01*
X191521800Y-103957100D02*
X191521800Y-104207100D01*
X191321800Y-103657100D02*
X191521800Y-103957100D01*
X192120100Y-94782300D02*
X194762500Y-96874400D01*
X198119600Y-92382000D02*
X192120100Y-94782300D01*
X208777600Y-91304500D02*
X198119600Y-92382000D01*
X200676400Y-98160600D02*
X200418400Y-97966100D01*
X200926400Y-98160600D02*
X200676400Y-98160600D01*
X201030000Y-98160600D02*
X200926400Y-98160600D01*
X201526400Y-98165700D02*
X201030000Y-98160600D01*
X223477700Y-99459900D02*
X223735700Y-99654400D01*
X223227700Y-99459900D02*
X223477700Y-99459900D01*
X223124100Y-99459900D02*
X223227700Y-99459900D01*
X222627700Y-99457500D02*
X223124100Y-99459900D01*
X200248600Y-108553400D02*
X200506600Y-108556600D01*
X199998600Y-108553400D02*
X200248600Y-108553400D01*
X199219200Y-108553400D02*
X199998600Y-108553400D01*
X198969200Y-108553400D02*
X199219200Y-108553400D01*
X198719200Y-108550200D02*
X198969200Y-108553400D01*
X218901200Y-115599900D02*
X218701600Y-115700400D01*
X219151200Y-115599900D02*
X218901200Y-115599900D01*
X219254800Y-115599900D02*
X219151200Y-115599900D01*
X219401200Y-115453500D02*
X219254800Y-115599900D01*
X219597800Y-114947900D02*
X219401200Y-115453500D01*
X225427700Y-99659500D02*
X225677700Y-99664600D01*
X225177700Y-99659500D02*
X225427700Y-99659500D01*
X224243700Y-99659500D02*
X225177700Y-99659500D01*
X223993700Y-99659500D02*
X224243700Y-99659500D01*
X223735700Y-99654400D02*
X223993700Y-99659500D01*
X219009600Y-110593700D02*
X218751600Y-110788200D01*
X219009600Y-110343700D02*
X219009600Y-110593700D01*
X219009600Y-110240100D02*
X219009600Y-110343700D01*
X219156000Y-110093700D02*
X219009600Y-110240100D01*
X219363200Y-110093700D02*
X219156000Y-110093700D01*
X219446200Y-110143200D02*
X219363200Y-110093700D01*
X219859600Y-110439500D02*
X219446200Y-110143200D01*
D31*
X224201300Y-108830700D02*
X224201300Y-108230700D01*
X224201300Y-108930700D02*
X224201300Y-108830700D01*
X224725800Y-109030700D02*
X224201300Y-108930700D01*
X224725800Y-109130700D02*
X224725800Y-109030700D01*
X224725800Y-109230700D02*
X224725800Y-109130700D01*
X224725800Y-109480700D02*
X224725800Y-109230700D01*
X224725800Y-109580700D02*
X224725800Y-109480700D01*
X224725800Y-109680700D02*
X224725800Y-109580700D01*
D32*
X218493600Y-110788200D02*
X218751600Y-110788200D01*
X218243600Y-110788200D02*
X218493600Y-110788200D01*
X217259600Y-110788200D02*
X218243600Y-110788200D01*
X217009600Y-110788200D02*
X217259600Y-110788200D01*
X216751600Y-110788200D02*
X217009600Y-110788200D01*
D31*
X194148800Y-103975200D02*
X194140400Y-104238300D01*
X194148800Y-103975200D02*
X193918200Y-104102100D01*
X224200800Y-111872100D02*
X224152900Y-112462400D01*
X224200800Y-111830700D02*
X224200800Y-111872100D01*
X224200800Y-111730700D02*
X224200800Y-111830700D01*
X224725800Y-111630700D02*
X224200800Y-111730700D01*
D32*
X219009600Y-112506700D02*
X218751600Y-112312200D01*
X219259600Y-112506700D02*
X219009600Y-112506700D01*
X219363200Y-112506700D02*
X219259600Y-112506700D01*
X222147500Y-115231200D02*
X219363200Y-112506700D01*
X222852100Y-115231200D02*
X222147500Y-115231200D01*
X223350300Y-114733000D02*
X222852100Y-115231200D01*
X223350300Y-114544100D02*
X223350300Y-114733000D01*
X223614200Y-114280200D02*
X223350300Y-114544100D01*
X223787400Y-114231200D02*
X223614200Y-114280200D01*
X224051300Y-113967300D02*
X223787400Y-114231200D01*
X224152900Y-112462400D02*
X224051300Y-113967300D01*
X216900700Y-115700400D02*
X216801600Y-115700400D01*
X218602500Y-114400000D02*
X216900700Y-115700400D01*
X218701600Y-114400000D02*
X218602500Y-114400000D01*
X218726600Y-114400000D02*
X218701600Y-114400000D01*
X218726600Y-112756700D02*
X218726600Y-114400000D01*
X218726600Y-112506700D02*
X218726600Y-112756700D01*
X218751600Y-112312200D02*
X218726600Y-112506700D01*
D31*
X224182000Y-112103600D02*
X224293900Y-112411100D01*
X224182000Y-112103600D02*
X224022100Y-112389100D01*
X195348800Y-103672300D02*
X195648800Y-103672300D01*
X195017400Y-103672300D02*
X195348800Y-103672300D01*
X194548800Y-104140900D02*
X195017400Y-103672300D01*
X194541000Y-104461500D02*
X194548800Y-104140900D01*
X193811400Y-106566300D02*
X194541000Y-104461500D01*
X193811400Y-106607700D02*
X193811400Y-106566300D01*
X193811400Y-106707700D02*
X193811400Y-106607700D01*
X193403400Y-107052200D02*
X193811400Y-106707700D01*
X197173100Y-97474300D02*
X199120400Y-94782300D01*
X197173100Y-97515700D02*
X197173100Y-97474300D01*
X197173100Y-97615700D02*
X197173100Y-97515700D01*
X196765100Y-97960200D02*
X197173100Y-97615700D01*
X195554800Y-109007900D02*
X195554800Y-109607900D01*
X195554800Y-108907900D02*
X195554800Y-109007900D01*
X195191400Y-108557900D02*
X195554800Y-108907900D01*
X196357100Y-99828700D02*
X196765100Y-99484200D01*
X196357100Y-99928700D02*
X196357100Y-99828700D01*
X196357100Y-99970100D02*
X196357100Y-99928700D01*
X195948800Y-102072300D02*
X196357100Y-99970100D01*
X195648800Y-102072300D02*
X195948800Y-102072300D01*
X200098600Y-106688100D02*
X200506600Y-107032600D01*
X200098600Y-106588100D02*
X200098600Y-106688100D01*
X200098600Y-106546700D02*
X200098600Y-106588100D01*
X198948800Y-104613700D02*
X200098600Y-106546700D01*
X198948800Y-104572300D02*
X198948800Y-104613700D01*
X198948800Y-104472300D02*
X198948800Y-104572300D01*
X198648800Y-104472300D02*
X198948800Y-104472300D01*
D32*
X211654500Y-105107700D02*
X203374000Y-105457500D01*
X216500500Y-96042300D02*
X211654500Y-105107700D01*
X216500500Y-95006300D02*
X216500500Y-96042300D01*
X216104400Y-93408000D02*
X216500500Y-95006300D01*
X216104400Y-93304400D02*
X216104400Y-93408000D01*
X216104400Y-93054400D02*
X216104400Y-93304400D01*
X215854400Y-92854400D02*
X216104400Y-93054400D01*
X203374000Y-105457500D02*
X202487400Y-104061400D01*
X201465100Y-109187700D02*
X203374000Y-105457500D01*
X201201200Y-109451600D02*
X201465100Y-109187700D01*
X198187200Y-110315100D02*
X201201200Y-109451600D01*
X195907100Y-110458400D02*
X198187200Y-110315100D01*
X195202500Y-110458400D02*
X195907100Y-110458400D01*
X192708800Y-109471200D02*
X195202500Y-110458400D01*
X192418600Y-109282700D02*
X192708800Y-109471200D01*
X191744400Y-108608500D02*
X192418600Y-109282700D01*
X190421300Y-104393700D02*
X191744400Y-108608500D01*
X190421300Y-104020500D02*
X190421300Y-104393700D01*
X190421300Y-102920500D02*
X190421300Y-104020500D01*
X190631600Y-102343400D02*
X190421300Y-102920500D01*
X190778000Y-102197000D02*
X190631600Y-102343400D01*
X190881600Y-102197000D02*
X190778000Y-102197000D01*
X191131600Y-102197000D02*
X190881600Y-102197000D01*
X191381600Y-101897000D02*
X191131600Y-102197000D01*
X215993600Y-111971300D02*
X211654500Y-105107700D01*
X216140000Y-112117700D02*
X215993600Y-111971300D01*
X216243600Y-112117700D02*
X216140000Y-112117700D01*
X216493600Y-112117700D02*
X216243600Y-112117700D01*
X216751600Y-112312200D02*
X216493600Y-112117700D01*
D31*
X199114500Y-104072300D02*
X199498800Y-104070800D01*
X198948800Y-104072300D02*
X199114500Y-104072300D01*
X198648800Y-104072300D02*
X198948800Y-104072300D01*
D32*
X202487400Y-104061400D02*
X199498800Y-104070800D01*
X200676400Y-99684600D02*
X200418400Y-99490100D01*
X200926400Y-99684600D02*
X200676400Y-99684600D01*
X202530000Y-100555600D02*
X200926400Y-99684600D01*
X202793900Y-100819500D02*
X202530000Y-100555600D01*
X202793900Y-103232500D02*
X202793900Y-100819500D01*
X202793900Y-103605700D02*
X202793900Y-103232500D01*
X202487400Y-104061400D02*
X202793900Y-103605700D01*
D31*
X199748800Y-102403700D02*
X199887600Y-101662600D01*
X199280200Y-102872300D02*
X199748800Y-102403700D01*
X198948800Y-102872300D02*
X199280200Y-102872300D01*
X198648800Y-102872300D02*
X198948800Y-102872300D01*
D32*
X200160400Y-100038200D02*
X199887600Y-101662600D01*
X200160400Y-99934600D02*
X200160400Y-100038200D01*
X200160400Y-99684600D02*
X200160400Y-99934600D01*
X200418400Y-99490100D02*
X200160400Y-99684600D01*
X216776600Y-112506700D02*
X216751600Y-112312200D01*
X216776600Y-112756700D02*
X216776600Y-112506700D01*
X216776600Y-114400000D02*
X216776600Y-112756700D01*
X216801600Y-114400000D02*
X216776600Y-114400000D01*
D31*
X199138800Y-104072200D02*
X199435800Y-103934600D01*
X199138800Y-104072200D02*
X199436800Y-104207400D01*
X199821300Y-102016400D02*
X199742100Y-101698900D01*
X199821300Y-102016400D02*
X200010100Y-101749100D01*
X201427400Y-101795100D02*
X201835400Y-101450600D01*
X201427400Y-101895100D02*
X201427400Y-101795100D01*
X201427400Y-101936500D02*
X201427400Y-101895100D01*
X201368800Y-101995100D02*
X201427400Y-101936500D01*
X200437200Y-102502600D02*
X201368800Y-101995100D01*
X199270800Y-103520300D02*
X200437200Y-102502600D01*
X199114500Y-103672300D02*
X199270800Y-103520300D01*
X198948800Y-103672300D02*
X199114500Y-103672300D01*
X198648800Y-103672300D02*
X198948800Y-103672300D01*
X199002100Y-99828300D02*
X198594100Y-99483800D01*
X199002100Y-99928300D02*
X199002100Y-99828300D01*
X199002100Y-99969700D02*
X199002100Y-99928300D01*
X199337100Y-101890600D02*
X199002100Y-99969700D01*
X199348800Y-101906600D02*
X199337100Y-101890600D01*
X199348800Y-102238000D02*
X199348800Y-101906600D01*
X199114500Y-102472300D02*
X199348800Y-102238000D01*
X198948800Y-102472300D02*
X199114500Y-102472300D01*
X198648800Y-102472300D02*
X198948800Y-102472300D01*
X199785900Y-97221100D02*
X210250000Y-95524300D01*
X199143500Y-97615300D02*
X199785900Y-97221100D01*
X199102100Y-97615300D02*
X199143500Y-97615300D01*
X199002100Y-97615300D02*
X199102100Y-97615300D01*
X198594100Y-97959800D02*
X199002100Y-97615300D01*
X195348800Y-102472300D02*
X195648800Y-102472300D01*
X195183100Y-102472300D02*
X195348800Y-102472300D01*
X194948800Y-102238000D02*
X195183100Y-102472300D01*
X194948800Y-99983800D02*
X194948800Y-102238000D01*
X194948800Y-99883800D02*
X194948800Y-99983800D01*
X194981900Y-99483800D02*
X194948800Y-99883800D01*
X195348800Y-102872300D02*
X195648800Y-102872300D01*
X193624000Y-102806400D02*
X195348800Y-102872300D01*
X193471800Y-103148500D02*
X193624000Y-102806400D01*
X193413200Y-103207100D02*
X193471800Y-103148500D01*
X193371800Y-103207100D02*
X193413200Y-103207100D01*
X193271800Y-103207100D02*
X193371800Y-103207100D01*
X192871800Y-103657100D02*
X193271800Y-103207100D01*
X193481600Y-102405600D02*
X193624000Y-102806400D01*
X193423000Y-102347000D02*
X193481600Y-102405600D01*
X193381600Y-102347000D02*
X193423000Y-102347000D01*
X193281600Y-102347000D02*
X193381600Y-102347000D01*
X192931600Y-101897000D02*
X193281600Y-102347000D01*
X195591400Y-106707900D02*
X195191400Y-107057900D01*
X195591400Y-106607900D02*
X195591400Y-106707900D01*
X195591400Y-106566500D02*
X195591400Y-106607900D01*
X195774200Y-106301400D02*
X195591400Y-106566500D01*
X196550100Y-108200100D02*
X196950100Y-108550100D01*
X196450100Y-108200100D02*
X196550100Y-108200100D01*
X196408700Y-108200100D02*
X196450100Y-108200100D01*
X196350100Y-108141500D02*
X196408700Y-108200100D01*
X196149600Y-107624600D02*
X196350100Y-108141500D01*
X195991900Y-106483400D02*
X196149600Y-107624600D01*
X195815900Y-106307400D02*
X195991900Y-106483400D01*
X195774200Y-106301400D02*
X195815900Y-106307400D01*
X194948800Y-104638000D02*
X195774200Y-106301400D01*
X194948800Y-104306600D02*
X194948800Y-104638000D01*
X195183100Y-104072300D02*
X194948800Y-104306600D01*
X195348800Y-104072300D02*
X195183100Y-104072300D01*
X195648800Y-104072300D02*
X195348800Y-104072300D01*
X197350100Y-106700100D02*
X196950100Y-107050100D01*
X197350100Y-106600100D02*
X197350100Y-106700100D01*
X197350100Y-106558700D02*
X197350100Y-106600100D01*
X197462100Y-106300100D02*
X197350100Y-106558700D01*
X198319200Y-106700200D02*
X198719200Y-107050200D01*
X198319200Y-106600200D02*
X198319200Y-106700200D01*
X198319200Y-106558800D02*
X198319200Y-106600200D01*
X198260600Y-106500200D02*
X198319200Y-106558800D01*
X197574400Y-106300100D02*
X198260600Y-106500200D01*
X197462100Y-106300100D02*
X197574400Y-106300100D01*
X196048300Y-104596800D02*
X197462100Y-106300100D01*
X195948800Y-104472300D02*
X196048300Y-104596800D01*
X195648800Y-104472300D02*
X195948800Y-104472300D01*
X212055800Y-91329400D02*
X211317600Y-91304500D01*
X212155800Y-91329400D02*
X212055800Y-91329400D01*
X215354400Y-91329400D02*
X212155800Y-91329400D01*
X215454400Y-91329400D02*
X215354400Y-91329400D01*
X215854400Y-91354400D02*
X215454400Y-91329400D01*
X224113200Y-91797800D02*
X226961000Y-94674500D01*
X223439500Y-91124100D02*
X224113200Y-91797800D01*
X221962300Y-89873900D02*
X223439500Y-91124100D01*
D33*
G36*
X215421362Y-112333063D02*
X215423910Y-112336336D01*
X215425820Y-112340021D01*
X215464472Y-112388439D01*
X215502527Y-112437322D01*
X215505665Y-112440040D01*
X215508252Y-112443281D01*
X215514889Y-112450011D01*
X215661289Y-112596411D01*
X215709596Y-112636091D01*
X215757517Y-112676302D01*
X215760637Y-112678017D01*
X215763388Y-112680277D01*
X215814534Y-112707701D01*
X215814534Y-112756700D01*
X215819956Y-112824698D01*
X215855673Y-112940030D01*
X215922106Y-113040846D01*
X216013995Y-113119163D01*
X216099600Y-113157751D01*
X216099600Y-113909748D01*
X216053746Y-113965176D01*
X215981572Y-114098659D01*
X215936700Y-114243618D01*
X215920838Y-114394532D01*
X215934591Y-114545653D01*
X215977435Y-114691224D01*
X216047738Y-114825701D01*
X216142822Y-114943962D01*
X216259066Y-115041502D01*
X216273963Y-115049692D01*
X216268066Y-115052827D01*
X216150472Y-115148735D01*
X216053746Y-115265656D01*
X215981572Y-115399139D01*
X215936700Y-115544098D01*
X215920838Y-115695012D01*
X215934591Y-115846133D01*
X215977435Y-115991704D01*
X216047738Y-116126181D01*
X216142822Y-116244442D01*
X216259066Y-116341982D01*
X216392041Y-116415086D01*
X216536684Y-116460969D01*
X216687483Y-116477884D01*
X216698339Y-116477960D01*
X216904941Y-116477960D01*
X217055962Y-116463152D01*
X217201231Y-116419293D01*
X217335214Y-116348053D01*
X217452808Y-116252145D01*
X217549534Y-116135224D01*
X217621708Y-116001741D01*
X217621814Y-116001398D01*
X217874980Y-115807946D01*
X217874980Y-115827442D01*
X217969228Y-115827442D01*
X217874980Y-115921690D01*
X217874980Y-116088092D01*
X217889468Y-116160927D01*
X217917887Y-116229537D01*
X217959145Y-116291284D01*
X218011657Y-116343795D01*
X218073404Y-116385053D01*
X218142013Y-116413472D01*
X218214849Y-116427960D01*
X218480310Y-116427960D01*
X218574560Y-116333710D01*
X218574560Y-115827440D01*
X218828560Y-115827440D01*
X218828560Y-116333710D01*
X218922810Y-116427960D01*
X219188271Y-116427960D01*
X219261107Y-116413472D01*
X219329716Y-116385053D01*
X219391463Y-116343795D01*
X219443975Y-116291284D01*
X219485233Y-116229537D01*
X219513652Y-116160927D01*
X219528140Y-116088092D01*
X219528140Y-115921690D01*
X219433890Y-115827440D01*
X218828560Y-115827440D01*
X218574560Y-115827440D01*
X218554560Y-115827440D01*
X218554560Y-115573440D01*
X218574560Y-115573440D01*
X218574560Y-115553440D01*
X218828560Y-115553440D01*
X218828560Y-115573440D01*
X219433890Y-115573440D01*
X219528140Y-115479190D01*
X219528140Y-115312788D01*
X219513652Y-115239953D01*
X219485233Y-115171343D01*
X219443975Y-115109596D01*
X219391463Y-115057085D01*
X219329716Y-115015827D01*
X219292805Y-115000538D01*
X219352728Y-114951665D01*
X219449454Y-114834744D01*
X219521628Y-114701261D01*
X219566500Y-114556302D01*
X219582362Y-114405388D01*
X219568609Y-114254267D01*
X219525765Y-114108696D01*
X219455462Y-113974219D01*
X219403600Y-113909715D01*
X219403600Y-113493429D01*
X221674013Y-115715079D01*
X221719919Y-115751960D01*
X221765017Y-115789802D01*
X221771365Y-115793292D01*
X221777016Y-115797832D01*
X221829214Y-115825095D01*
X221880801Y-115853455D01*
X221887709Y-115855646D01*
X221894132Y-115859001D01*
X221950624Y-115875604D01*
X222006744Y-115893406D01*
X222013944Y-115894214D01*
X222020897Y-115896257D01*
X222079525Y-115901570D01*
X222138048Y-115908134D01*
X222147500Y-115908200D01*
X222293821Y-115908200D01*
X222275378Y-115994969D01*
X222273113Y-116157136D01*
X222302391Y-116316655D01*
X222362094Y-116467449D01*
X222397894Y-116523000D01*
X190277000Y-116523000D01*
X190277000Y-106194408D01*
X191098478Y-108811267D01*
X191108598Y-108835077D01*
X191115815Y-108859916D01*
X191134380Y-108895731D01*
X191150164Y-108932866D01*
X191164716Y-108954257D01*
X191176620Y-108977221D01*
X191201788Y-109008748D01*
X191224484Y-109042109D01*
X191242915Y-109060266D01*
X191259052Y-109080481D01*
X191265689Y-109087211D01*
X191939835Y-109761357D01*
X191939840Y-109761363D01*
X191939846Y-109761368D01*
X191939889Y-109761411D01*
X191990655Y-109803111D01*
X192041931Y-109845238D01*
X192041979Y-109845270D01*
X192041988Y-109845277D01*
X192041999Y-109845283D01*
X192049822Y-109850443D01*
X192340022Y-110038943D01*
X192395635Y-110067777D01*
X192450843Y-110097129D01*
X192457197Y-110099696D01*
X192457320Y-110099760D01*
X192457444Y-110099796D01*
X192459607Y-110100670D01*
X194953307Y-111087869D01*
X195007747Y-111103477D01*
X195061744Y-111120606D01*
X195071182Y-111121665D01*
X195080318Y-111124284D01*
X195136781Y-111129023D01*
X195193048Y-111135334D01*
X195202500Y-111135400D01*
X195907100Y-111135400D01*
X195923584Y-111133784D01*
X195940127Y-111134594D01*
X195949564Y-111134067D01*
X198229665Y-110990767D01*
X198231952Y-110990397D01*
X198234270Y-110990462D01*
X198297146Y-110979842D01*
X198360094Y-110969651D01*
X198362268Y-110968843D01*
X198364552Y-110968457D01*
X198373657Y-110965917D01*
X201387657Y-110102417D01*
X201419611Y-110089774D01*
X201452616Y-110080185D01*
X201480897Y-110065525D01*
X201510517Y-110053806D01*
X201539409Y-110035196D01*
X201569921Y-110019380D01*
X201594814Y-109999508D01*
X201621596Y-109982257D01*
X201646328Y-109958385D01*
X201673181Y-109936948D01*
X201679911Y-109930311D01*
X201943811Y-109666411D01*
X201965946Y-109639463D01*
X201990478Y-109614674D01*
X202007778Y-109588537D01*
X202027677Y-109564312D01*
X202044160Y-109533571D01*
X202063405Y-109504496D01*
X202067770Y-109496112D01*
X203796881Y-106117240D01*
X211291625Y-105800633D01*
X215421362Y-112333063D01*
X215421362Y-112333063D01*
G37*
X215421362Y-112333063D02*
X215423910Y-112336336D01*
X215425820Y-112340021D01*
X215464472Y-112388439D01*
X215502527Y-112437322D01*
X215505665Y-112440040D01*
X215508252Y-112443281D01*
X215514889Y-112450011D01*
X215661289Y-112596411D01*
X215709596Y-112636091D01*
X215757517Y-112676302D01*
X215760637Y-112678017D01*
X215763388Y-112680277D01*
X215814534Y-112707701D01*
X215814534Y-112756700D01*
X215819956Y-112824698D01*
X215855673Y-112940030D01*
X215922106Y-113040846D01*
X216013995Y-113119163D01*
X216099600Y-113157751D01*
X216099600Y-113909748D01*
X216053746Y-113965176D01*
X215981572Y-114098659D01*
X215936700Y-114243618D01*
X215920838Y-114394532D01*
X215934591Y-114545653D01*
X215977435Y-114691224D01*
X216047738Y-114825701D01*
X216142822Y-114943962D01*
X216259066Y-115041502D01*
X216273963Y-115049692D01*
X216268066Y-115052827D01*
X216150472Y-115148735D01*
X216053746Y-115265656D01*
X215981572Y-115399139D01*
X215936700Y-115544098D01*
X215920838Y-115695012D01*
X215934591Y-115846133D01*
X215977435Y-115991704D01*
X216047738Y-116126181D01*
X216142822Y-116244442D01*
X216259066Y-116341982D01*
X216392041Y-116415086D01*
X216536684Y-116460969D01*
X216687483Y-116477884D01*
X216698339Y-116477960D01*
X216904941Y-116477960D01*
X217055962Y-116463152D01*
X217201231Y-116419293D01*
X217335214Y-116348053D01*
X217452808Y-116252145D01*
X217549534Y-116135224D01*
X217621708Y-116001741D01*
X217621814Y-116001398D01*
X217874980Y-115807946D01*
X217874980Y-115827442D01*
X217969228Y-115827442D01*
X217874980Y-115921690D01*
X217874980Y-116088092D01*
X217889468Y-116160927D01*
X217917887Y-116229537D01*
X217959145Y-116291284D01*
X218011657Y-116343795D01*
X218073404Y-116385053D01*
X218142013Y-116413472D01*
X218214849Y-116427960D01*
X218480310Y-116427960D01*
X218574560Y-116333710D01*
X218574560Y-115827440D01*
X218828560Y-115827440D01*
X218828560Y-116333710D01*
X218922810Y-116427960D01*
X219188271Y-116427960D01*
X219261107Y-116413472D01*
X219329716Y-116385053D01*
X219391463Y-116343795D01*
X219443975Y-116291284D01*
X219485233Y-116229537D01*
X219513652Y-116160927D01*
X219528140Y-116088092D01*
X219528140Y-115921690D01*
X219433890Y-115827440D01*
X218828560Y-115827440D01*
X218574560Y-115827440D01*
X218554560Y-115827440D01*
X218554560Y-115573440D01*
X218574560Y-115573440D01*
X218574560Y-115553440D01*
X218828560Y-115553440D01*
X218828560Y-115573440D01*
X219433890Y-115573440D01*
X219528140Y-115479190D01*
X219528140Y-115312788D01*
X219513652Y-115239953D01*
X219485233Y-115171343D01*
X219443975Y-115109596D01*
X219391463Y-115057085D01*
X219329716Y-115015827D01*
X219292805Y-115000538D01*
X219352728Y-114951665D01*
X219449454Y-114834744D01*
X219521628Y-114701261D01*
X219566500Y-114556302D01*
X219582362Y-114405388D01*
X219568609Y-114254267D01*
X219525765Y-114108696D01*
X219455462Y-113974219D01*
X219403600Y-113909715D01*
X219403600Y-113493429D01*
X221674013Y-115715079D01*
X221719919Y-115751960D01*
X221765017Y-115789802D01*
X221771365Y-115793292D01*
X221777016Y-115797832D01*
X221829214Y-115825095D01*
X221880801Y-115853455D01*
X221887709Y-115855646D01*
X221894132Y-115859001D01*
X221950624Y-115875604D01*
X222006744Y-115893406D01*
X222013944Y-115894214D01*
X222020897Y-115896257D01*
X222079525Y-115901570D01*
X222138048Y-115908134D01*
X222147500Y-115908200D01*
X222293821Y-115908200D01*
X222275378Y-115994969D01*
X222273113Y-116157136D01*
X222302391Y-116316655D01*
X222362094Y-116467449D01*
X222397894Y-116523000D01*
X190277000Y-116523000D01*
X190277000Y-106194408D01*
X191098478Y-108811267D01*
X191108598Y-108835077D01*
X191115815Y-108859916D01*
X191134380Y-108895731D01*
X191150164Y-108932866D01*
X191164716Y-108954257D01*
X191176620Y-108977221D01*
X191201788Y-109008748D01*
X191224484Y-109042109D01*
X191242915Y-109060266D01*
X191259052Y-109080481D01*
X191265689Y-109087211D01*
X191939835Y-109761357D01*
X191939840Y-109761363D01*
X191939846Y-109761368D01*
X191939889Y-109761411D01*
X191990655Y-109803111D01*
X192041931Y-109845238D01*
X192041979Y-109845270D01*
X192041988Y-109845277D01*
X192041999Y-109845283D01*
X192049822Y-109850443D01*
X192340022Y-110038943D01*
X192395635Y-110067777D01*
X192450843Y-110097129D01*
X192457197Y-110099696D01*
X192457320Y-110099760D01*
X192457444Y-110099796D01*
X192459607Y-110100670D01*
X194953307Y-111087869D01*
X195007747Y-111103477D01*
X195061744Y-111120606D01*
X195071182Y-111121665D01*
X195080318Y-111124284D01*
X195136781Y-111129023D01*
X195193048Y-111135334D01*
X195202500Y-111135400D01*
X195907100Y-111135400D01*
X195923584Y-111133784D01*
X195940127Y-111134594D01*
X195949564Y-111134067D01*
X198229665Y-110990767D01*
X198231952Y-110990397D01*
X198234270Y-110990462D01*
X198297146Y-110979842D01*
X198360094Y-110969651D01*
X198362268Y-110968843D01*
X198364552Y-110968457D01*
X198373657Y-110965917D01*
X201387657Y-110102417D01*
X201419611Y-110089774D01*
X201452616Y-110080185D01*
X201480897Y-110065525D01*
X201510517Y-110053806D01*
X201539409Y-110035196D01*
X201569921Y-110019380D01*
X201594814Y-109999508D01*
X201621596Y-109982257D01*
X201646328Y-109958385D01*
X201673181Y-109936948D01*
X201679911Y-109930311D01*
X201943811Y-109666411D01*
X201965946Y-109639463D01*
X201990478Y-109614674D01*
X202007778Y-109588537D01*
X202027677Y-109564312D01*
X202044160Y-109533571D01*
X202063405Y-109504496D01*
X202067770Y-109496112D01*
X203796881Y-106117240D01*
X211291625Y-105800633D01*
X215421362Y-112333063D01*
G36*
X193317848Y-88981960D02*
X193138973Y-89157128D01*
X192997528Y-89363703D01*
X192898900Y-89593818D01*
X192846848Y-89838707D01*
X192843352Y-90089043D01*
X192888547Y-90335290D01*
X192980710Y-90568068D01*
X193116333Y-90778513D01*
X193290247Y-90958607D01*
X193495830Y-91101491D01*
X193725251Y-91201722D01*
X193969771Y-91255483D01*
X194220076Y-91260726D01*
X194466632Y-91217252D01*
X194700049Y-91126715D01*
X194911435Y-90992566D01*
X195092739Y-90819913D01*
X195237054Y-90615332D01*
X195322692Y-90422985D01*
X208075690Y-90422985D01*
X208777600Y-91124895D01*
X209479510Y-90422985D01*
X209388695Y-90247334D01*
X209170710Y-90148428D01*
X208937618Y-90093950D01*
X208698377Y-90085992D01*
X208462180Y-90124861D01*
X208238104Y-90209063D01*
X208166505Y-90247334D01*
X208075690Y-90422985D01*
X195322692Y-90422985D01*
X195338885Y-90386617D01*
X195394352Y-90142478D01*
X195398345Y-89856520D01*
X195349716Y-89610928D01*
X195254311Y-89379459D01*
X195115764Y-89170928D01*
X194939352Y-88993280D01*
X194766959Y-88877000D01*
X221155608Y-88877000D01*
X220979633Y-89049328D01*
X220838188Y-89255903D01*
X220739560Y-89486018D01*
X220687508Y-89730907D01*
X220684012Y-89981243D01*
X220729207Y-90227490D01*
X220821370Y-90460268D01*
X220956993Y-90670713D01*
X221130907Y-90850807D01*
X221336490Y-90993691D01*
X221565911Y-91093922D01*
X221810431Y-91147683D01*
X222060736Y-91152926D01*
X222307292Y-91109452D01*
X222512419Y-91029888D01*
X222596991Y-91101463D01*
X222419588Y-91167930D01*
X222345197Y-91207692D01*
X222252998Y-91384513D01*
X222963080Y-92094595D01*
X222977223Y-92080453D01*
X223156828Y-92260058D01*
X223142685Y-92274200D01*
X223852767Y-92984282D01*
X224029588Y-92892083D01*
X224129639Y-92672145D01*
X224150257Y-92584315D01*
X225767642Y-94218113D01*
X225738280Y-94286618D01*
X225686228Y-94531507D01*
X225682732Y-94781843D01*
X225727927Y-95028090D01*
X225820090Y-95260868D01*
X225955713Y-95471313D01*
X226129627Y-95651407D01*
X226335210Y-95794291D01*
X226564631Y-95894522D01*
X226809151Y-95948283D01*
X227059456Y-95953526D01*
X227306012Y-95910052D01*
X227539429Y-95819515D01*
X227750815Y-95685366D01*
X227932119Y-95512713D01*
X228076434Y-95308132D01*
X228178265Y-95079417D01*
X228233732Y-94835278D01*
X228237725Y-94549320D01*
X228189096Y-94303728D01*
X228093691Y-94072259D01*
X227955144Y-93863728D01*
X227778732Y-93686080D01*
X227571174Y-93546081D01*
X227340376Y-93449062D01*
X227095130Y-93398720D01*
X226844776Y-93396973D01*
X226598850Y-93443885D01*
X226517030Y-93476943D01*
X226207120Y-93163887D01*
X228651258Y-93163887D01*
X228743457Y-93340708D01*
X228963395Y-93440759D01*
X229198626Y-93495979D01*
X229440110Y-93504246D01*
X229678566Y-93465244D01*
X229904832Y-93380470D01*
X229979223Y-93340708D01*
X230071422Y-93163887D01*
X229361340Y-92453805D01*
X228651258Y-93163887D01*
X226207120Y-93163887D01*
X225404349Y-92352970D01*
X228131294Y-92352970D01*
X228170296Y-92591426D01*
X228255070Y-92817692D01*
X228294832Y-92892083D01*
X228471653Y-92984282D01*
X229181735Y-92274200D01*
X229540945Y-92274200D01*
X230251027Y-92984282D01*
X230427848Y-92892083D01*
X230527899Y-92672145D01*
X230583119Y-92436914D01*
X230591386Y-92195430D01*
X230552384Y-91956974D01*
X230467610Y-91730708D01*
X230427848Y-91656317D01*
X230251027Y-91564118D01*
X229540945Y-92274200D01*
X229181735Y-92274200D01*
X228471653Y-91564118D01*
X228294832Y-91656317D01*
X228194781Y-91876255D01*
X228139561Y-92111486D01*
X228131294Y-92352970D01*
X225404349Y-92352970D01*
X224487722Y-91427041D01*
X224487632Y-91426967D01*
X224485846Y-91425155D01*
X223824278Y-90763587D01*
X228252478Y-90763587D01*
X228344677Y-90940408D01*
X228564615Y-91040459D01*
X228799846Y-91095679D01*
X228993037Y-91102293D01*
X228817848Y-91167930D01*
X228743457Y-91207692D01*
X228651258Y-91384513D01*
X229361340Y-92094595D01*
X230071422Y-91384513D01*
X229979223Y-91207692D01*
X229759285Y-91107641D01*
X229524054Y-91052421D01*
X229330863Y-91045807D01*
X229506052Y-90980170D01*
X229580443Y-90940408D01*
X229672642Y-90763587D01*
X228962560Y-90053505D01*
X228252478Y-90763587D01*
X223824278Y-90763587D01*
X223812145Y-90751455D01*
X223798056Y-90739882D01*
X223785536Y-90726623D01*
X223779953Y-90721830D01*
X223191956Y-90224190D01*
X223235012Y-90034678D01*
X223236157Y-89952670D01*
X227732514Y-89952670D01*
X227771516Y-90191126D01*
X227856290Y-90417392D01*
X227896052Y-90491783D01*
X228072873Y-90583982D01*
X228782955Y-89873900D01*
X229142165Y-89873900D01*
X229852247Y-90583982D01*
X230029068Y-90491783D01*
X230129119Y-90271845D01*
X230184339Y-90036614D01*
X230192606Y-89795130D01*
X230153604Y-89556674D01*
X230068830Y-89330408D01*
X230029068Y-89256017D01*
X229852247Y-89163818D01*
X229142165Y-89873900D01*
X228782955Y-89873900D01*
X228072873Y-89163818D01*
X227896052Y-89256017D01*
X227796001Y-89475955D01*
X227740781Y-89711186D01*
X227732514Y-89952670D01*
X223236157Y-89952670D01*
X223239005Y-89748720D01*
X223190376Y-89503128D01*
X223094971Y-89271659D01*
X222956424Y-89063128D01*
X222780012Y-88885480D01*
X222767440Y-88877000D01*
X228308382Y-88877000D01*
X228252478Y-88984213D01*
X228962560Y-89694295D01*
X229672642Y-88984213D01*
X229616738Y-88877000D01*
X230723000Y-88877000D01*
X230723000Y-104064899D01*
X230620335Y-104018621D01*
X230500800Y-104001634D01*
X228000800Y-104001634D01*
X227932802Y-104007056D01*
X227817470Y-104042773D01*
X227716654Y-104109206D01*
X227638337Y-104201095D01*
X227588721Y-104311165D01*
X227571734Y-104430700D01*
X227571734Y-104653700D01*
X226729866Y-104653700D01*
X226729866Y-104430700D01*
X226724444Y-104362702D01*
X226688727Y-104247370D01*
X226622294Y-104146554D01*
X226530405Y-104068237D01*
X226420335Y-104018621D01*
X226300800Y-104001634D01*
X225230500Y-104001634D01*
X225230500Y-102287164D01*
X225434959Y-102195364D01*
X225470140Y-102175232D01*
X225506125Y-102156579D01*
X225514704Y-102149731D01*
X225524229Y-102144280D01*
X225554824Y-102117703D01*
X225586506Y-102092412D01*
X225591745Y-102087245D01*
X225635324Y-102043666D01*
X226177700Y-102043666D01*
X226245698Y-102038244D01*
X226361030Y-102002527D01*
X226461846Y-101936094D01*
X226540163Y-101844205D01*
X226589779Y-101734135D01*
X226606766Y-101614600D01*
X226606766Y-100714600D01*
X226601344Y-100646602D01*
X226565627Y-100531270D01*
X226499194Y-100430454D01*
X226442945Y-100382513D01*
X226470535Y-100354923D01*
X226511793Y-100293176D01*
X226540212Y-100224567D01*
X226554700Y-100151731D01*
X226554700Y-99885850D01*
X226460450Y-99791600D01*
X225804700Y-99791600D01*
X225804700Y-99811600D01*
X225550700Y-99811600D01*
X225550700Y-99791600D01*
X224894950Y-99791600D01*
X224800700Y-99885850D01*
X224800700Y-100151731D01*
X224815188Y-100224567D01*
X224843607Y-100293176D01*
X224884865Y-100354923D01*
X224911332Y-100381391D01*
X224893554Y-100393106D01*
X224815237Y-100484995D01*
X224765621Y-100595065D01*
X224748634Y-100714600D01*
X224748634Y-101348152D01*
X224702619Y-101368813D01*
X224672766Y-101355518D01*
X224672766Y-100733900D01*
X224667344Y-100665902D01*
X224631627Y-100550570D01*
X224565194Y-100449754D01*
X224490050Y-100385709D01*
X224536535Y-100339223D01*
X224577793Y-100277476D01*
X224606212Y-100208867D01*
X224620700Y-100136031D01*
X224620700Y-99875650D01*
X224526450Y-99781400D01*
X223862700Y-99781400D01*
X223862700Y-99801400D01*
X223608700Y-99801400D01*
X223608700Y-99781400D01*
X222944950Y-99781400D01*
X222850700Y-99875650D01*
X222850700Y-100136031D01*
X222865188Y-100208867D01*
X222893607Y-100277476D01*
X222934865Y-100339223D01*
X222982430Y-100386789D01*
X222943554Y-100412406D01*
X222865237Y-100504295D01*
X222815621Y-100614365D01*
X222798634Y-100733900D01*
X222798634Y-101622900D01*
X222804056Y-101690898D01*
X222839773Y-101806230D01*
X222906206Y-101907046D01*
X222998095Y-101985363D01*
X223108165Y-102034979D01*
X223227700Y-102051966D01*
X223786076Y-102051966D01*
X223829655Y-102095545D01*
X223861589Y-102121776D01*
X223892501Y-102149226D01*
X223901276Y-102154375D01*
X223909133Y-102160829D01*
X223945556Y-102180359D01*
X223981208Y-102201280D01*
X223987909Y-102204320D01*
X224176500Y-102288305D01*
X224176500Y-104001634D01*
X223800800Y-104001634D01*
X223732802Y-104007056D01*
X223617470Y-104042773D01*
X223516654Y-104109206D01*
X223438337Y-104201095D01*
X223388721Y-104311165D01*
X223371734Y-104430700D01*
X223371734Y-105902656D01*
X223285408Y-106451634D01*
X222100800Y-106451634D01*
X222032802Y-106457056D01*
X221917470Y-106492773D01*
X221816654Y-106559206D01*
X221738337Y-106651095D01*
X221688721Y-106761165D01*
X221671734Y-106880700D01*
X221671734Y-109380700D01*
X221677156Y-109448698D01*
X221712873Y-109564030D01*
X221779306Y-109664846D01*
X221871195Y-109743163D01*
X221981265Y-109792779D01*
X222100800Y-109809766D01*
X222323800Y-109809766D01*
X222323800Y-110851634D01*
X222100800Y-110851634D01*
X222032802Y-110857056D01*
X221917470Y-110892773D01*
X221816654Y-110959206D01*
X221738337Y-111051095D01*
X221688721Y-111161165D01*
X221671734Y-111280700D01*
X221671734Y-113780700D01*
X221674999Y-113821650D01*
X219836687Y-112022821D01*
X219790791Y-111985948D01*
X219745683Y-111948098D01*
X219739332Y-111944607D01*
X219733683Y-111940068D01*
X219688666Y-111916556D01*
X219688666Y-111867700D01*
X219683244Y-111799702D01*
X219647527Y-111684370D01*
X219581094Y-111583554D01*
X219505950Y-111519509D01*
X219552435Y-111473023D01*
X219593693Y-111411276D01*
X219622112Y-111342667D01*
X219636600Y-111269831D01*
X219636600Y-111009450D01*
X219542350Y-110915200D01*
X218878600Y-110915200D01*
X218878600Y-110935200D01*
X218624600Y-110935200D01*
X218624600Y-110915200D01*
X217960850Y-110915200D01*
X217866600Y-111009450D01*
X217866600Y-111269831D01*
X217881088Y-111342667D01*
X217909507Y-111411276D01*
X217950765Y-111473023D01*
X217998330Y-111520589D01*
X217959454Y-111546206D01*
X217881137Y-111638095D01*
X217831521Y-111748165D01*
X217814534Y-111867700D01*
X217814534Y-112756700D01*
X217819956Y-112824698D01*
X217855673Y-112940030D01*
X217922106Y-113040846D01*
X218013995Y-113119163D01*
X218049600Y-113135213D01*
X218049600Y-113849212D01*
X217953666Y-113965176D01*
X217881492Y-114098659D01*
X217881386Y-114099002D01*
X217669307Y-114261058D01*
X217668689Y-114254267D01*
X217625845Y-114108696D01*
X217555542Y-113974219D01*
X217460458Y-113855958D01*
X217453600Y-113850203D01*
X217453600Y-113137596D01*
X217543746Y-113078194D01*
X217622063Y-112986305D01*
X217671679Y-112876235D01*
X217688666Y-112756700D01*
X217688666Y-111867700D01*
X217683244Y-111799702D01*
X217647527Y-111684370D01*
X217581094Y-111583554D01*
X217505950Y-111519509D01*
X217552435Y-111473023D01*
X217593693Y-111411276D01*
X217622112Y-111342667D01*
X217636600Y-111269831D01*
X217636600Y-111009450D01*
X217542350Y-110915200D01*
X216878600Y-110915200D01*
X216878600Y-110935200D01*
X216624600Y-110935200D01*
X216624600Y-110915200D01*
X216604600Y-110915200D01*
X216604600Y-110661200D01*
X216624600Y-110661200D01*
X216624600Y-110060950D01*
X216878600Y-110060950D01*
X216878600Y-110661200D01*
X217542350Y-110661200D01*
X217636600Y-110566950D01*
X217636600Y-110306569D01*
X217866600Y-110306569D01*
X217866600Y-110566950D01*
X217960850Y-110661200D01*
X218624600Y-110661200D01*
X218624600Y-110060950D01*
X218878600Y-110060950D01*
X218878600Y-110661200D01*
X219542350Y-110661200D01*
X219636600Y-110566950D01*
X219636600Y-110306569D01*
X219622112Y-110233733D01*
X219593693Y-110165124D01*
X219552435Y-110103377D01*
X219499924Y-110050865D01*
X219438177Y-110009607D01*
X219369567Y-109981188D01*
X219296732Y-109966700D01*
X218972850Y-109966700D01*
X218878600Y-110060950D01*
X218624600Y-110060950D01*
X218530350Y-109966700D01*
X218206468Y-109966700D01*
X218133633Y-109981188D01*
X218065023Y-110009607D01*
X218003276Y-110050865D01*
X217950765Y-110103377D01*
X217909507Y-110165124D01*
X217881088Y-110233733D01*
X217866600Y-110306569D01*
X217636600Y-110306569D01*
X217622112Y-110233733D01*
X217593693Y-110165124D01*
X217552435Y-110103377D01*
X217499924Y-110050865D01*
X217438177Y-110009607D01*
X217369567Y-109981188D01*
X217296732Y-109966700D01*
X216972850Y-109966700D01*
X216878600Y-110060950D01*
X216624600Y-110060950D01*
X216530350Y-109966700D01*
X216206468Y-109966700D01*
X216133633Y-109981188D01*
X216065023Y-110009607D01*
X216003276Y-110050865D01*
X215950765Y-110103377D01*
X215909507Y-110165124D01*
X215881088Y-110233733D01*
X215866600Y-110306569D01*
X215866600Y-110503480D01*
X212437407Y-105079174D01*
X213703042Y-102711552D01*
X215520072Y-102711552D01*
X215598912Y-103141115D01*
X215759685Y-103547183D01*
X215996270Y-103914290D01*
X216299653Y-104228452D01*
X216658279Y-104477704D01*
X217058489Y-104652551D01*
X217485038Y-104746334D01*
X217921680Y-104755481D01*
X218351782Y-104679642D01*
X218758963Y-104521707D01*
X219127712Y-104287692D01*
X219443985Y-103986509D01*
X219695735Y-103629631D01*
X219873372Y-103230652D01*
X219970130Y-102804768D01*
X219977096Y-102305931D01*
X219892267Y-101877512D01*
X219725839Y-101473728D01*
X219484152Y-101109960D01*
X219176412Y-100800064D01*
X218814340Y-100555844D01*
X218411728Y-100386601D01*
X217983911Y-100298783D01*
X217547185Y-100295734D01*
X217118183Y-100377570D01*
X216713247Y-100541175D01*
X216347801Y-100780316D01*
X216035764Y-101085885D01*
X215789022Y-101446243D01*
X215616973Y-101847664D01*
X215526170Y-102274857D01*
X215520072Y-102711552D01*
X213703042Y-102711552D01*
X215594734Y-99172769D01*
X222850700Y-99172769D01*
X222850700Y-99433150D01*
X222944950Y-99527400D01*
X223608700Y-99527400D01*
X223608700Y-98927150D01*
X223862700Y-98927150D01*
X223862700Y-99527400D01*
X224526450Y-99527400D01*
X224620700Y-99433150D01*
X224620700Y-99177469D01*
X224800700Y-99177469D01*
X224800700Y-99443350D01*
X224894950Y-99537600D01*
X225550700Y-99537600D01*
X225550700Y-98931850D01*
X225804700Y-98931850D01*
X225804700Y-99537600D01*
X226460450Y-99537600D01*
X226554700Y-99443350D01*
X226554700Y-99177469D01*
X226540212Y-99104633D01*
X226511793Y-99036024D01*
X226470535Y-98974277D01*
X226418024Y-98921765D01*
X226356277Y-98880507D01*
X226287667Y-98852088D01*
X226214832Y-98837600D01*
X225898950Y-98837600D01*
X225804700Y-98931850D01*
X225550700Y-98931850D01*
X225456450Y-98837600D01*
X225140568Y-98837600D01*
X225067733Y-98852088D01*
X224999123Y-98880507D01*
X224937376Y-98921765D01*
X224884865Y-98974277D01*
X224843607Y-99036024D01*
X224815188Y-99104633D01*
X224800700Y-99177469D01*
X224620700Y-99177469D01*
X224620700Y-99172769D01*
X224606212Y-99099933D01*
X224577793Y-99031324D01*
X224536535Y-98969577D01*
X224484024Y-98917065D01*
X224422277Y-98875807D01*
X224353667Y-98847388D01*
X224280832Y-98832900D01*
X223956950Y-98832900D01*
X223862700Y-98927150D01*
X223608700Y-98927150D01*
X223514450Y-98832900D01*
X223190568Y-98832900D01*
X223117733Y-98847388D01*
X223049123Y-98875807D01*
X222987376Y-98917065D01*
X222934865Y-98969577D01*
X222893607Y-99031324D01*
X222865188Y-99099933D01*
X222850700Y-99172769D01*
X215594734Y-99172769D01*
X217097549Y-96361458D01*
X217108714Y-96334539D01*
X217122755Y-96308999D01*
X217133965Y-96273659D01*
X217148170Y-96239412D01*
X217153895Y-96210833D01*
X217162706Y-96183056D01*
X217166838Y-96146216D01*
X217174121Y-96109859D01*
X217174186Y-96080712D01*
X217177434Y-96051752D01*
X217177500Y-96042300D01*
X217177500Y-95006300D01*
X217176390Y-94994979D01*
X217177120Y-94983630D01*
X217169954Y-94929333D01*
X217164607Y-94874803D01*
X217161319Y-94863912D01*
X217159831Y-94852639D01*
X217157621Y-94843449D01*
X216781400Y-93325362D01*
X216781400Y-93318938D01*
X216783466Y-93304400D01*
X216783466Y-93163887D01*
X222252998Y-93163887D01*
X222345197Y-93340708D01*
X222565135Y-93440759D01*
X222800366Y-93495979D01*
X223041850Y-93504246D01*
X223280306Y-93465244D01*
X223506572Y-93380470D01*
X223580963Y-93340708D01*
X223673162Y-93163887D01*
X222963080Y-92453805D01*
X222252998Y-93163887D01*
X216783466Y-93163887D01*
X216783466Y-92404400D01*
X216779366Y-92352970D01*
X221733034Y-92352970D01*
X221772036Y-92591426D01*
X221856810Y-92817692D01*
X221896572Y-92892083D01*
X222073393Y-92984282D01*
X222783475Y-92274200D01*
X222073393Y-91564118D01*
X221896572Y-91656317D01*
X221796521Y-91876255D01*
X221741301Y-92111486D01*
X221733034Y-92352970D01*
X216779366Y-92352970D01*
X216778044Y-92336402D01*
X216742327Y-92221070D01*
X216675894Y-92120254D01*
X216657045Y-92104189D01*
X216716863Y-92034005D01*
X216766479Y-91923935D01*
X216783466Y-91804400D01*
X216783466Y-90904400D01*
X216778044Y-90836402D01*
X216742327Y-90721070D01*
X216675894Y-90620254D01*
X216584005Y-90541937D01*
X216473935Y-90492321D01*
X216354400Y-90475334D01*
X215354400Y-90475334D01*
X215286402Y-90480756D01*
X215171070Y-90516473D01*
X215070254Y-90582906D01*
X214991937Y-90674795D01*
X214942321Y-90784865D01*
X214939829Y-90802400D01*
X212584866Y-90802400D01*
X212584866Y-90466300D01*
X212579444Y-90398302D01*
X212543727Y-90282970D01*
X212477294Y-90182154D01*
X212385405Y-90103837D01*
X212275335Y-90054221D01*
X212155800Y-90037234D01*
X210479400Y-90037234D01*
X210411402Y-90042656D01*
X210296070Y-90078373D01*
X210195254Y-90144806D01*
X210116937Y-90236695D01*
X210067321Y-90346765D01*
X210050334Y-90466300D01*
X210050334Y-92142700D01*
X210055756Y-92210698D01*
X210091473Y-92326030D01*
X210157906Y-92426846D01*
X210249795Y-92505163D01*
X210359865Y-92554779D01*
X210479400Y-92571766D01*
X212155800Y-92571766D01*
X212223798Y-92566344D01*
X212339130Y-92530627D01*
X212439946Y-92464194D01*
X212518263Y-92372305D01*
X212567879Y-92262235D01*
X212584866Y-92142700D01*
X212584866Y-91856400D01*
X214929480Y-91856400D01*
X214930756Y-91872398D01*
X214966473Y-91987730D01*
X215032906Y-92088546D01*
X215051755Y-92104611D01*
X214991937Y-92174795D01*
X214942321Y-92284865D01*
X214925334Y-92404400D01*
X214925334Y-93304400D01*
X214930756Y-93372398D01*
X214966473Y-93487730D01*
X215032906Y-93588546D01*
X215124795Y-93666863D01*
X215234865Y-93716479D01*
X215354400Y-93733466D01*
X215487579Y-93733466D01*
X215656917Y-94416760D01*
X215626949Y-94403285D01*
X215401008Y-94351286D01*
X215169262Y-94344364D01*
X214940620Y-94382788D01*
X214723867Y-94465079D01*
X214661595Y-94498364D01*
X214575413Y-94670108D01*
X215250000Y-95344695D01*
X215264143Y-95330553D01*
X215443748Y-95510158D01*
X215429605Y-95524300D01*
X215443748Y-95538443D01*
X215264143Y-95718048D01*
X215250000Y-95703905D01*
X214575413Y-96378492D01*
X214661595Y-96550236D01*
X214873051Y-96645315D01*
X215098992Y-96697314D01*
X215330738Y-96704236D01*
X215383761Y-96695325D01*
X211239695Y-104447619D01*
X208670118Y-104556168D01*
X208758963Y-104521707D01*
X209127712Y-104287692D01*
X209443985Y-103986509D01*
X209695735Y-103629631D01*
X209873372Y-103230652D01*
X209970130Y-102804768D01*
X209977096Y-102305931D01*
X209892267Y-101877512D01*
X209725839Y-101473728D01*
X209484152Y-101109960D01*
X209176412Y-100800064D01*
X208814340Y-100555844D01*
X208411728Y-100386601D01*
X207983911Y-100298783D01*
X207547185Y-100295734D01*
X207118183Y-100377570D01*
X206713247Y-100541175D01*
X206347801Y-100780316D01*
X206035764Y-101085885D01*
X205789022Y-101446243D01*
X205616973Y-101847664D01*
X205526170Y-102274857D01*
X205520072Y-102711552D01*
X205598912Y-103141115D01*
X205759685Y-103547183D01*
X205996270Y-103914290D01*
X206299653Y-104228452D01*
X206658279Y-104477704D01*
X206999420Y-104626744D01*
X203735953Y-104764606D01*
X203296132Y-104072034D01*
X203355657Y-103983533D01*
X203385665Y-103927860D01*
X203416155Y-103872399D01*
X203417008Y-103869710D01*
X203418348Y-103867224D01*
X203436995Y-103806701D01*
X203456106Y-103746456D01*
X203456420Y-103743655D01*
X203457252Y-103740955D01*
X203463791Y-103677942D01*
X203470834Y-103615152D01*
X203470872Y-103609706D01*
X203470890Y-103609533D01*
X203470874Y-103609364D01*
X203470900Y-103605700D01*
X203470900Y-100819500D01*
X203464800Y-100757290D01*
X203459348Y-100694965D01*
X203458354Y-100691545D01*
X203458007Y-100688003D01*
X203439931Y-100628132D01*
X203422485Y-100568084D01*
X203420848Y-100564925D01*
X203419818Y-100561515D01*
X203390449Y-100506281D01*
X203361680Y-100450779D01*
X203359459Y-100447997D01*
X203357788Y-100444854D01*
X203318272Y-100396403D01*
X203279248Y-100347519D01*
X203274361Y-100342563D01*
X203274279Y-100342463D01*
X203274186Y-100342386D01*
X203272611Y-100340789D01*
X203008711Y-100076889D01*
X202988178Y-100060023D01*
X202969754Y-100040872D01*
X202937248Y-100018188D01*
X202906612Y-99993023D01*
X202883190Y-99980464D01*
X202861401Y-99965259D01*
X202853127Y-99960690D01*
X201355466Y-99147231D01*
X201355466Y-99045600D01*
X201350044Y-98977602D01*
X201314327Y-98862270D01*
X201247894Y-98761454D01*
X201172750Y-98697409D01*
X201219235Y-98650923D01*
X201260493Y-98589176D01*
X201288912Y-98520567D01*
X201303400Y-98447731D01*
X201303400Y-98187350D01*
X201209150Y-98093100D01*
X200545400Y-98093100D01*
X200545400Y-98113100D01*
X200291400Y-98113100D01*
X200291400Y-98093100D01*
X200271400Y-98093100D01*
X200271400Y-97839100D01*
X200291400Y-97839100D01*
X200291400Y-97819100D01*
X200545400Y-97819100D01*
X200545400Y-97839100D01*
X201209150Y-97839100D01*
X201303400Y-97744850D01*
X201303400Y-97508914D01*
X209239835Y-96221986D01*
X209283755Y-96290136D01*
X209450909Y-96463229D01*
X209648500Y-96600558D01*
X209869002Y-96696893D01*
X210104015Y-96748564D01*
X210344590Y-96753603D01*
X210581561Y-96711819D01*
X210805904Y-96624802D01*
X211009072Y-96495868D01*
X211183327Y-96329926D01*
X211322032Y-96133299D01*
X211419904Y-95913475D01*
X211473215Y-95678828D01*
X211473932Y-95627470D01*
X211521387Y-95627470D01*
X211564825Y-95864143D01*
X211653406Y-96087873D01*
X211783755Y-96290136D01*
X211950909Y-96463229D01*
X212148500Y-96600558D01*
X212369002Y-96696893D01*
X212604015Y-96748564D01*
X212844590Y-96753603D01*
X213081561Y-96711819D01*
X213305904Y-96624802D01*
X213509072Y-96495868D01*
X213683327Y-96329926D01*
X213822032Y-96133299D01*
X213919904Y-95913475D01*
X213973215Y-95678828D01*
X213974245Y-95605038D01*
X214070064Y-95605038D01*
X214108488Y-95833680D01*
X214190779Y-96050433D01*
X214224064Y-96112705D01*
X214395808Y-96198887D01*
X215070395Y-95524300D01*
X214395808Y-94849713D01*
X214224064Y-94935895D01*
X214128985Y-95147351D01*
X214076986Y-95373292D01*
X214070064Y-95605038D01*
X213974245Y-95605038D01*
X213977053Y-95403986D01*
X213930315Y-95167942D01*
X213838619Y-94945471D01*
X213705458Y-94745048D01*
X213535904Y-94574306D01*
X213336415Y-94439749D01*
X213114589Y-94346502D01*
X212878877Y-94298117D01*
X212638256Y-94296437D01*
X212401891Y-94341526D01*
X212178785Y-94431667D01*
X211977437Y-94563425D01*
X211805515Y-94731783D01*
X211669569Y-94930328D01*
X211574776Y-95151497D01*
X211524747Y-95386866D01*
X211521387Y-95627470D01*
X211473932Y-95627470D01*
X211477053Y-95403986D01*
X211430315Y-95167942D01*
X211338619Y-94945471D01*
X211205458Y-94745048D01*
X211035904Y-94574306D01*
X210836415Y-94439749D01*
X210614589Y-94346502D01*
X210378877Y-94298117D01*
X210138256Y-94296437D01*
X209901891Y-94341526D01*
X209678785Y-94431667D01*
X209477437Y-94563425D01*
X209305515Y-94731783D01*
X209169569Y-94930328D01*
X209074776Y-95151497D01*
X209068285Y-95182037D01*
X199701546Y-96700895D01*
X199655702Y-96713017D01*
X199609682Y-96724435D01*
X199606018Y-96726154D01*
X199602111Y-96727187D01*
X199559525Y-96747967D01*
X199516568Y-96768121D01*
X199510270Y-96771926D01*
X198998064Y-97086234D01*
X198104238Y-97086234D01*
X198865754Y-96033495D01*
X198968491Y-96056083D01*
X199218796Y-96061326D01*
X199465352Y-96017852D01*
X199698769Y-95927315D01*
X199910155Y-95793166D01*
X200091459Y-95620513D01*
X200235774Y-95415932D01*
X200337605Y-95187217D01*
X200393072Y-94943078D01*
X200397065Y-94657120D01*
X200348436Y-94411528D01*
X200253031Y-94180059D01*
X200114484Y-93971528D01*
X199938072Y-93793880D01*
X199730514Y-93653881D01*
X199499716Y-93556862D01*
X199254470Y-93506520D01*
X199004116Y-93504773D01*
X198758190Y-93551685D01*
X198526061Y-93645472D01*
X198316568Y-93782560D01*
X198137693Y-93957728D01*
X197996248Y-94164303D01*
X197897620Y-94394418D01*
X197845568Y-94639307D01*
X197842072Y-94889643D01*
X197887267Y-95135890D01*
X197979430Y-95368668D01*
X198010709Y-95417203D01*
X196803099Y-97086634D01*
X196257100Y-97086634D01*
X196189102Y-97092056D01*
X196073770Y-97127773D01*
X195972954Y-97194206D01*
X195894637Y-97286095D01*
X195875581Y-97328370D01*
X195865993Y-97305224D01*
X195824735Y-97243477D01*
X195772224Y-97190965D01*
X195710477Y-97149707D01*
X195641867Y-97121288D01*
X195569032Y-97106800D01*
X195203150Y-97106800D01*
X195108900Y-97201050D01*
X195108900Y-97806800D01*
X195128900Y-97806800D01*
X195128900Y-97856800D01*
X194481900Y-97856800D01*
X194436307Y-97861270D01*
X194390884Y-97865564D01*
X194390085Y-97865802D01*
X194389250Y-97865884D01*
X194345542Y-97879080D01*
X194301670Y-97892159D01*
X194300926Y-97892551D01*
X194300129Y-97892792D01*
X194259832Y-97914218D01*
X194219321Y-97935578D01*
X194218672Y-97936104D01*
X194217932Y-97936497D01*
X194182416Y-97965463D01*
X194146973Y-97994164D01*
X194146439Y-97994805D01*
X194145789Y-97995335D01*
X194116652Y-98030556D01*
X194087382Y-98065686D01*
X194086980Y-98066423D01*
X194086449Y-98067065D01*
X194064742Y-98107212D01*
X194042819Y-98147421D01*
X194042569Y-98148219D01*
X194042171Y-98148955D01*
X194028683Y-98192528D01*
X194014980Y-98236255D01*
X194014889Y-98237090D01*
X194014643Y-98237886D01*
X194009867Y-98283322D01*
X194004927Y-98328805D01*
X194005000Y-98329636D01*
X194004912Y-98330470D01*
X194009063Y-98376084D01*
X194013040Y-98421545D01*
X194013273Y-98422348D01*
X194013349Y-98423181D01*
X194026253Y-98467024D01*
X194039012Y-98510943D01*
X194039397Y-98511687D01*
X194039633Y-98512487D01*
X194060842Y-98553057D01*
X194063840Y-98558841D01*
X194043472Y-98595890D01*
X194043219Y-98596687D01*
X194042819Y-98597421D01*
X194029120Y-98641135D01*
X194015324Y-98684626D01*
X194015231Y-98685454D01*
X194014980Y-98686255D01*
X194010053Y-98731614D01*
X194004946Y-98777140D01*
X194004935Y-98778731D01*
X194004927Y-98778805D01*
X194004934Y-98778884D01*
X194004900Y-98783800D01*
X194004900Y-98969262D01*
X194002834Y-98983800D01*
X194002834Y-99983800D01*
X194008256Y-100051798D01*
X194043973Y-100167130D01*
X194110406Y-100267946D01*
X194202295Y-100346263D01*
X194312365Y-100395879D01*
X194421800Y-100411431D01*
X194421800Y-102238000D01*
X194426549Y-102286434D01*
X194428590Y-102309756D01*
X194001017Y-102293420D01*
X193978189Y-102229167D01*
X193973795Y-102219812D01*
X193970912Y-102209889D01*
X193951969Y-102173345D01*
X193934462Y-102136072D01*
X193928333Y-102127747D01*
X193923579Y-102118575D01*
X193897901Y-102086408D01*
X193873486Y-102053244D01*
X193865858Y-102046269D01*
X193859412Y-102038194D01*
X193854245Y-102032955D01*
X193810666Y-101989376D01*
X193810666Y-101347000D01*
X193805244Y-101279002D01*
X193769527Y-101163670D01*
X193703094Y-101062854D01*
X193611205Y-100984537D01*
X193501135Y-100934921D01*
X193381600Y-100917934D01*
X192481600Y-100917934D01*
X192413602Y-100923356D01*
X192298270Y-100959073D01*
X192285604Y-100967420D01*
X192269510Y-100958572D01*
X192268713Y-100958319D01*
X192267979Y-100957919D01*
X192224306Y-100944233D01*
X192180774Y-100930424D01*
X192179945Y-100930331D01*
X192179144Y-100930080D01*
X192133802Y-100925155D01*
X192088260Y-100920046D01*
X192086669Y-100920035D01*
X192086595Y-100920027D01*
X192086516Y-100920034D01*
X192081600Y-100920000D01*
X191896138Y-100920000D01*
X191881600Y-100917934D01*
X190881600Y-100917934D01*
X190813602Y-100923356D01*
X190698270Y-100959073D01*
X190597454Y-101025506D01*
X190519137Y-101117395D01*
X190469521Y-101227465D01*
X190452534Y-101347000D01*
X190452534Y-101606799D01*
X190409279Y-101629220D01*
X190406497Y-101631441D01*
X190403354Y-101633112D01*
X190354903Y-101672628D01*
X190306019Y-101711652D01*
X190301063Y-101716539D01*
X190300963Y-101716621D01*
X190300886Y-101716714D01*
X190299289Y-101718289D01*
X190277000Y-101740578D01*
X190277000Y-97446669D01*
X194054900Y-97446669D01*
X194054900Y-97712550D01*
X194149150Y-97806800D01*
X194854900Y-97806800D01*
X194854900Y-97201050D01*
X194760650Y-97106800D01*
X194394768Y-97106800D01*
X194321933Y-97121288D01*
X194253323Y-97149707D01*
X194191576Y-97190965D01*
X194139065Y-97243477D01*
X194097807Y-97305224D01*
X194069388Y-97373833D01*
X194054900Y-97446669D01*
X190277000Y-97446669D01*
X190277000Y-95671987D01*
X191410058Y-95671987D01*
X191502257Y-95848808D01*
X191722195Y-95948859D01*
X191957426Y-96004079D01*
X192198910Y-96012346D01*
X192437366Y-95973344D01*
X192663632Y-95888570D01*
X192738023Y-95848808D01*
X192830222Y-95671987D01*
X192120140Y-94961905D01*
X191410058Y-95671987D01*
X190277000Y-95671987D01*
X190277000Y-94861070D01*
X190890094Y-94861070D01*
X190929096Y-95099526D01*
X191013870Y-95325792D01*
X191053632Y-95400183D01*
X191230453Y-95492382D01*
X191940535Y-94782300D01*
X192299745Y-94782300D01*
X193009827Y-95492382D01*
X193186648Y-95400183D01*
X193286699Y-95180245D01*
X193341919Y-94945014D01*
X193350186Y-94703530D01*
X193311184Y-94465074D01*
X193226410Y-94238808D01*
X193186648Y-94164417D01*
X193009827Y-94072218D01*
X192299745Y-94782300D01*
X191940535Y-94782300D01*
X191230453Y-94072218D01*
X191053632Y-94164417D01*
X190953581Y-94384355D01*
X190898361Y-94619586D01*
X190890094Y-94861070D01*
X190277000Y-94861070D01*
X190277000Y-93271687D01*
X191011278Y-93271687D01*
X191103477Y-93448508D01*
X191323415Y-93548559D01*
X191558646Y-93603779D01*
X191751837Y-93610393D01*
X191576648Y-93676030D01*
X191502257Y-93715792D01*
X191410058Y-93892613D01*
X192120140Y-94602695D01*
X192830222Y-93892613D01*
X192738023Y-93715792D01*
X192518085Y-93615741D01*
X192282854Y-93560521D01*
X192089663Y-93553907D01*
X192264852Y-93488270D01*
X192339243Y-93448508D01*
X192431442Y-93271687D01*
X197409538Y-93271687D01*
X197501737Y-93448508D01*
X197721675Y-93548559D01*
X197956906Y-93603779D01*
X198198390Y-93612046D01*
X198436846Y-93573044D01*
X198663112Y-93488270D01*
X198737503Y-93448508D01*
X198829702Y-93271687D01*
X198119620Y-92561605D01*
X197409538Y-93271687D01*
X192431442Y-93271687D01*
X191721360Y-92561605D01*
X191011278Y-93271687D01*
X190277000Y-93271687D01*
X190277000Y-92460770D01*
X190491314Y-92460770D01*
X190530316Y-92699226D01*
X190615090Y-92925492D01*
X190654852Y-92999883D01*
X190831673Y-93092082D01*
X191541755Y-92382000D01*
X191900965Y-92382000D01*
X192611047Y-93092082D01*
X192787868Y-92999883D01*
X192887919Y-92779945D01*
X192943139Y-92544714D01*
X192946012Y-92460770D01*
X196889574Y-92460770D01*
X196928576Y-92699226D01*
X197013350Y-92925492D01*
X197053112Y-92999883D01*
X197229933Y-93092082D01*
X197940015Y-92382000D01*
X198299225Y-92382000D01*
X199009307Y-93092082D01*
X199186128Y-92999883D01*
X199286179Y-92779945D01*
X199341399Y-92544714D01*
X199349666Y-92303230D01*
X199330495Y-92186015D01*
X208075690Y-92186015D01*
X208166505Y-92361666D01*
X208384490Y-92460572D01*
X208617582Y-92515050D01*
X208856823Y-92523008D01*
X209093020Y-92484139D01*
X209317096Y-92399937D01*
X209388695Y-92361666D01*
X209479510Y-92186015D01*
X208777600Y-91484105D01*
X208075690Y-92186015D01*
X199330495Y-92186015D01*
X199310664Y-92064774D01*
X199225890Y-91838508D01*
X199186128Y-91764117D01*
X199009307Y-91671918D01*
X198299225Y-92382000D01*
X197940015Y-92382000D01*
X197229933Y-91671918D01*
X197053112Y-91764117D01*
X196953061Y-91984055D01*
X196897841Y-92219286D01*
X196889574Y-92460770D01*
X192946012Y-92460770D01*
X192951406Y-92303230D01*
X192912404Y-92064774D01*
X192827630Y-91838508D01*
X192787868Y-91764117D01*
X192611047Y-91671918D01*
X191900965Y-92382000D01*
X191541755Y-92382000D01*
X190831673Y-91671918D01*
X190654852Y-91764117D01*
X190554801Y-91984055D01*
X190499581Y-92219286D01*
X190491314Y-92460770D01*
X190277000Y-92460770D01*
X190277000Y-91492313D01*
X191011278Y-91492313D01*
X191721360Y-92202395D01*
X192431442Y-91492313D01*
X197409538Y-91492313D01*
X198119620Y-92202395D01*
X198829702Y-91492313D01*
X198773081Y-91383723D01*
X207559092Y-91383723D01*
X207597961Y-91619920D01*
X207682163Y-91843996D01*
X207720434Y-91915595D01*
X207896085Y-92006410D01*
X208597995Y-91304500D01*
X208957205Y-91304500D01*
X209659115Y-92006410D01*
X209834766Y-91915595D01*
X209933672Y-91697610D01*
X209988150Y-91464518D01*
X209996108Y-91225277D01*
X209957239Y-90989080D01*
X209873037Y-90765004D01*
X209834766Y-90693405D01*
X209659115Y-90602590D01*
X208957205Y-91304500D01*
X208597995Y-91304500D01*
X207896085Y-90602590D01*
X207720434Y-90693405D01*
X207621528Y-90911390D01*
X207567050Y-91144482D01*
X207559092Y-91383723D01*
X198773081Y-91383723D01*
X198737503Y-91315492D01*
X198517565Y-91215441D01*
X198282334Y-91160221D01*
X198040850Y-91151954D01*
X197802394Y-91190956D01*
X197576128Y-91275730D01*
X197501737Y-91315492D01*
X197409538Y-91492313D01*
X192431442Y-91492313D01*
X192339243Y-91315492D01*
X192119305Y-91215441D01*
X191884074Y-91160221D01*
X191642590Y-91151954D01*
X191404134Y-91190956D01*
X191177868Y-91275730D01*
X191103477Y-91315492D01*
X191011278Y-91492313D01*
X190277000Y-91492313D01*
X190277000Y-88877000D01*
X193478244Y-88877000D01*
X193317848Y-88981960D01*
X193317848Y-88981960D01*
G37*
X193317848Y-88981960D02*
X193138973Y-89157128D01*
X192997528Y-89363703D01*
X192898900Y-89593818D01*
X192846848Y-89838707D01*
X192843352Y-90089043D01*
X192888547Y-90335290D01*
X192980710Y-90568068D01*
X193116333Y-90778513D01*
X193290247Y-90958607D01*
X193495830Y-91101491D01*
X193725251Y-91201722D01*
X193969771Y-91255483D01*
X194220076Y-91260726D01*
X194466632Y-91217252D01*
X194700049Y-91126715D01*
X194911435Y-90992566D01*
X195092739Y-90819913D01*
X195237054Y-90615332D01*
X195322692Y-90422985D01*
X208075690Y-90422985D01*
X208777600Y-91124895D01*
X209479510Y-90422985D01*
X209388695Y-90247334D01*
X209170710Y-90148428D01*
X208937618Y-90093950D01*
X208698377Y-90085992D01*
X208462180Y-90124861D01*
X208238104Y-90209063D01*
X208166505Y-90247334D01*
X208075690Y-90422985D01*
X195322692Y-90422985D01*
X195338885Y-90386617D01*
X195394352Y-90142478D01*
X195398345Y-89856520D01*
X195349716Y-89610928D01*
X195254311Y-89379459D01*
X195115764Y-89170928D01*
X194939352Y-88993280D01*
X194766959Y-88877000D01*
X221155608Y-88877000D01*
X220979633Y-89049328D01*
X220838188Y-89255903D01*
X220739560Y-89486018D01*
X220687508Y-89730907D01*
X220684012Y-89981243D01*
X220729207Y-90227490D01*
X220821370Y-90460268D01*
X220956993Y-90670713D01*
X221130907Y-90850807D01*
X221336490Y-90993691D01*
X221565911Y-91093922D01*
X221810431Y-91147683D01*
X222060736Y-91152926D01*
X222307292Y-91109452D01*
X222512419Y-91029888D01*
X222596991Y-91101463D01*
X222419588Y-91167930D01*
X222345197Y-91207692D01*
X222252998Y-91384513D01*
X222963080Y-92094595D01*
X222977223Y-92080453D01*
X223156828Y-92260058D01*
X223142685Y-92274200D01*
X223852767Y-92984282D01*
X224029588Y-92892083D01*
X224129639Y-92672145D01*
X224150257Y-92584315D01*
X225767642Y-94218113D01*
X225738280Y-94286618D01*
X225686228Y-94531507D01*
X225682732Y-94781843D01*
X225727927Y-95028090D01*
X225820090Y-95260868D01*
X225955713Y-95471313D01*
X226129627Y-95651407D01*
X226335210Y-95794291D01*
X226564631Y-95894522D01*
X226809151Y-95948283D01*
X227059456Y-95953526D01*
X227306012Y-95910052D01*
X227539429Y-95819515D01*
X227750815Y-95685366D01*
X227932119Y-95512713D01*
X228076434Y-95308132D01*
X228178265Y-95079417D01*
X228233732Y-94835278D01*
X228237725Y-94549320D01*
X228189096Y-94303728D01*
X228093691Y-94072259D01*
X227955144Y-93863728D01*
X227778732Y-93686080D01*
X227571174Y-93546081D01*
X227340376Y-93449062D01*
X227095130Y-93398720D01*
X226844776Y-93396973D01*
X226598850Y-93443885D01*
X226517030Y-93476943D01*
X226207120Y-93163887D01*
X228651258Y-93163887D01*
X228743457Y-93340708D01*
X228963395Y-93440759D01*
X229198626Y-93495979D01*
X229440110Y-93504246D01*
X229678566Y-93465244D01*
X229904832Y-93380470D01*
X229979223Y-93340708D01*
X230071422Y-93163887D01*
X229361340Y-92453805D01*
X228651258Y-93163887D01*
X226207120Y-93163887D01*
X225404349Y-92352970D01*
X228131294Y-92352970D01*
X228170296Y-92591426D01*
X228255070Y-92817692D01*
X228294832Y-92892083D01*
X228471653Y-92984282D01*
X229181735Y-92274200D01*
X229540945Y-92274200D01*
X230251027Y-92984282D01*
X230427848Y-92892083D01*
X230527899Y-92672145D01*
X230583119Y-92436914D01*
X230591386Y-92195430D01*
X230552384Y-91956974D01*
X230467610Y-91730708D01*
X230427848Y-91656317D01*
X230251027Y-91564118D01*
X229540945Y-92274200D01*
X229181735Y-92274200D01*
X228471653Y-91564118D01*
X228294832Y-91656317D01*
X228194781Y-91876255D01*
X228139561Y-92111486D01*
X228131294Y-92352970D01*
X225404349Y-92352970D01*
X224487722Y-91427041D01*
X224487632Y-91426967D01*
X224485846Y-91425155D01*
X223824278Y-90763587D01*
X228252478Y-90763587D01*
X228344677Y-90940408D01*
X228564615Y-91040459D01*
X228799846Y-91095679D01*
X228993037Y-91102293D01*
X228817848Y-91167930D01*
X228743457Y-91207692D01*
X228651258Y-91384513D01*
X229361340Y-92094595D01*
X230071422Y-91384513D01*
X229979223Y-91207692D01*
X229759285Y-91107641D01*
X229524054Y-91052421D01*
X229330863Y-91045807D01*
X229506052Y-90980170D01*
X229580443Y-90940408D01*
X229672642Y-90763587D01*
X228962560Y-90053505D01*
X228252478Y-90763587D01*
X223824278Y-90763587D01*
X223812145Y-90751455D01*
X223798056Y-90739882D01*
X223785536Y-90726623D01*
X223779953Y-90721830D01*
X223191956Y-90224190D01*
X223235012Y-90034678D01*
X223236157Y-89952670D01*
X227732514Y-89952670D01*
X227771516Y-90191126D01*
X227856290Y-90417392D01*
X227896052Y-90491783D01*
X228072873Y-90583982D01*
X228782955Y-89873900D01*
X229142165Y-89873900D01*
X229852247Y-90583982D01*
X230029068Y-90491783D01*
X230129119Y-90271845D01*
X230184339Y-90036614D01*
X230192606Y-89795130D01*
X230153604Y-89556674D01*
X230068830Y-89330408D01*
X230029068Y-89256017D01*
X229852247Y-89163818D01*
X229142165Y-89873900D01*
X228782955Y-89873900D01*
X228072873Y-89163818D01*
X227896052Y-89256017D01*
X227796001Y-89475955D01*
X227740781Y-89711186D01*
X227732514Y-89952670D01*
X223236157Y-89952670D01*
X223239005Y-89748720D01*
X223190376Y-89503128D01*
X223094971Y-89271659D01*
X222956424Y-89063128D01*
X222780012Y-88885480D01*
X222767440Y-88877000D01*
X228308382Y-88877000D01*
X228252478Y-88984213D01*
X228962560Y-89694295D01*
X229672642Y-88984213D01*
X229616738Y-88877000D01*
X230723000Y-88877000D01*
X230723000Y-104064899D01*
X230620335Y-104018621D01*
X230500800Y-104001634D01*
X228000800Y-104001634D01*
X227932802Y-104007056D01*
X227817470Y-104042773D01*
X227716654Y-104109206D01*
X227638337Y-104201095D01*
X227588721Y-104311165D01*
X227571734Y-104430700D01*
X227571734Y-104653700D01*
X226729866Y-104653700D01*
X226729866Y-104430700D01*
X226724444Y-104362702D01*
X226688727Y-104247370D01*
X226622294Y-104146554D01*
X226530405Y-104068237D01*
X226420335Y-104018621D01*
X226300800Y-104001634D01*
X225230500Y-104001634D01*
X225230500Y-102287164D01*
X225434959Y-102195364D01*
X225470140Y-102175232D01*
X225506125Y-102156579D01*
X225514704Y-102149731D01*
X225524229Y-102144280D01*
X225554824Y-102117703D01*
X225586506Y-102092412D01*
X225591745Y-102087245D01*
X225635324Y-102043666D01*
X226177700Y-102043666D01*
X226245698Y-102038244D01*
X226361030Y-102002527D01*
X226461846Y-101936094D01*
X226540163Y-101844205D01*
X226589779Y-101734135D01*
X226606766Y-101614600D01*
X226606766Y-100714600D01*
X226601344Y-100646602D01*
X226565627Y-100531270D01*
X226499194Y-100430454D01*
X226442945Y-100382513D01*
X226470535Y-100354923D01*
X226511793Y-100293176D01*
X226540212Y-100224567D01*
X226554700Y-100151731D01*
X226554700Y-99885850D01*
X226460450Y-99791600D01*
X225804700Y-99791600D01*
X225804700Y-99811600D01*
X225550700Y-99811600D01*
X225550700Y-99791600D01*
X224894950Y-99791600D01*
X224800700Y-99885850D01*
X224800700Y-100151731D01*
X224815188Y-100224567D01*
X224843607Y-100293176D01*
X224884865Y-100354923D01*
X224911332Y-100381391D01*
X224893554Y-100393106D01*
X224815237Y-100484995D01*
X224765621Y-100595065D01*
X224748634Y-100714600D01*
X224748634Y-101348152D01*
X224702619Y-101368813D01*
X224672766Y-101355518D01*
X224672766Y-100733900D01*
X224667344Y-100665902D01*
X224631627Y-100550570D01*
X224565194Y-100449754D01*
X224490050Y-100385709D01*
X224536535Y-100339223D01*
X224577793Y-100277476D01*
X224606212Y-100208867D01*
X224620700Y-100136031D01*
X224620700Y-99875650D01*
X224526450Y-99781400D01*
X223862700Y-99781400D01*
X223862700Y-99801400D01*
X223608700Y-99801400D01*
X223608700Y-99781400D01*
X222944950Y-99781400D01*
X222850700Y-99875650D01*
X222850700Y-100136031D01*
X222865188Y-100208867D01*
X222893607Y-100277476D01*
X222934865Y-100339223D01*
X222982430Y-100386789D01*
X222943554Y-100412406D01*
X222865237Y-100504295D01*
X222815621Y-100614365D01*
X222798634Y-100733900D01*
X222798634Y-101622900D01*
X222804056Y-101690898D01*
X222839773Y-101806230D01*
X222906206Y-101907046D01*
X222998095Y-101985363D01*
X223108165Y-102034979D01*
X223227700Y-102051966D01*
X223786076Y-102051966D01*
X223829655Y-102095545D01*
X223861589Y-102121776D01*
X223892501Y-102149226D01*
X223901276Y-102154375D01*
X223909133Y-102160829D01*
X223945556Y-102180359D01*
X223981208Y-102201280D01*
X223987909Y-102204320D01*
X224176500Y-102288305D01*
X224176500Y-104001634D01*
X223800800Y-104001634D01*
X223732802Y-104007056D01*
X223617470Y-104042773D01*
X223516654Y-104109206D01*
X223438337Y-104201095D01*
X223388721Y-104311165D01*
X223371734Y-104430700D01*
X223371734Y-105902656D01*
X223285408Y-106451634D01*
X222100800Y-106451634D01*
X222032802Y-106457056D01*
X221917470Y-106492773D01*
X221816654Y-106559206D01*
X221738337Y-106651095D01*
X221688721Y-106761165D01*
X221671734Y-106880700D01*
X221671734Y-109380700D01*
X221677156Y-109448698D01*
X221712873Y-109564030D01*
X221779306Y-109664846D01*
X221871195Y-109743163D01*
X221981265Y-109792779D01*
X222100800Y-109809766D01*
X222323800Y-109809766D01*
X222323800Y-110851634D01*
X222100800Y-110851634D01*
X222032802Y-110857056D01*
X221917470Y-110892773D01*
X221816654Y-110959206D01*
X221738337Y-111051095D01*
X221688721Y-111161165D01*
X221671734Y-111280700D01*
X221671734Y-113780700D01*
X221674999Y-113821650D01*
X219836687Y-112022821D01*
X219790791Y-111985948D01*
X219745683Y-111948098D01*
X219739332Y-111944607D01*
X219733683Y-111940068D01*
X219688666Y-111916556D01*
X219688666Y-111867700D01*
X219683244Y-111799702D01*
X219647527Y-111684370D01*
X219581094Y-111583554D01*
X219505950Y-111519509D01*
X219552435Y-111473023D01*
X219593693Y-111411276D01*
X219622112Y-111342667D01*
X219636600Y-111269831D01*
X219636600Y-111009450D01*
X219542350Y-110915200D01*
X218878600Y-110915200D01*
X218878600Y-110935200D01*
X218624600Y-110935200D01*
X218624600Y-110915200D01*
X217960850Y-110915200D01*
X217866600Y-111009450D01*
X217866600Y-111269831D01*
X217881088Y-111342667D01*
X217909507Y-111411276D01*
X217950765Y-111473023D01*
X217998330Y-111520589D01*
X217959454Y-111546206D01*
X217881137Y-111638095D01*
X217831521Y-111748165D01*
X217814534Y-111867700D01*
X217814534Y-112756700D01*
X217819956Y-112824698D01*
X217855673Y-112940030D01*
X217922106Y-113040846D01*
X218013995Y-113119163D01*
X218049600Y-113135213D01*
X218049600Y-113849212D01*
X217953666Y-113965176D01*
X217881492Y-114098659D01*
X217881386Y-114099002D01*
X217669307Y-114261058D01*
X217668689Y-114254267D01*
X217625845Y-114108696D01*
X217555542Y-113974219D01*
X217460458Y-113855958D01*
X217453600Y-113850203D01*
X217453600Y-113137596D01*
X217543746Y-113078194D01*
X217622063Y-112986305D01*
X217671679Y-112876235D01*
X217688666Y-112756700D01*
X217688666Y-111867700D01*
X217683244Y-111799702D01*
X217647527Y-111684370D01*
X217581094Y-111583554D01*
X217505950Y-111519509D01*
X217552435Y-111473023D01*
X217593693Y-111411276D01*
X217622112Y-111342667D01*
X217636600Y-111269831D01*
X217636600Y-111009450D01*
X217542350Y-110915200D01*
X216878600Y-110915200D01*
X216878600Y-110935200D01*
X216624600Y-110935200D01*
X216624600Y-110915200D01*
X216604600Y-110915200D01*
X216604600Y-110661200D01*
X216624600Y-110661200D01*
X216624600Y-110060950D01*
X216878600Y-110060950D01*
X216878600Y-110661200D01*
X217542350Y-110661200D01*
X217636600Y-110566950D01*
X217636600Y-110306569D01*
X217866600Y-110306569D01*
X217866600Y-110566950D01*
X217960850Y-110661200D01*
X218624600Y-110661200D01*
X218624600Y-110060950D01*
X218878600Y-110060950D01*
X218878600Y-110661200D01*
X219542350Y-110661200D01*
X219636600Y-110566950D01*
X219636600Y-110306569D01*
X219622112Y-110233733D01*
X219593693Y-110165124D01*
X219552435Y-110103377D01*
X219499924Y-110050865D01*
X219438177Y-110009607D01*
X219369567Y-109981188D01*
X219296732Y-109966700D01*
X218972850Y-109966700D01*
X218878600Y-110060950D01*
X218624600Y-110060950D01*
X218530350Y-109966700D01*
X218206468Y-109966700D01*
X218133633Y-109981188D01*
X218065023Y-110009607D01*
X218003276Y-110050865D01*
X217950765Y-110103377D01*
X217909507Y-110165124D01*
X217881088Y-110233733D01*
X217866600Y-110306569D01*
X217636600Y-110306569D01*
X217622112Y-110233733D01*
X217593693Y-110165124D01*
X217552435Y-110103377D01*
X217499924Y-110050865D01*
X217438177Y-110009607D01*
X217369567Y-109981188D01*
X217296732Y-109966700D01*
X216972850Y-109966700D01*
X216878600Y-110060950D01*
X216624600Y-110060950D01*
X216530350Y-109966700D01*
X216206468Y-109966700D01*
X216133633Y-109981188D01*
X216065023Y-110009607D01*
X216003276Y-110050865D01*
X215950765Y-110103377D01*
X215909507Y-110165124D01*
X215881088Y-110233733D01*
X215866600Y-110306569D01*
X215866600Y-110503480D01*
X212437407Y-105079174D01*
X213703042Y-102711552D01*
X215520072Y-102711552D01*
X215598912Y-103141115D01*
X215759685Y-103547183D01*
X215996270Y-103914290D01*
X216299653Y-104228452D01*
X216658279Y-104477704D01*
X217058489Y-104652551D01*
X217485038Y-104746334D01*
X217921680Y-104755481D01*
X218351782Y-104679642D01*
X218758963Y-104521707D01*
X219127712Y-104287692D01*
X219443985Y-103986509D01*
X219695735Y-103629631D01*
X219873372Y-103230652D01*
X219970130Y-102804768D01*
X219977096Y-102305931D01*
X219892267Y-101877512D01*
X219725839Y-101473728D01*
X219484152Y-101109960D01*
X219176412Y-100800064D01*
X218814340Y-100555844D01*
X218411728Y-100386601D01*
X217983911Y-100298783D01*
X217547185Y-100295734D01*
X217118183Y-100377570D01*
X216713247Y-100541175D01*
X216347801Y-100780316D01*
X216035764Y-101085885D01*
X215789022Y-101446243D01*
X215616973Y-101847664D01*
X215526170Y-102274857D01*
X215520072Y-102711552D01*
X213703042Y-102711552D01*
X215594734Y-99172769D01*
X222850700Y-99172769D01*
X222850700Y-99433150D01*
X222944950Y-99527400D01*
X223608700Y-99527400D01*
X223608700Y-98927150D01*
X223862700Y-98927150D01*
X223862700Y-99527400D01*
X224526450Y-99527400D01*
X224620700Y-99433150D01*
X224620700Y-99177469D01*
X224800700Y-99177469D01*
X224800700Y-99443350D01*
X224894950Y-99537600D01*
X225550700Y-99537600D01*
X225550700Y-98931850D01*
X225804700Y-98931850D01*
X225804700Y-99537600D01*
X226460450Y-99537600D01*
X226554700Y-99443350D01*
X226554700Y-99177469D01*
X226540212Y-99104633D01*
X226511793Y-99036024D01*
X226470535Y-98974277D01*
X226418024Y-98921765D01*
X226356277Y-98880507D01*
X226287667Y-98852088D01*
X226214832Y-98837600D01*
X225898950Y-98837600D01*
X225804700Y-98931850D01*
X225550700Y-98931850D01*
X225456450Y-98837600D01*
X225140568Y-98837600D01*
X225067733Y-98852088D01*
X224999123Y-98880507D01*
X224937376Y-98921765D01*
X224884865Y-98974277D01*
X224843607Y-99036024D01*
X224815188Y-99104633D01*
X224800700Y-99177469D01*
X224620700Y-99177469D01*
X224620700Y-99172769D01*
X224606212Y-99099933D01*
X224577793Y-99031324D01*
X224536535Y-98969577D01*
X224484024Y-98917065D01*
X224422277Y-98875807D01*
X224353667Y-98847388D01*
X224280832Y-98832900D01*
X223956950Y-98832900D01*
X223862700Y-98927150D01*
X223608700Y-98927150D01*
X223514450Y-98832900D01*
X223190568Y-98832900D01*
X223117733Y-98847388D01*
X223049123Y-98875807D01*
X222987376Y-98917065D01*
X222934865Y-98969577D01*
X222893607Y-99031324D01*
X222865188Y-99099933D01*
X222850700Y-99172769D01*
X215594734Y-99172769D01*
X217097549Y-96361458D01*
X217108714Y-96334539D01*
X217122755Y-96308999D01*
X217133965Y-96273659D01*
X217148170Y-96239412D01*
X217153895Y-96210833D01*
X217162706Y-96183056D01*
X217166838Y-96146216D01*
X217174121Y-96109859D01*
X217174186Y-96080712D01*
X217177434Y-96051752D01*
X217177500Y-96042300D01*
X217177500Y-95006300D01*
X217176390Y-94994979D01*
X217177120Y-94983630D01*
X217169954Y-94929333D01*
X217164607Y-94874803D01*
X217161319Y-94863912D01*
X217159831Y-94852639D01*
X217157621Y-94843449D01*
X216781400Y-93325362D01*
X216781400Y-93318938D01*
X216783466Y-93304400D01*
X216783466Y-93163887D01*
X222252998Y-93163887D01*
X222345197Y-93340708D01*
X222565135Y-93440759D01*
X222800366Y-93495979D01*
X223041850Y-93504246D01*
X223280306Y-93465244D01*
X223506572Y-93380470D01*
X223580963Y-93340708D01*
X223673162Y-93163887D01*
X222963080Y-92453805D01*
X222252998Y-93163887D01*
X216783466Y-93163887D01*
X216783466Y-92404400D01*
X216779366Y-92352970D01*
X221733034Y-92352970D01*
X221772036Y-92591426D01*
X221856810Y-92817692D01*
X221896572Y-92892083D01*
X222073393Y-92984282D01*
X222783475Y-92274200D01*
X222073393Y-91564118D01*
X221896572Y-91656317D01*
X221796521Y-91876255D01*
X221741301Y-92111486D01*
X221733034Y-92352970D01*
X216779366Y-92352970D01*
X216778044Y-92336402D01*
X216742327Y-92221070D01*
X216675894Y-92120254D01*
X216657045Y-92104189D01*
X216716863Y-92034005D01*
X216766479Y-91923935D01*
X216783466Y-91804400D01*
X216783466Y-90904400D01*
X216778044Y-90836402D01*
X216742327Y-90721070D01*
X216675894Y-90620254D01*
X216584005Y-90541937D01*
X216473935Y-90492321D01*
X216354400Y-90475334D01*
X215354400Y-90475334D01*
X215286402Y-90480756D01*
X215171070Y-90516473D01*
X215070254Y-90582906D01*
X214991937Y-90674795D01*
X214942321Y-90784865D01*
X214939829Y-90802400D01*
X212584866Y-90802400D01*
X212584866Y-90466300D01*
X212579444Y-90398302D01*
X212543727Y-90282970D01*
X212477294Y-90182154D01*
X212385405Y-90103837D01*
X212275335Y-90054221D01*
X212155800Y-90037234D01*
X210479400Y-90037234D01*
X210411402Y-90042656D01*
X210296070Y-90078373D01*
X210195254Y-90144806D01*
X210116937Y-90236695D01*
X210067321Y-90346765D01*
X210050334Y-90466300D01*
X210050334Y-92142700D01*
X210055756Y-92210698D01*
X210091473Y-92326030D01*
X210157906Y-92426846D01*
X210249795Y-92505163D01*
X210359865Y-92554779D01*
X210479400Y-92571766D01*
X212155800Y-92571766D01*
X212223798Y-92566344D01*
X212339130Y-92530627D01*
X212439946Y-92464194D01*
X212518263Y-92372305D01*
X212567879Y-92262235D01*
X212584866Y-92142700D01*
X212584866Y-91856400D01*
X214929480Y-91856400D01*
X214930756Y-91872398D01*
X214966473Y-91987730D01*
X215032906Y-92088546D01*
X215051755Y-92104611D01*
X214991937Y-92174795D01*
X214942321Y-92284865D01*
X214925334Y-92404400D01*
X214925334Y-93304400D01*
X214930756Y-93372398D01*
X214966473Y-93487730D01*
X215032906Y-93588546D01*
X215124795Y-93666863D01*
X215234865Y-93716479D01*
X215354400Y-93733466D01*
X215487579Y-93733466D01*
X215656917Y-94416760D01*
X215626949Y-94403285D01*
X215401008Y-94351286D01*
X215169262Y-94344364D01*
X214940620Y-94382788D01*
X214723867Y-94465079D01*
X214661595Y-94498364D01*
X214575413Y-94670108D01*
X215250000Y-95344695D01*
X215264143Y-95330553D01*
X215443748Y-95510158D01*
X215429605Y-95524300D01*
X215443748Y-95538443D01*
X215264143Y-95718048D01*
X215250000Y-95703905D01*
X214575413Y-96378492D01*
X214661595Y-96550236D01*
X214873051Y-96645315D01*
X215098992Y-96697314D01*
X215330738Y-96704236D01*
X215383761Y-96695325D01*
X211239695Y-104447619D01*
X208670118Y-104556168D01*
X208758963Y-104521707D01*
X209127712Y-104287692D01*
X209443985Y-103986509D01*
X209695735Y-103629631D01*
X209873372Y-103230652D01*
X209970130Y-102804768D01*
X209977096Y-102305931D01*
X209892267Y-101877512D01*
X209725839Y-101473728D01*
X209484152Y-101109960D01*
X209176412Y-100800064D01*
X208814340Y-100555844D01*
X208411728Y-100386601D01*
X207983911Y-100298783D01*
X207547185Y-100295734D01*
X207118183Y-100377570D01*
X206713247Y-100541175D01*
X206347801Y-100780316D01*
X206035764Y-101085885D01*
X205789022Y-101446243D01*
X205616973Y-101847664D01*
X205526170Y-102274857D01*
X205520072Y-102711552D01*
X205598912Y-103141115D01*
X205759685Y-103547183D01*
X205996270Y-103914290D01*
X206299653Y-104228452D01*
X206658279Y-104477704D01*
X206999420Y-104626744D01*
X203735953Y-104764606D01*
X203296132Y-104072034D01*
X203355657Y-103983533D01*
X203385665Y-103927860D01*
X203416155Y-103872399D01*
X203417008Y-103869710D01*
X203418348Y-103867224D01*
X203436995Y-103806701D01*
X203456106Y-103746456D01*
X203456420Y-103743655D01*
X203457252Y-103740955D01*
X203463791Y-103677942D01*
X203470834Y-103615152D01*
X203470872Y-103609706D01*
X203470890Y-103609533D01*
X203470874Y-103609364D01*
X203470900Y-103605700D01*
X203470900Y-100819500D01*
X203464800Y-100757290D01*
X203459348Y-100694965D01*
X203458354Y-100691545D01*
X203458007Y-100688003D01*
X203439931Y-100628132D01*
X203422485Y-100568084D01*
X203420848Y-100564925D01*
X203419818Y-100561515D01*
X203390449Y-100506281D01*
X203361680Y-100450779D01*
X203359459Y-100447997D01*
X203357788Y-100444854D01*
X203318272Y-100396403D01*
X203279248Y-100347519D01*
X203274361Y-100342563D01*
X203274279Y-100342463D01*
X203274186Y-100342386D01*
X203272611Y-100340789D01*
X203008711Y-100076889D01*
X202988178Y-100060023D01*
X202969754Y-100040872D01*
X202937248Y-100018188D01*
X202906612Y-99993023D01*
X202883190Y-99980464D01*
X202861401Y-99965259D01*
X202853127Y-99960690D01*
X201355466Y-99147231D01*
X201355466Y-99045600D01*
X201350044Y-98977602D01*
X201314327Y-98862270D01*
X201247894Y-98761454D01*
X201172750Y-98697409D01*
X201219235Y-98650923D01*
X201260493Y-98589176D01*
X201288912Y-98520567D01*
X201303400Y-98447731D01*
X201303400Y-98187350D01*
X201209150Y-98093100D01*
X200545400Y-98093100D01*
X200545400Y-98113100D01*
X200291400Y-98113100D01*
X200291400Y-98093100D01*
X200271400Y-98093100D01*
X200271400Y-97839100D01*
X200291400Y-97839100D01*
X200291400Y-97819100D01*
X200545400Y-97819100D01*
X200545400Y-97839100D01*
X201209150Y-97839100D01*
X201303400Y-97744850D01*
X201303400Y-97508914D01*
X209239835Y-96221986D01*
X209283755Y-96290136D01*
X209450909Y-96463229D01*
X209648500Y-96600558D01*
X209869002Y-96696893D01*
X210104015Y-96748564D01*
X210344590Y-96753603D01*
X210581561Y-96711819D01*
X210805904Y-96624802D01*
X211009072Y-96495868D01*
X211183327Y-96329926D01*
X211322032Y-96133299D01*
X211419904Y-95913475D01*
X211473215Y-95678828D01*
X211473932Y-95627470D01*
X211521387Y-95627470D01*
X211564825Y-95864143D01*
X211653406Y-96087873D01*
X211783755Y-96290136D01*
X211950909Y-96463229D01*
X212148500Y-96600558D01*
X212369002Y-96696893D01*
X212604015Y-96748564D01*
X212844590Y-96753603D01*
X213081561Y-96711819D01*
X213305904Y-96624802D01*
X213509072Y-96495868D01*
X213683327Y-96329926D01*
X213822032Y-96133299D01*
X213919904Y-95913475D01*
X213973215Y-95678828D01*
X213974245Y-95605038D01*
X214070064Y-95605038D01*
X214108488Y-95833680D01*
X214190779Y-96050433D01*
X214224064Y-96112705D01*
X214395808Y-96198887D01*
X215070395Y-95524300D01*
X214395808Y-94849713D01*
X214224064Y-94935895D01*
X214128985Y-95147351D01*
X214076986Y-95373292D01*
X214070064Y-95605038D01*
X213974245Y-95605038D01*
X213977053Y-95403986D01*
X213930315Y-95167942D01*
X213838619Y-94945471D01*
X213705458Y-94745048D01*
X213535904Y-94574306D01*
X213336415Y-94439749D01*
X213114589Y-94346502D01*
X212878877Y-94298117D01*
X212638256Y-94296437D01*
X212401891Y-94341526D01*
X212178785Y-94431667D01*
X211977437Y-94563425D01*
X211805515Y-94731783D01*
X211669569Y-94930328D01*
X211574776Y-95151497D01*
X211524747Y-95386866D01*
X211521387Y-95627470D01*
X211473932Y-95627470D01*
X211477053Y-95403986D01*
X211430315Y-95167942D01*
X211338619Y-94945471D01*
X211205458Y-94745048D01*
X211035904Y-94574306D01*
X210836415Y-94439749D01*
X210614589Y-94346502D01*
X210378877Y-94298117D01*
X210138256Y-94296437D01*
X209901891Y-94341526D01*
X209678785Y-94431667D01*
X209477437Y-94563425D01*
X209305515Y-94731783D01*
X209169569Y-94930328D01*
X209074776Y-95151497D01*
X209068285Y-95182037D01*
X199701546Y-96700895D01*
X199655702Y-96713017D01*
X199609682Y-96724435D01*
X199606018Y-96726154D01*
X199602111Y-96727187D01*
X199559525Y-96747967D01*
X199516568Y-96768121D01*
X199510270Y-96771926D01*
X198998064Y-97086234D01*
X198104238Y-97086234D01*
X198865754Y-96033495D01*
X198968491Y-96056083D01*
X199218796Y-96061326D01*
X199465352Y-96017852D01*
X199698769Y-95927315D01*
X199910155Y-95793166D01*
X200091459Y-95620513D01*
X200235774Y-95415932D01*
X200337605Y-95187217D01*
X200393072Y-94943078D01*
X200397065Y-94657120D01*
X200348436Y-94411528D01*
X200253031Y-94180059D01*
X200114484Y-93971528D01*
X199938072Y-93793880D01*
X199730514Y-93653881D01*
X199499716Y-93556862D01*
X199254470Y-93506520D01*
X199004116Y-93504773D01*
X198758190Y-93551685D01*
X198526061Y-93645472D01*
X198316568Y-93782560D01*
X198137693Y-93957728D01*
X197996248Y-94164303D01*
X197897620Y-94394418D01*
X197845568Y-94639307D01*
X197842072Y-94889643D01*
X197887267Y-95135890D01*
X197979430Y-95368668D01*
X198010709Y-95417203D01*
X196803099Y-97086634D01*
X196257100Y-97086634D01*
X196189102Y-97092056D01*
X196073770Y-97127773D01*
X195972954Y-97194206D01*
X195894637Y-97286095D01*
X195875581Y-97328370D01*
X195865993Y-97305224D01*
X195824735Y-97243477D01*
X195772224Y-97190965D01*
X195710477Y-97149707D01*
X195641867Y-97121288D01*
X195569032Y-97106800D01*
X195203150Y-97106800D01*
X195108900Y-97201050D01*
X195108900Y-97806800D01*
X195128900Y-97806800D01*
X195128900Y-97856800D01*
X194481900Y-97856800D01*
X194436307Y-97861270D01*
X194390884Y-97865564D01*
X194390085Y-97865802D01*
X194389250Y-97865884D01*
X194345542Y-97879080D01*
X194301670Y-97892159D01*
X194300926Y-97892551D01*
X194300129Y-97892792D01*
X194259832Y-97914218D01*
X194219321Y-97935578D01*
X194218672Y-97936104D01*
X194217932Y-97936497D01*
X194182416Y-97965463D01*
X194146973Y-97994164D01*
X194146439Y-97994805D01*
X194145789Y-97995335D01*
X194116652Y-98030556D01*
X194087382Y-98065686D01*
X194086980Y-98066423D01*
X194086449Y-98067065D01*
X194064742Y-98107212D01*
X194042819Y-98147421D01*
X194042569Y-98148219D01*
X194042171Y-98148955D01*
X194028683Y-98192528D01*
X194014980Y-98236255D01*
X194014889Y-98237090D01*
X194014643Y-98237886D01*
X194009867Y-98283322D01*
X194004927Y-98328805D01*
X194005000Y-98329636D01*
X194004912Y-98330470D01*
X194009063Y-98376084D01*
X194013040Y-98421545D01*
X194013273Y-98422348D01*
X194013349Y-98423181D01*
X194026253Y-98467024D01*
X194039012Y-98510943D01*
X194039397Y-98511687D01*
X194039633Y-98512487D01*
X194060842Y-98553057D01*
X194063840Y-98558841D01*
X194043472Y-98595890D01*
X194043219Y-98596687D01*
X194042819Y-98597421D01*
X194029120Y-98641135D01*
X194015324Y-98684626D01*
X194015231Y-98685454D01*
X194014980Y-98686255D01*
X194010053Y-98731614D01*
X194004946Y-98777140D01*
X194004935Y-98778731D01*
X194004927Y-98778805D01*
X194004934Y-98778884D01*
X194004900Y-98783800D01*
X194004900Y-98969262D01*
X194002834Y-98983800D01*
X194002834Y-99983800D01*
X194008256Y-100051798D01*
X194043973Y-100167130D01*
X194110406Y-100267946D01*
X194202295Y-100346263D01*
X194312365Y-100395879D01*
X194421800Y-100411431D01*
X194421800Y-102238000D01*
X194426549Y-102286434D01*
X194428590Y-102309756D01*
X194001017Y-102293420D01*
X193978189Y-102229167D01*
X193973795Y-102219812D01*
X193970912Y-102209889D01*
X193951969Y-102173345D01*
X193934462Y-102136072D01*
X193928333Y-102127747D01*
X193923579Y-102118575D01*
X193897901Y-102086408D01*
X193873486Y-102053244D01*
X193865858Y-102046269D01*
X193859412Y-102038194D01*
X193854245Y-102032955D01*
X193810666Y-101989376D01*
X193810666Y-101347000D01*
X193805244Y-101279002D01*
X193769527Y-101163670D01*
X193703094Y-101062854D01*
X193611205Y-100984537D01*
X193501135Y-100934921D01*
X193381600Y-100917934D01*
X192481600Y-100917934D01*
X192413602Y-100923356D01*
X192298270Y-100959073D01*
X192285604Y-100967420D01*
X192269510Y-100958572D01*
X192268713Y-100958319D01*
X192267979Y-100957919D01*
X192224306Y-100944233D01*
X192180774Y-100930424D01*
X192179945Y-100930331D01*
X192179144Y-100930080D01*
X192133802Y-100925155D01*
X192088260Y-100920046D01*
X192086669Y-100920035D01*
X192086595Y-100920027D01*
X192086516Y-100920034D01*
X192081600Y-100920000D01*
X191896138Y-100920000D01*
X191881600Y-100917934D01*
X190881600Y-100917934D01*
X190813602Y-100923356D01*
X190698270Y-100959073D01*
X190597454Y-101025506D01*
X190519137Y-101117395D01*
X190469521Y-101227465D01*
X190452534Y-101347000D01*
X190452534Y-101606799D01*
X190409279Y-101629220D01*
X190406497Y-101631441D01*
X190403354Y-101633112D01*
X190354903Y-101672628D01*
X190306019Y-101711652D01*
X190301063Y-101716539D01*
X190300963Y-101716621D01*
X190300886Y-101716714D01*
X190299289Y-101718289D01*
X190277000Y-101740578D01*
X190277000Y-97446669D01*
X194054900Y-97446669D01*
X194054900Y-97712550D01*
X194149150Y-97806800D01*
X194854900Y-97806800D01*
X194854900Y-97201050D01*
X194760650Y-97106800D01*
X194394768Y-97106800D01*
X194321933Y-97121288D01*
X194253323Y-97149707D01*
X194191576Y-97190965D01*
X194139065Y-97243477D01*
X194097807Y-97305224D01*
X194069388Y-97373833D01*
X194054900Y-97446669D01*
X190277000Y-97446669D01*
X190277000Y-95671987D01*
X191410058Y-95671987D01*
X191502257Y-95848808D01*
X191722195Y-95948859D01*
X191957426Y-96004079D01*
X192198910Y-96012346D01*
X192437366Y-95973344D01*
X192663632Y-95888570D01*
X192738023Y-95848808D01*
X192830222Y-95671987D01*
X192120140Y-94961905D01*
X191410058Y-95671987D01*
X190277000Y-95671987D01*
X190277000Y-94861070D01*
X190890094Y-94861070D01*
X190929096Y-95099526D01*
X191013870Y-95325792D01*
X191053632Y-95400183D01*
X191230453Y-95492382D01*
X191940535Y-94782300D01*
X192299745Y-94782300D01*
X193009827Y-95492382D01*
X193186648Y-95400183D01*
X193286699Y-95180245D01*
X193341919Y-94945014D01*
X193350186Y-94703530D01*
X193311184Y-94465074D01*
X193226410Y-94238808D01*
X193186648Y-94164417D01*
X193009827Y-94072218D01*
X192299745Y-94782300D01*
X191940535Y-94782300D01*
X191230453Y-94072218D01*
X191053632Y-94164417D01*
X190953581Y-94384355D01*
X190898361Y-94619586D01*
X190890094Y-94861070D01*
X190277000Y-94861070D01*
X190277000Y-93271687D01*
X191011278Y-93271687D01*
X191103477Y-93448508D01*
X191323415Y-93548559D01*
X191558646Y-93603779D01*
X191751837Y-93610393D01*
X191576648Y-93676030D01*
X191502257Y-93715792D01*
X191410058Y-93892613D01*
X192120140Y-94602695D01*
X192830222Y-93892613D01*
X192738023Y-93715792D01*
X192518085Y-93615741D01*
X192282854Y-93560521D01*
X192089663Y-93553907D01*
X192264852Y-93488270D01*
X192339243Y-93448508D01*
X192431442Y-93271687D01*
X197409538Y-93271687D01*
X197501737Y-93448508D01*
X197721675Y-93548559D01*
X197956906Y-93603779D01*
X198198390Y-93612046D01*
X198436846Y-93573044D01*
X198663112Y-93488270D01*
X198737503Y-93448508D01*
X198829702Y-93271687D01*
X198119620Y-92561605D01*
X197409538Y-93271687D01*
X192431442Y-93271687D01*
X191721360Y-92561605D01*
X191011278Y-93271687D01*
X190277000Y-93271687D01*
X190277000Y-92460770D01*
X190491314Y-92460770D01*
X190530316Y-92699226D01*
X190615090Y-92925492D01*
X190654852Y-92999883D01*
X190831673Y-93092082D01*
X191541755Y-92382000D01*
X191900965Y-92382000D01*
X192611047Y-93092082D01*
X192787868Y-92999883D01*
X192887919Y-92779945D01*
X192943139Y-92544714D01*
X192946012Y-92460770D01*
X196889574Y-92460770D01*
X196928576Y-92699226D01*
X197013350Y-92925492D01*
X197053112Y-92999883D01*
X197229933Y-93092082D01*
X197940015Y-92382000D01*
X198299225Y-92382000D01*
X199009307Y-93092082D01*
X199186128Y-92999883D01*
X199286179Y-92779945D01*
X199341399Y-92544714D01*
X199349666Y-92303230D01*
X199330495Y-92186015D01*
X208075690Y-92186015D01*
X208166505Y-92361666D01*
X208384490Y-92460572D01*
X208617582Y-92515050D01*
X208856823Y-92523008D01*
X209093020Y-92484139D01*
X209317096Y-92399937D01*
X209388695Y-92361666D01*
X209479510Y-92186015D01*
X208777600Y-91484105D01*
X208075690Y-92186015D01*
X199330495Y-92186015D01*
X199310664Y-92064774D01*
X199225890Y-91838508D01*
X199186128Y-91764117D01*
X199009307Y-91671918D01*
X198299225Y-92382000D01*
X197940015Y-92382000D01*
X197229933Y-91671918D01*
X197053112Y-91764117D01*
X196953061Y-91984055D01*
X196897841Y-92219286D01*
X196889574Y-92460770D01*
X192946012Y-92460770D01*
X192951406Y-92303230D01*
X192912404Y-92064774D01*
X192827630Y-91838508D01*
X192787868Y-91764117D01*
X192611047Y-91671918D01*
X191900965Y-92382000D01*
X191541755Y-92382000D01*
X190831673Y-91671918D01*
X190654852Y-91764117D01*
X190554801Y-91984055D01*
X190499581Y-92219286D01*
X190491314Y-92460770D01*
X190277000Y-92460770D01*
X190277000Y-91492313D01*
X191011278Y-91492313D01*
X191721360Y-92202395D01*
X192431442Y-91492313D01*
X197409538Y-91492313D01*
X198119620Y-92202395D01*
X198829702Y-91492313D01*
X198773081Y-91383723D01*
X207559092Y-91383723D01*
X207597961Y-91619920D01*
X207682163Y-91843996D01*
X207720434Y-91915595D01*
X207896085Y-92006410D01*
X208597995Y-91304500D01*
X208957205Y-91304500D01*
X209659115Y-92006410D01*
X209834766Y-91915595D01*
X209933672Y-91697610D01*
X209988150Y-91464518D01*
X209996108Y-91225277D01*
X209957239Y-90989080D01*
X209873037Y-90765004D01*
X209834766Y-90693405D01*
X209659115Y-90602590D01*
X208957205Y-91304500D01*
X208597995Y-91304500D01*
X207896085Y-90602590D01*
X207720434Y-90693405D01*
X207621528Y-90911390D01*
X207567050Y-91144482D01*
X207559092Y-91383723D01*
X198773081Y-91383723D01*
X198737503Y-91315492D01*
X198517565Y-91215441D01*
X198282334Y-91160221D01*
X198040850Y-91151954D01*
X197802394Y-91190956D01*
X197576128Y-91275730D01*
X197501737Y-91315492D01*
X197409538Y-91492313D01*
X192431442Y-91492313D01*
X192339243Y-91315492D01*
X192119305Y-91215441D01*
X191884074Y-91160221D01*
X191642590Y-91151954D01*
X191404134Y-91190956D01*
X191177868Y-91275730D01*
X191103477Y-91315492D01*
X191011278Y-91492313D01*
X190277000Y-91492313D01*
X190277000Y-88877000D01*
X193478244Y-88877000D01*
X193317848Y-88981960D01*
G36*
X199677106Y-107761246D02*
X199752250Y-107825291D01*
X199705765Y-107871777D01*
X199664507Y-107933524D01*
X199636088Y-108002133D01*
X199621600Y-108074969D01*
X199621600Y-108335350D01*
X199715850Y-108429600D01*
X200379600Y-108429600D01*
X200379600Y-108409600D01*
X200633600Y-108409600D01*
X200633600Y-108429600D01*
X200653600Y-108429600D01*
X200653600Y-108683600D01*
X200633600Y-108683600D01*
X200633600Y-108703600D01*
X200379600Y-108703600D01*
X200379600Y-108683600D01*
X199715850Y-108683600D01*
X199621600Y-108777850D01*
X199621600Y-109038231D01*
X199636088Y-109111067D01*
X199664507Y-109179676D01*
X199668963Y-109186344D01*
X199519654Y-109229121D01*
X199553293Y-109178776D01*
X199581712Y-109110167D01*
X199596200Y-109037331D01*
X199596200Y-108771450D01*
X199501950Y-108677200D01*
X198846200Y-108677200D01*
X198846200Y-109282950D01*
X198940450Y-109377200D01*
X199002791Y-109377200D01*
X198071391Y-109644043D01*
X196370412Y-109750946D01*
X196379248Y-109712052D01*
X196381835Y-109526809D01*
X196359965Y-109416357D01*
X196450100Y-109429166D01*
X197450100Y-109429166D01*
X197518098Y-109423744D01*
X197633430Y-109388027D01*
X197734246Y-109321594D01*
X197812563Y-109229705D01*
X197861361Y-109121449D01*
X197885107Y-109178776D01*
X197926365Y-109240523D01*
X197978876Y-109293035D01*
X198040623Y-109334293D01*
X198109233Y-109362712D01*
X198182068Y-109377200D01*
X198497950Y-109377200D01*
X198592200Y-109282950D01*
X198592200Y-108677200D01*
X198572200Y-108677200D01*
X198572200Y-108423200D01*
X198592200Y-108423200D01*
X198592200Y-108403200D01*
X198846200Y-108403200D01*
X198846200Y-108423200D01*
X199501950Y-108423200D01*
X199596200Y-108328950D01*
X199596200Y-108063069D01*
X199581712Y-107990233D01*
X199553293Y-107921624D01*
X199512035Y-107859877D01*
X199485568Y-107833409D01*
X199503346Y-107821694D01*
X199581663Y-107729805D01*
X199612016Y-107662468D01*
X199677106Y-107761246D01*
X199677106Y-107761246D01*
G37*
X199677106Y-107761246D02*
X199752250Y-107825291D01*
X199705765Y-107871777D01*
X199664507Y-107933524D01*
X199636088Y-108002133D01*
X199621600Y-108074969D01*
X199621600Y-108335350D01*
X199715850Y-108429600D01*
X200379600Y-108429600D01*
X200379600Y-108409600D01*
X200633600Y-108409600D01*
X200633600Y-108429600D01*
X200653600Y-108429600D01*
X200653600Y-108683600D01*
X200633600Y-108683600D01*
X200633600Y-108703600D01*
X200379600Y-108703600D01*
X200379600Y-108683600D01*
X199715850Y-108683600D01*
X199621600Y-108777850D01*
X199621600Y-109038231D01*
X199636088Y-109111067D01*
X199664507Y-109179676D01*
X199668963Y-109186344D01*
X199519654Y-109229121D01*
X199553293Y-109178776D01*
X199581712Y-109110167D01*
X199596200Y-109037331D01*
X199596200Y-108771450D01*
X199501950Y-108677200D01*
X198846200Y-108677200D01*
X198846200Y-109282950D01*
X198940450Y-109377200D01*
X199002791Y-109377200D01*
X198071391Y-109644043D01*
X196370412Y-109750946D01*
X196379248Y-109712052D01*
X196381835Y-109526809D01*
X196359965Y-109416357D01*
X196450100Y-109429166D01*
X197450100Y-109429166D01*
X197518098Y-109423744D01*
X197633430Y-109388027D01*
X197734246Y-109321594D01*
X197812563Y-109229705D01*
X197861361Y-109121449D01*
X197885107Y-109178776D01*
X197926365Y-109240523D01*
X197978876Y-109293035D01*
X198040623Y-109334293D01*
X198109233Y-109362712D01*
X198182068Y-109377200D01*
X198497950Y-109377200D01*
X198592200Y-109282950D01*
X198592200Y-108677200D01*
X198572200Y-108677200D01*
X198572200Y-108423200D01*
X198592200Y-108423200D01*
X198592200Y-108403200D01*
X198846200Y-108403200D01*
X198846200Y-108423200D01*
X199501950Y-108423200D01*
X199596200Y-108328950D01*
X199596200Y-108063069D01*
X199581712Y-107990233D01*
X199553293Y-107921624D01*
X199512035Y-107859877D01*
X199485568Y-107833409D01*
X199503346Y-107821694D01*
X199581663Y-107729805D01*
X199612016Y-107662468D01*
X199677106Y-107761246D01*
G36*
X225123046Y-106393340D02*
X225123024Y-106396558D01*
X225123012Y-106396670D01*
X225123022Y-106396782D01*
X225123000Y-106400000D01*
X225123000Y-108453700D01*
X224947050Y-108453700D01*
X224852800Y-108547950D01*
X224852800Y-108930700D01*
X224872800Y-108930700D01*
X224872800Y-109130700D01*
X224852800Y-109130700D01*
X224852800Y-109580700D01*
X224872800Y-109580700D01*
X224872800Y-109701634D01*
X224578800Y-109701634D01*
X224578800Y-109580700D01*
X224598800Y-109580700D01*
X224598800Y-109130700D01*
X224578800Y-109130700D01*
X224578800Y-108930700D01*
X224598800Y-108930700D01*
X224598800Y-108547950D01*
X224504550Y-108453700D01*
X224063669Y-108453700D01*
X224029866Y-108460424D01*
X224029866Y-107396894D01*
X224030661Y-107396110D01*
X224030742Y-107396044D01*
X224030804Y-107395968D01*
X224032045Y-107394745D01*
X224114845Y-107311945D01*
X224119715Y-107306017D01*
X224125506Y-107300971D01*
X224152332Y-107266308D01*
X224180129Y-107232467D01*
X224183756Y-107225703D01*
X224188455Y-107219631D01*
X224208026Y-107180440D01*
X224228732Y-107141824D01*
X224230977Y-107134481D01*
X224234406Y-107127614D01*
X224246000Y-107085339D01*
X224258802Y-107043465D01*
X224259577Y-107035837D01*
X224261610Y-107028424D01*
X224262803Y-107021164D01*
X224366806Y-106359766D01*
X225126812Y-106359766D01*
X225123046Y-106393340D01*
X225123046Y-106393340D01*
G37*
X225123046Y-106393340D02*
X225123024Y-106396558D01*
X225123012Y-106396670D01*
X225123022Y-106396782D01*
X225123000Y-106400000D01*
X225123000Y-108453700D01*
X224947050Y-108453700D01*
X224852800Y-108547950D01*
X224852800Y-108930700D01*
X224872800Y-108930700D01*
X224872800Y-109130700D01*
X224852800Y-109130700D01*
X224852800Y-109580700D01*
X224872800Y-109580700D01*
X224872800Y-109701634D01*
X224578800Y-109701634D01*
X224578800Y-109580700D01*
X224598800Y-109580700D01*
X224598800Y-109130700D01*
X224578800Y-109130700D01*
X224578800Y-108930700D01*
X224598800Y-108930700D01*
X224598800Y-108547950D01*
X224504550Y-108453700D01*
X224063669Y-108453700D01*
X224029866Y-108460424D01*
X224029866Y-107396894D01*
X224030661Y-107396110D01*
X224030742Y-107396044D01*
X224030804Y-107395968D01*
X224032045Y-107394745D01*
X224114845Y-107311945D01*
X224119715Y-107306017D01*
X224125506Y-107300971D01*
X224152332Y-107266308D01*
X224180129Y-107232467D01*
X224183756Y-107225703D01*
X224188455Y-107219631D01*
X224208026Y-107180440D01*
X224228732Y-107141824D01*
X224230977Y-107134481D01*
X224234406Y-107127614D01*
X224246000Y-107085339D01*
X224258802Y-107043465D01*
X224259577Y-107035837D01*
X224261610Y-107028424D01*
X224262803Y-107021164D01*
X224366806Y-106359766D01*
X225126812Y-106359766D01*
X225123046Y-106393340D01*
G36*
X193530400Y-108449200D02*
X193550400Y-108449200D01*
X193550400Y-108703200D01*
X193530400Y-108703200D01*
X193530400Y-108723200D01*
X193276400Y-108723200D01*
X193276400Y-108703200D01*
X193256400Y-108703200D01*
X193256400Y-108449200D01*
X193276400Y-108449200D01*
X193276400Y-108429200D01*
X193530400Y-108429200D01*
X193530400Y-108449200D01*
X193530400Y-108449200D01*
G37*
X193530400Y-108449200D02*
X193550400Y-108449200D01*
X193550400Y-108703200D01*
X193530400Y-108703200D01*
X193530400Y-108723200D01*
X193276400Y-108723200D01*
X193276400Y-108703200D01*
X193256400Y-108703200D01*
X193256400Y-108449200D01*
X193276400Y-108449200D01*
X193276400Y-108429200D01*
X193530400Y-108429200D01*
X193530400Y-108449200D01*
G36*
X194574315Y-103370094D02*
X194176155Y-103768255D01*
X194149322Y-103800922D01*
X194121335Y-103832674D01*
X194116707Y-103840629D01*
X194110871Y-103847733D01*
X194090880Y-103885015D01*
X194069609Y-103921573D01*
X194066617Y-103930265D01*
X194062268Y-103938376D01*
X194049903Y-103978823D01*
X194036133Y-104018826D01*
X194034885Y-104027947D01*
X194032198Y-104036735D01*
X194027925Y-104078794D01*
X194022186Y-104120727D01*
X194021956Y-104128082D01*
X194016155Y-104366537D01*
X193388016Y-106178634D01*
X192895400Y-106178634D01*
X192827402Y-106184056D01*
X192712070Y-106219773D01*
X192611254Y-106286206D01*
X192532937Y-106378095D01*
X192483321Y-106488165D01*
X192466334Y-106607700D01*
X192466334Y-107496700D01*
X192471756Y-107564698D01*
X192507473Y-107680030D01*
X192573906Y-107780846D01*
X192649050Y-107844891D01*
X192602565Y-107891377D01*
X192561307Y-107953124D01*
X192532888Y-108021733D01*
X192518400Y-108094569D01*
X192518400Y-108354950D01*
X192612648Y-108449198D01*
X192542520Y-108449198D01*
X192340571Y-108247249D01*
X191169119Y-104515531D01*
X191194800Y-104489850D01*
X191194800Y-103784100D01*
X191174800Y-103784100D01*
X191174800Y-103530100D01*
X191194800Y-103530100D01*
X191194800Y-103510100D01*
X191244800Y-103510100D01*
X191244800Y-104157100D01*
X191249270Y-104202693D01*
X191253564Y-104248116D01*
X191253802Y-104248915D01*
X191253884Y-104249750D01*
X191267080Y-104293458D01*
X191280159Y-104337330D01*
X191280551Y-104338074D01*
X191280792Y-104338871D01*
X191302218Y-104379168D01*
X191323578Y-104419679D01*
X191324104Y-104420328D01*
X191324497Y-104421068D01*
X191353452Y-104456570D01*
X191382164Y-104492027D01*
X191382805Y-104492561D01*
X191383335Y-104493211D01*
X191418556Y-104522348D01*
X191453686Y-104551618D01*
X191454423Y-104552020D01*
X191455065Y-104552551D01*
X191495212Y-104574258D01*
X191535421Y-104596181D01*
X191536219Y-104596431D01*
X191536955Y-104596829D01*
X191580528Y-104610317D01*
X191624255Y-104624020D01*
X191625090Y-104624111D01*
X191625886Y-104624357D01*
X191671322Y-104629133D01*
X191716805Y-104634073D01*
X191717636Y-104634000D01*
X191718470Y-104634088D01*
X191764084Y-104629937D01*
X191809545Y-104625960D01*
X191810348Y-104625727D01*
X191811181Y-104625651D01*
X191855024Y-104612747D01*
X191898943Y-104599988D01*
X191899687Y-104599603D01*
X191900487Y-104599367D01*
X191941057Y-104578158D01*
X191946841Y-104575160D01*
X191983890Y-104595528D01*
X191984687Y-104595781D01*
X191985421Y-104596181D01*
X192029135Y-104609880D01*
X192072626Y-104623676D01*
X192073454Y-104623769D01*
X192074255Y-104624020D01*
X192119614Y-104628947D01*
X192165140Y-104634054D01*
X192166731Y-104634065D01*
X192166805Y-104634073D01*
X192166884Y-104634066D01*
X192171800Y-104634100D01*
X192357262Y-104634100D01*
X192371800Y-104636166D01*
X193371800Y-104636166D01*
X193439798Y-104630744D01*
X193555130Y-104595027D01*
X193655946Y-104528594D01*
X193734263Y-104436705D01*
X193783879Y-104326635D01*
X193800866Y-104207100D01*
X193800866Y-103564724D01*
X193844445Y-103521145D01*
X193870732Y-103489143D01*
X193898238Y-103458145D01*
X193903337Y-103449449D01*
X193909729Y-103441667D01*
X193929299Y-103405169D01*
X193950260Y-103369420D01*
X193953297Y-103362718D01*
X193960450Y-103346640D01*
X194574315Y-103370094D01*
X194574315Y-103370094D01*
G37*
X194574315Y-103370094D02*
X194176155Y-103768255D01*
X194149322Y-103800922D01*
X194121335Y-103832674D01*
X194116707Y-103840629D01*
X194110871Y-103847733D01*
X194090880Y-103885015D01*
X194069609Y-103921573D01*
X194066617Y-103930265D01*
X194062268Y-103938376D01*
X194049903Y-103978823D01*
X194036133Y-104018826D01*
X194034885Y-104027947D01*
X194032198Y-104036735D01*
X194027925Y-104078794D01*
X194022186Y-104120727D01*
X194021956Y-104128082D01*
X194016155Y-104366537D01*
X193388016Y-106178634D01*
X192895400Y-106178634D01*
X192827402Y-106184056D01*
X192712070Y-106219773D01*
X192611254Y-106286206D01*
X192532937Y-106378095D01*
X192483321Y-106488165D01*
X192466334Y-106607700D01*
X192466334Y-107496700D01*
X192471756Y-107564698D01*
X192507473Y-107680030D01*
X192573906Y-107780846D01*
X192649050Y-107844891D01*
X192602565Y-107891377D01*
X192561307Y-107953124D01*
X192532888Y-108021733D01*
X192518400Y-108094569D01*
X192518400Y-108354950D01*
X192612648Y-108449198D01*
X192542520Y-108449198D01*
X192340571Y-108247249D01*
X191169119Y-104515531D01*
X191194800Y-104489850D01*
X191194800Y-103784100D01*
X191174800Y-103784100D01*
X191174800Y-103530100D01*
X191194800Y-103530100D01*
X191194800Y-103510100D01*
X191244800Y-103510100D01*
X191244800Y-104157100D01*
X191249270Y-104202693D01*
X191253564Y-104248116D01*
X191253802Y-104248915D01*
X191253884Y-104249750D01*
X191267080Y-104293458D01*
X191280159Y-104337330D01*
X191280551Y-104338074D01*
X191280792Y-104338871D01*
X191302218Y-104379168D01*
X191323578Y-104419679D01*
X191324104Y-104420328D01*
X191324497Y-104421068D01*
X191353452Y-104456570D01*
X191382164Y-104492027D01*
X191382805Y-104492561D01*
X191383335Y-104493211D01*
X191418556Y-104522348D01*
X191453686Y-104551618D01*
X191454423Y-104552020D01*
X191455065Y-104552551D01*
X191495212Y-104574258D01*
X191535421Y-104596181D01*
X191536219Y-104596431D01*
X191536955Y-104596829D01*
X191580528Y-104610317D01*
X191624255Y-104624020D01*
X191625090Y-104624111D01*
X191625886Y-104624357D01*
X191671322Y-104629133D01*
X191716805Y-104634073D01*
X191717636Y-104634000D01*
X191718470Y-104634088D01*
X191764084Y-104629937D01*
X191809545Y-104625960D01*
X191810348Y-104625727D01*
X191811181Y-104625651D01*
X191855024Y-104612747D01*
X191898943Y-104599988D01*
X191899687Y-104599603D01*
X191900487Y-104599367D01*
X191941057Y-104578158D01*
X191946841Y-104575160D01*
X191983890Y-104595528D01*
X191984687Y-104595781D01*
X191985421Y-104596181D01*
X192029135Y-104609880D01*
X192072626Y-104623676D01*
X192073454Y-104623769D01*
X192074255Y-104624020D01*
X192119614Y-104628947D01*
X192165140Y-104634054D01*
X192166731Y-104634065D01*
X192166805Y-104634073D01*
X192166884Y-104634066D01*
X192171800Y-104634100D01*
X192357262Y-104634100D01*
X192371800Y-104636166D01*
X193371800Y-104636166D01*
X193439798Y-104630744D01*
X193555130Y-104595027D01*
X193655946Y-104528594D01*
X193734263Y-104436705D01*
X193783879Y-104326635D01*
X193800866Y-104207100D01*
X193800866Y-103564724D01*
X193844445Y-103521145D01*
X193870732Y-103489143D01*
X193898238Y-103458145D01*
X193903337Y-103449449D01*
X193909729Y-103441667D01*
X193929299Y-103405169D01*
X193950260Y-103369420D01*
X193953297Y-103362718D01*
X193960450Y-103346640D01*
X194574315Y-103370094D01*
G36*
X202594992Y-105493673D02*
X201347404Y-107931595D01*
X201307435Y-107871777D01*
X201259870Y-107824211D01*
X201298746Y-107798594D01*
X201377063Y-107706705D01*
X201426679Y-107596635D01*
X201443666Y-107477100D01*
X201443666Y-106588100D01*
X201438244Y-106520102D01*
X201402527Y-106404770D01*
X201336094Y-106303954D01*
X201244205Y-106225637D01*
X201134135Y-106176021D01*
X201014600Y-106159034D01*
X200481190Y-106159034D01*
X199641485Y-104747355D01*
X202116097Y-104739572D01*
X202594992Y-105493673D01*
X202594992Y-105493673D01*
G37*
X202594992Y-105493673D02*
X201347404Y-107931595D01*
X201307435Y-107871777D01*
X201259870Y-107824211D01*
X201298746Y-107798594D01*
X201377063Y-107706705D01*
X201426679Y-107596635D01*
X201443666Y-107477100D01*
X201443666Y-106588100D01*
X201438244Y-106520102D01*
X201402527Y-106404770D01*
X201336094Y-106303954D01*
X201244205Y-106225637D01*
X201134135Y-106176021D01*
X201014600Y-106159034D01*
X200481190Y-106159034D01*
X199641485Y-104747355D01*
X202116097Y-104739572D01*
X202594992Y-105493673D01*
G36*
X197698173Y-100111630D02*
X197764606Y-100212446D01*
X197856495Y-100290763D01*
X197966565Y-100340379D01*
X198086100Y-100357366D01*
X198534754Y-100357366D01*
X198775800Y-101739532D01*
X198775800Y-101945300D01*
X198521800Y-101945300D01*
X198521800Y-101595300D01*
X198221800Y-101595300D01*
X198131182Y-101629242D01*
X198048927Y-101680210D01*
X198024539Y-101702979D01*
X197985932Y-101695300D01*
X197770050Y-101695300D01*
X197675800Y-101789550D01*
X197675800Y-102345300D01*
X197695800Y-102345300D01*
X197695800Y-102569550D01*
X197675800Y-102589550D01*
X197675800Y-103155050D01*
X197695800Y-103175050D01*
X197695800Y-103369550D01*
X197675800Y-103389550D01*
X197675800Y-103955050D01*
X197695800Y-103975050D01*
X197695800Y-104199300D01*
X197675800Y-104199300D01*
X197675800Y-104755050D01*
X197770050Y-104849300D01*
X197922597Y-104849300D01*
X197927306Y-104856446D01*
X198019195Y-104934763D01*
X198129265Y-104984379D01*
X198248800Y-105001366D01*
X198566210Y-105001366D01*
X199265973Y-106177781D01*
X199219200Y-106171134D01*
X198676824Y-106171134D01*
X198633245Y-106127555D01*
X198613528Y-106111359D01*
X198595507Y-106093303D01*
X198573890Y-106078800D01*
X198553767Y-106062271D01*
X198531281Y-106050214D01*
X198510096Y-106036001D01*
X198486072Y-106025973D01*
X198463124Y-106013668D01*
X198438724Y-106006209D01*
X198415181Y-105996381D01*
X198408132Y-105994272D01*
X197728685Y-105796141D01*
X196875802Y-104768616D01*
X196875802Y-104755052D01*
X196970050Y-104849300D01*
X197327550Y-104849300D01*
X197421800Y-104755050D01*
X197421800Y-104732458D01*
X197441635Y-104712623D01*
X197482893Y-104650876D01*
X197511312Y-104582267D01*
X197525800Y-104509431D01*
X197525800Y-104293550D01*
X197431550Y-104199300D01*
X196866050Y-104199300D01*
X196846050Y-104219300D01*
X196621800Y-104219300D01*
X196621800Y-104199300D01*
X196601800Y-104199300D01*
X196601800Y-103975050D01*
X196621800Y-103955050D01*
X196621800Y-103493550D01*
X196771800Y-103493550D01*
X196771800Y-103851050D01*
X196866050Y-103945300D01*
X196875800Y-103945300D01*
X196875800Y-103955050D01*
X196970050Y-104049300D01*
X197327550Y-104049300D01*
X197421800Y-103955050D01*
X197421800Y-103945300D01*
X197431550Y-103945300D01*
X197525800Y-103851050D01*
X197525800Y-103493550D01*
X197431550Y-103399300D01*
X197421800Y-103399300D01*
X197421800Y-103389550D01*
X197327550Y-103295300D01*
X196970050Y-103295300D01*
X196875800Y-103389550D01*
X196875800Y-103399300D01*
X196866050Y-103399300D01*
X196771800Y-103493550D01*
X196621800Y-103493550D01*
X196621800Y-103389550D01*
X196601800Y-103369550D01*
X196601800Y-103175050D01*
X196621800Y-103155050D01*
X196621800Y-102693550D01*
X196771800Y-102693550D01*
X196771800Y-103051050D01*
X196866050Y-103145300D01*
X196875800Y-103145300D01*
X196875800Y-103155050D01*
X196970050Y-103249300D01*
X197327550Y-103249300D01*
X197421800Y-103155050D01*
X197421800Y-103145300D01*
X197431550Y-103145300D01*
X197525800Y-103051050D01*
X197525800Y-102693550D01*
X197431550Y-102599300D01*
X197421800Y-102599300D01*
X197421800Y-102589550D01*
X197327550Y-102495300D01*
X196970050Y-102495300D01*
X196875800Y-102589550D01*
X196875800Y-102599300D01*
X196866050Y-102599300D01*
X196771800Y-102693550D01*
X196621800Y-102693550D01*
X196621800Y-102589550D01*
X196601800Y-102569550D01*
X196601800Y-102345300D01*
X196621800Y-102345300D01*
X196621800Y-102035169D01*
X196771800Y-102035169D01*
X196771800Y-102251050D01*
X196866050Y-102345300D01*
X197431550Y-102345300D01*
X197525800Y-102251050D01*
X197525800Y-102035169D01*
X197511312Y-101962333D01*
X197482893Y-101893724D01*
X197441635Y-101831977D01*
X197421800Y-101812142D01*
X197421800Y-101789550D01*
X197327550Y-101695300D01*
X196970050Y-101695300D01*
X196875800Y-101789550D01*
X196875800Y-101812142D01*
X196855965Y-101831977D01*
X196814707Y-101893724D01*
X196786288Y-101962333D01*
X196771800Y-102035169D01*
X196621800Y-102035169D01*
X196621800Y-101789550D01*
X196553777Y-101721527D01*
X196818654Y-100357766D01*
X197273100Y-100357766D01*
X197341098Y-100352344D01*
X197456430Y-100316627D01*
X197557246Y-100250194D01*
X197635563Y-100158305D01*
X197681244Y-100056965D01*
X197698173Y-100111630D01*
X197698173Y-100111630D01*
G37*
X197698173Y-100111630D02*
X197764606Y-100212446D01*
X197856495Y-100290763D01*
X197966565Y-100340379D01*
X198086100Y-100357366D01*
X198534754Y-100357366D01*
X198775800Y-101739532D01*
X198775800Y-101945300D01*
X198521800Y-101945300D01*
X198521800Y-101595300D01*
X198221800Y-101595300D01*
X198131182Y-101629242D01*
X198048927Y-101680210D01*
X198024539Y-101702979D01*
X197985932Y-101695300D01*
X197770050Y-101695300D01*
X197675800Y-101789550D01*
X197675800Y-102345300D01*
X197695800Y-102345300D01*
X197695800Y-102569550D01*
X197675800Y-102589550D01*
X197675800Y-103155050D01*
X197695800Y-103175050D01*
X197695800Y-103369550D01*
X197675800Y-103389550D01*
X197675800Y-103955050D01*
X197695800Y-103975050D01*
X197695800Y-104199300D01*
X197675800Y-104199300D01*
X197675800Y-104755050D01*
X197770050Y-104849300D01*
X197922597Y-104849300D01*
X197927306Y-104856446D01*
X198019195Y-104934763D01*
X198129265Y-104984379D01*
X198248800Y-105001366D01*
X198566210Y-105001366D01*
X199265973Y-106177781D01*
X199219200Y-106171134D01*
X198676824Y-106171134D01*
X198633245Y-106127555D01*
X198613528Y-106111359D01*
X198595507Y-106093303D01*
X198573890Y-106078800D01*
X198553767Y-106062271D01*
X198531281Y-106050214D01*
X198510096Y-106036001D01*
X198486072Y-106025973D01*
X198463124Y-106013668D01*
X198438724Y-106006209D01*
X198415181Y-105996381D01*
X198408132Y-105994272D01*
X197728685Y-105796141D01*
X196875802Y-104768616D01*
X196875802Y-104755052D01*
X196970050Y-104849300D01*
X197327550Y-104849300D01*
X197421800Y-104755050D01*
X197421800Y-104732458D01*
X197441635Y-104712623D01*
X197482893Y-104650876D01*
X197511312Y-104582267D01*
X197525800Y-104509431D01*
X197525800Y-104293550D01*
X197431550Y-104199300D01*
X196866050Y-104199300D01*
X196846050Y-104219300D01*
X196621800Y-104219300D01*
X196621800Y-104199300D01*
X196601800Y-104199300D01*
X196601800Y-103975050D01*
X196621800Y-103955050D01*
X196621800Y-103493550D01*
X196771800Y-103493550D01*
X196771800Y-103851050D01*
X196866050Y-103945300D01*
X196875800Y-103945300D01*
X196875800Y-103955050D01*
X196970050Y-104049300D01*
X197327550Y-104049300D01*
X197421800Y-103955050D01*
X197421800Y-103945300D01*
X197431550Y-103945300D01*
X197525800Y-103851050D01*
X197525800Y-103493550D01*
X197431550Y-103399300D01*
X197421800Y-103399300D01*
X197421800Y-103389550D01*
X197327550Y-103295300D01*
X196970050Y-103295300D01*
X196875800Y-103389550D01*
X196875800Y-103399300D01*
X196866050Y-103399300D01*
X196771800Y-103493550D01*
X196621800Y-103493550D01*
X196621800Y-103389550D01*
X196601800Y-103369550D01*
X196601800Y-103175050D01*
X196621800Y-103155050D01*
X196621800Y-102693550D01*
X196771800Y-102693550D01*
X196771800Y-103051050D01*
X196866050Y-103145300D01*
X196875800Y-103145300D01*
X196875800Y-103155050D01*
X196970050Y-103249300D01*
X197327550Y-103249300D01*
X197421800Y-103155050D01*
X197421800Y-103145300D01*
X197431550Y-103145300D01*
X197525800Y-103051050D01*
X197525800Y-102693550D01*
X197431550Y-102599300D01*
X197421800Y-102599300D01*
X197421800Y-102589550D01*
X197327550Y-102495300D01*
X196970050Y-102495300D01*
X196875800Y-102589550D01*
X196875800Y-102599300D01*
X196866050Y-102599300D01*
X196771800Y-102693550D01*
X196621800Y-102693550D01*
X196621800Y-102589550D01*
X196601800Y-102569550D01*
X196601800Y-102345300D01*
X196621800Y-102345300D01*
X196621800Y-102035169D01*
X196771800Y-102035169D01*
X196771800Y-102251050D01*
X196866050Y-102345300D01*
X197431550Y-102345300D01*
X197525800Y-102251050D01*
X197525800Y-102035169D01*
X197511312Y-101962333D01*
X197482893Y-101893724D01*
X197441635Y-101831977D01*
X197421800Y-101812142D01*
X197421800Y-101789550D01*
X197327550Y-101695300D01*
X196970050Y-101695300D01*
X196875800Y-101789550D01*
X196875800Y-101812142D01*
X196855965Y-101831977D01*
X196814707Y-101893724D01*
X196786288Y-101962333D01*
X196771800Y-102035169D01*
X196621800Y-102035169D01*
X196621800Y-101789550D01*
X196553777Y-101721527D01*
X196818654Y-100357766D01*
X197273100Y-100357766D01*
X197341098Y-100352344D01*
X197456430Y-100316627D01*
X197557246Y-100250194D01*
X197635563Y-100158305D01*
X197681244Y-100056965D01*
X197698173Y-100111630D01*
G36*
X201044650Y-102847600D02*
X201708400Y-102847600D01*
X201708400Y-102827600D01*
X201962400Y-102827600D01*
X201962400Y-102847600D01*
X201982400Y-102847600D01*
X201982400Y-103101600D01*
X201962400Y-103101600D01*
X201962400Y-103121600D01*
X201708400Y-103121600D01*
X201708400Y-103101600D01*
X201044650Y-103101600D01*
X200950400Y-103195850D01*
X200950400Y-103389231D01*
X200219978Y-103391528D01*
X200740093Y-102937720D01*
X200995587Y-102798537D01*
X201044650Y-102847600D01*
X201044650Y-102847600D01*
G37*
X201044650Y-102847600D02*
X201708400Y-102847600D01*
X201708400Y-102827600D01*
X201962400Y-102827600D01*
X201962400Y-102847600D01*
X201982400Y-102847600D01*
X201982400Y-103101600D01*
X201962400Y-103101600D01*
X201962400Y-103121600D01*
X201708400Y-103121600D01*
X201708400Y-103101600D01*
X201044650Y-103101600D01*
X200950400Y-103195850D01*
X200950400Y-103389231D01*
X200219978Y-103391528D01*
X200740093Y-102937720D01*
X200995587Y-102798537D01*
X201044650Y-102847600D01*
M02*
