M48
;DRILL file {KiCad 4.0.0-rc1-stable} date 19.10.2015 17:41:17
;FORMAT={-:-/ absolute / metric / decimal}
FMAT,2
METRIC,TZ
T1C0.300
T2C0.813
T3C1.000
T4C1.199
T5C2.200
%
G90
G05
M71
T1
X191.034Y-96.838
X191.179Y-99.915
X191.504Y-111.536
X191.577Y-115.88
X192.373Y-105.346
X192.916Y-99.119
X193.676Y-92.349
X194.762Y-96.874
X195.555Y-109.608
X196.749Y-102.472
X196.749Y-103.272
X196.749Y-104.072
X197.405Y-115.88
X197.549Y-102.472
X197.549Y-103.272
X197.549Y-104.072
X197.803Y-111.862
X197.835Y-109.465
X198.385Y-101.372
X199.65Y-90.105
X200.727Y-103.203
X201.17Y-105.237
X201.526Y-98.166
X201.749Y-115.192
X202.437Y-94.521
X204.356Y-90.141
X204.428Y-111.391
X204.682Y-103.897
X205.044Y-98.359
X208.012Y-94.34
X208.121Y-108.966
X208.881Y-115.735
X210.184Y-106.649
X210.22Y-98.395
X211.618Y-94.393
X211.632Y-111.029
X213.672Y-90.196
X214.528Y-115.663
X215.433Y-106.612
X216.737Y-98.576
X218.304Y-90.259
X219.598Y-114.948
X219.86Y-110.439
X220.006Y-96.404
X220.284Y-106.576
X221.456Y-102.676
X222.5Y-114.381
X222.628Y-99.457
X223.101Y-116.088
X224.201Y-108.231
X225.836Y-90.826
X225.899Y-97.854
X229.114Y-96.562
X229.334Y-101.667
T2
X208.778Y-91.304
X211.318Y-91.304
T3
X210.25Y-95.524
X212.75Y-95.524
X215.25Y-95.524
T4
X191.721Y-92.382
X192.12Y-94.782
X194.122Y-89.982
X198.12Y-92.382
X199.12Y-94.782
X221.962Y-89.874
X222.963Y-92.274
X226.961Y-94.674
X228.963Y-89.874
X229.361Y-92.274
T5
X207.75Y-102.524
X217.75Y-102.524
T0
M30
