G04 #@! TF.FileFunction,Copper,L2,Bot,Signal*
%FSLAX46Y46*%
G04 Gerber Fmt 4.6, Leading zero omitted, Abs format (unit mm)*
G04 Created by KiCad (PCBNEW 4.0.0-rc1-stable) date 19.10.2015 17:54:31*
%MOMM*%
G01*
G04 APERTURE LIST*
%ADD10C,0.100000*%
%ADD11R,0.800000X0.800000*%
%ADD12C,3.600000*%
%ADD13C,1.600000*%
%ADD14C,1.699260*%
%ADD15R,1.676400X1.676400*%
%ADD16C,1.676400*%
%ADD17C,0.800000*%
%ADD18C,0.200000*%
%ADD19C,0.500000*%
%ADD20C,0.254000*%
G04 APERTURE END LIST*
D10*
D11*
X196748800Y-103272300D03*
X197548800Y-103272300D03*
X196748800Y-102472300D03*
X197548800Y-102472300D03*
X196748800Y-104072300D03*
X197548800Y-104072300D03*
D12*
X217750000Y-102524300D03*
X207750000Y-102524300D03*
D13*
X215250000Y-95524300D03*
X212750000Y-95524300D03*
X210250000Y-95524300D03*
D14*
X191721360Y-92382000D03*
X192120140Y-94782300D03*
X194121660Y-89981700D03*
X199120380Y-94782300D03*
X198119620Y-92382000D03*
X229361340Y-92274200D03*
X228962560Y-89873900D03*
X226961040Y-94674500D03*
X221962320Y-89873900D03*
X222963080Y-92274200D03*
D15*
X211317600Y-91304500D03*
D16*
X208777600Y-91304500D03*
D17*
X222499800Y-114380700D03*
X223101200Y-116087600D03*
X213671600Y-90195900D03*
X218304300Y-90258900D03*
X211617600Y-94393500D03*
X208012100Y-94340300D03*
X224201300Y-108230700D03*
X219859600Y-110439500D03*
X219597800Y-114947900D03*
X222627700Y-99457500D03*
X201526400Y-98165700D03*
X198384600Y-101372300D03*
X197834900Y-109464600D03*
X200727400Y-103203100D03*
X192373200Y-105345500D03*
X194762500Y-96874400D03*
X191178600Y-99915300D03*
X192916200Y-99118900D03*
X191033800Y-96838200D03*
X193676400Y-92349300D03*
X199649600Y-90104800D03*
X204355800Y-90141000D03*
X202437100Y-94521300D03*
X205043600Y-98358700D03*
X204681600Y-103897500D03*
X201170100Y-105236900D03*
X191504400Y-111535900D03*
X197803400Y-111861700D03*
X204428200Y-111391100D03*
X211632200Y-111029100D03*
X191576800Y-115880100D03*
X197405200Y-115880100D03*
X201749300Y-115192200D03*
X208881000Y-115735300D03*
X214528300Y-115662800D03*
X208120700Y-108965600D03*
X210184200Y-106648700D03*
X215433400Y-106612500D03*
X210220400Y-98394900D03*
X216736600Y-98575900D03*
X220284300Y-106576300D03*
X221455800Y-102675800D03*
X220006100Y-96404300D03*
X229334500Y-101667300D03*
X225899400Y-97854000D03*
X229113900Y-96561900D03*
X225836300Y-90826200D03*
X195554800Y-109607900D03*
D18*
X222499800Y-114380700D02*
X223101200Y-116087600D01*
D19*
X208012100Y-94340300D02*
X208859700Y-94340300D01*
X213671600Y-90195900D02*
X211617600Y-94393500D01*
X213671600Y-90195900D02*
X218304300Y-90258900D01*
X210924100Y-93700000D02*
X211617600Y-94393500D01*
X209500000Y-93700000D02*
X210924100Y-93700000D01*
X208859700Y-94340300D02*
X209500000Y-93700000D01*
X216736600Y-98575900D02*
X215250000Y-95524300D01*
X220006100Y-96404300D02*
X216736600Y-98575900D01*
X222963100Y-92274200D02*
X225836300Y-90826200D01*
X225899400Y-97854000D02*
X222627700Y-99457500D01*
X229334500Y-101667300D02*
X225899400Y-97854000D01*
X229113900Y-96561900D02*
X225899400Y-97854000D01*
X221455800Y-102675800D02*
X222627700Y-99457500D01*
X214528300Y-115662800D02*
X219597800Y-114947900D01*
X220284300Y-106576300D02*
X224201300Y-108230700D01*
X215433400Y-106612500D02*
X220284300Y-106576300D01*
X211632200Y-111029100D02*
X208881000Y-115735300D01*
X208120700Y-108965600D02*
X211632200Y-111029100D01*
X208120700Y-108965600D02*
X210184200Y-106648700D01*
X204428200Y-111391100D02*
X208120700Y-108965600D01*
X201749300Y-115192200D02*
X204428200Y-111391100D01*
X190736700Y-108958300D02*
X192373200Y-105345500D01*
X191504400Y-111535900D02*
X190736700Y-108958300D01*
X197405200Y-115880100D02*
X201749300Y-115192200D01*
X197803400Y-111861700D02*
X197405200Y-115880100D01*
X197803400Y-111861700D02*
X197834900Y-109464600D01*
X191576800Y-115880100D02*
X191504400Y-111535900D01*
X201170100Y-105236900D02*
X200727400Y-103203100D01*
X204681600Y-103897500D02*
X201170100Y-105236900D01*
X208012100Y-94340300D02*
X210220400Y-98394900D01*
X208012100Y-94340300D02*
X208777600Y-91304500D01*
X204355800Y-90141000D02*
X208777600Y-91304500D01*
X201526400Y-98165700D02*
X205043600Y-98358700D01*
X202437100Y-94521300D02*
X201526400Y-98165700D01*
X193596500Y-97223700D02*
X194762500Y-96874400D01*
X192997700Y-97728000D02*
X193596500Y-97223700D01*
X192916200Y-99118900D02*
X192997700Y-97728000D01*
X191178600Y-99915300D02*
X192916200Y-99118900D01*
X191033800Y-96838200D02*
X191178600Y-99915300D01*
X192120100Y-94782300D02*
X191033800Y-96838200D01*
X198119600Y-92382000D02*
X199649600Y-90104800D01*
X191721400Y-92382000D02*
X193676400Y-92349300D01*
X197698800Y-103203100D02*
X197548800Y-103272300D01*
X197948800Y-103203100D02*
X197698800Y-103203100D01*
X200727400Y-103203100D02*
X197948800Y-103203100D01*
X197910800Y-104604800D02*
X197548800Y-104072300D01*
X197698800Y-104472300D02*
X197910800Y-104604800D01*
X197698800Y-104575900D02*
X197698800Y-104472300D01*
X197834900Y-109464600D02*
X197698800Y-104575900D01*
X198384600Y-101372300D02*
X201526400Y-98165700D01*
X224201300Y-108230700D02*
X219859600Y-110439500D01*
X208777600Y-91304500D02*
X201526400Y-98165700D01*
X222627700Y-99457500D02*
X222963100Y-92274200D01*
X222963100Y-92274200D02*
X215250000Y-95524300D01*
X228962600Y-89873900D02*
X229361300Y-92274200D01*
X222963100Y-92274200D02*
X229361300Y-92274200D01*
X224201300Y-108230700D02*
X222627700Y-99457500D01*
X219859600Y-110439500D02*
X219597800Y-114947900D01*
D18*
X196048300Y-101947800D02*
X199120400Y-94782300D01*
X195554800Y-109607900D02*
X196048300Y-101947800D01*
X212750000Y-95524300D02*
X221962300Y-89873900D01*
D20*
G36*
X193317848Y-88981960D02*
X193138973Y-89157128D01*
X192997528Y-89363703D01*
X192898900Y-89593818D01*
X192846848Y-89838707D01*
X192843352Y-90089043D01*
X192888547Y-90335290D01*
X192980710Y-90568068D01*
X193116333Y-90778513D01*
X193290247Y-90958607D01*
X193495830Y-91101491D01*
X193725251Y-91201722D01*
X193969771Y-91255483D01*
X194220076Y-91260726D01*
X194466632Y-91217252D01*
X194700049Y-91126715D01*
X194911435Y-90992566D01*
X195092739Y-90819913D01*
X195237054Y-90615332D01*
X195322692Y-90422985D01*
X208075690Y-90422985D01*
X208777600Y-91124895D01*
X209436195Y-90466300D01*
X210050334Y-90466300D01*
X210050334Y-92142700D01*
X210055756Y-92210698D01*
X210091473Y-92326030D01*
X210157906Y-92426846D01*
X210249795Y-92505163D01*
X210359865Y-92554779D01*
X210479400Y-92571766D01*
X212155800Y-92571766D01*
X212223798Y-92566344D01*
X212339130Y-92530627D01*
X212439946Y-92464194D01*
X212518263Y-92372305D01*
X212567879Y-92262235D01*
X212584866Y-92142700D01*
X212584866Y-90466300D01*
X212579444Y-90398302D01*
X212543727Y-90282970D01*
X212477294Y-90182154D01*
X212385405Y-90103837D01*
X212275335Y-90054221D01*
X212155800Y-90037234D01*
X210479400Y-90037234D01*
X210411402Y-90042656D01*
X210296070Y-90078373D01*
X210195254Y-90144806D01*
X210116937Y-90236695D01*
X210067321Y-90346765D01*
X210050334Y-90466300D01*
X209436195Y-90466300D01*
X209479510Y-90422985D01*
X209388695Y-90247334D01*
X209170710Y-90148428D01*
X208937618Y-90093950D01*
X208698377Y-90085992D01*
X208462180Y-90124861D01*
X208238104Y-90209063D01*
X208166505Y-90247334D01*
X208075690Y-90422985D01*
X195322692Y-90422985D01*
X195338885Y-90386617D01*
X195394352Y-90142478D01*
X195398345Y-89856520D01*
X195349716Y-89610928D01*
X195254311Y-89379459D01*
X195115764Y-89170928D01*
X194939352Y-88993280D01*
X194766959Y-88877000D01*
X221155608Y-88877000D01*
X220979633Y-89049328D01*
X220838188Y-89255903D01*
X220739560Y-89486018D01*
X220687508Y-89730907D01*
X220684012Y-89981243D01*
X220693657Y-90033794D01*
X213419218Y-94495600D01*
X213336415Y-94439749D01*
X213114589Y-94346502D01*
X212878877Y-94298117D01*
X212638256Y-94296437D01*
X212401891Y-94341526D01*
X212178785Y-94431667D01*
X211977437Y-94563425D01*
X211805515Y-94731783D01*
X211669569Y-94930328D01*
X211574776Y-95151497D01*
X211524747Y-95386866D01*
X211521387Y-95627470D01*
X211564825Y-95864143D01*
X211653406Y-96087873D01*
X211783755Y-96290136D01*
X211950909Y-96463229D01*
X212148500Y-96600558D01*
X212369002Y-96696893D01*
X212604015Y-96748564D01*
X212844590Y-96753603D01*
X213081561Y-96711819D01*
X213305904Y-96624802D01*
X213509072Y-96495868D01*
X213632328Y-96378492D01*
X214575413Y-96378492D01*
X214661595Y-96550236D01*
X214873051Y-96645315D01*
X215098992Y-96697314D01*
X215330738Y-96704236D01*
X215559380Y-96665812D01*
X215776133Y-96583521D01*
X215838405Y-96550236D01*
X215924587Y-96378492D01*
X215250000Y-95703905D01*
X214575413Y-96378492D01*
X213632328Y-96378492D01*
X213683327Y-96329926D01*
X213822032Y-96133299D01*
X213919904Y-95913475D01*
X213973215Y-95678828D01*
X213977053Y-95403986D01*
X213974569Y-95391439D01*
X214088957Y-95321279D01*
X214076986Y-95373292D01*
X214070064Y-95605038D01*
X214108488Y-95833680D01*
X214190779Y-96050433D01*
X214224064Y-96112705D01*
X214395808Y-96198887D01*
X215070395Y-95524300D01*
X215429605Y-95524300D01*
X216104192Y-96198887D01*
X216275936Y-96112705D01*
X216371015Y-95901249D01*
X216423014Y-95675308D01*
X216429936Y-95443562D01*
X216391512Y-95214920D01*
X216309221Y-94998167D01*
X216275936Y-94935895D01*
X216104192Y-94849713D01*
X215429605Y-95524300D01*
X215070395Y-95524300D01*
X215056253Y-95510158D01*
X215235858Y-95330553D01*
X215250000Y-95344695D01*
X215812852Y-94781843D01*
X225682732Y-94781843D01*
X225727927Y-95028090D01*
X225820090Y-95260868D01*
X225955713Y-95471313D01*
X226129627Y-95651407D01*
X226335210Y-95794291D01*
X226564631Y-95894522D01*
X226809151Y-95948283D01*
X227059456Y-95953526D01*
X227306012Y-95910052D01*
X227539429Y-95819515D01*
X227750815Y-95685366D01*
X227932119Y-95512713D01*
X228076434Y-95308132D01*
X228178265Y-95079417D01*
X228233732Y-94835278D01*
X228237725Y-94549320D01*
X228189096Y-94303728D01*
X228093691Y-94072259D01*
X227955144Y-93863728D01*
X227778732Y-93686080D01*
X227571174Y-93546081D01*
X227340376Y-93449062D01*
X227095130Y-93398720D01*
X226844776Y-93396973D01*
X226598850Y-93443885D01*
X226366721Y-93537672D01*
X226157228Y-93674760D01*
X225978353Y-93849928D01*
X225836908Y-94056503D01*
X225738280Y-94286618D01*
X225686228Y-94531507D01*
X225682732Y-94781843D01*
X215812852Y-94781843D01*
X215924587Y-94670108D01*
X215838405Y-94498364D01*
X215626949Y-94403285D01*
X215596907Y-94396371D01*
X217606324Y-93163887D01*
X222252998Y-93163887D01*
X222345197Y-93340708D01*
X222565135Y-93440759D01*
X222800366Y-93495979D01*
X223041850Y-93504246D01*
X223280306Y-93465244D01*
X223506572Y-93380470D01*
X223580963Y-93340708D01*
X223673162Y-93163887D01*
X228651258Y-93163887D01*
X228743457Y-93340708D01*
X228963395Y-93440759D01*
X229198626Y-93495979D01*
X229440110Y-93504246D01*
X229678566Y-93465244D01*
X229904832Y-93380470D01*
X229979223Y-93340708D01*
X230071422Y-93163887D01*
X229361340Y-92453805D01*
X228651258Y-93163887D01*
X223673162Y-93163887D01*
X222963080Y-92453805D01*
X222252998Y-93163887D01*
X217606324Y-93163887D01*
X218928428Y-92352970D01*
X221733034Y-92352970D01*
X221772036Y-92591426D01*
X221856810Y-92817692D01*
X221896572Y-92892083D01*
X222073393Y-92984282D01*
X222783475Y-92274200D01*
X223142685Y-92274200D01*
X223852767Y-92984282D01*
X224029588Y-92892083D01*
X224129639Y-92672145D01*
X224184859Y-92436914D01*
X224187732Y-92352970D01*
X228131294Y-92352970D01*
X228170296Y-92591426D01*
X228255070Y-92817692D01*
X228294832Y-92892083D01*
X228471653Y-92984282D01*
X229181735Y-92274200D01*
X229540945Y-92274200D01*
X230251027Y-92984282D01*
X230427848Y-92892083D01*
X230527899Y-92672145D01*
X230583119Y-92436914D01*
X230591386Y-92195430D01*
X230552384Y-91956974D01*
X230467610Y-91730708D01*
X230427848Y-91656317D01*
X230251027Y-91564118D01*
X229540945Y-92274200D01*
X229181735Y-92274200D01*
X228471653Y-91564118D01*
X228294832Y-91656317D01*
X228194781Y-91876255D01*
X228139561Y-92111486D01*
X228131294Y-92352970D01*
X224187732Y-92352970D01*
X224193126Y-92195430D01*
X224154124Y-91956974D01*
X224069350Y-91730708D01*
X224029588Y-91656317D01*
X223852767Y-91564118D01*
X223142685Y-92274200D01*
X222783475Y-92274200D01*
X222073393Y-91564118D01*
X221896572Y-91656317D01*
X221796521Y-91876255D01*
X221741301Y-92111486D01*
X221733034Y-92352970D01*
X218928428Y-92352970D01*
X220507381Y-91384513D01*
X222252998Y-91384513D01*
X222963080Y-92094595D01*
X223673162Y-91384513D01*
X223580963Y-91207692D01*
X223361025Y-91107641D01*
X223125794Y-91052421D01*
X222884310Y-91044154D01*
X222645854Y-91083156D01*
X222419588Y-91167930D01*
X222345197Y-91207692D01*
X222252998Y-91384513D01*
X220507381Y-91384513D01*
X221246520Y-90931160D01*
X221336490Y-90993691D01*
X221565911Y-91093922D01*
X221810431Y-91147683D01*
X222060736Y-91152926D01*
X222307292Y-91109452D01*
X222540709Y-91018915D01*
X222752095Y-90884766D01*
X222879345Y-90763587D01*
X228252478Y-90763587D01*
X228344677Y-90940408D01*
X228564615Y-91040459D01*
X228799846Y-91095679D01*
X228993037Y-91102293D01*
X228817848Y-91167930D01*
X228743457Y-91207692D01*
X228651258Y-91384513D01*
X229361340Y-92094595D01*
X230071422Y-91384513D01*
X229979223Y-91207692D01*
X229759285Y-91107641D01*
X229524054Y-91052421D01*
X229330863Y-91045807D01*
X229506052Y-90980170D01*
X229580443Y-90940408D01*
X229672642Y-90763587D01*
X228962560Y-90053505D01*
X228252478Y-90763587D01*
X222879345Y-90763587D01*
X222933399Y-90712113D01*
X223077714Y-90507532D01*
X223179545Y-90278817D01*
X223235012Y-90034678D01*
X223236157Y-89952670D01*
X227732514Y-89952670D01*
X227771516Y-90191126D01*
X227856290Y-90417392D01*
X227896052Y-90491783D01*
X228072873Y-90583982D01*
X228782955Y-89873900D01*
X229142165Y-89873900D01*
X229852247Y-90583982D01*
X230029068Y-90491783D01*
X230129119Y-90271845D01*
X230184339Y-90036614D01*
X230192606Y-89795130D01*
X230153604Y-89556674D01*
X230068830Y-89330408D01*
X230029068Y-89256017D01*
X229852247Y-89163818D01*
X229142165Y-89873900D01*
X228782955Y-89873900D01*
X228072873Y-89163818D01*
X227896052Y-89256017D01*
X227796001Y-89475955D01*
X227740781Y-89711186D01*
X227732514Y-89952670D01*
X223236157Y-89952670D01*
X223239005Y-89748720D01*
X223190376Y-89503128D01*
X223094971Y-89271659D01*
X222956424Y-89063128D01*
X222780012Y-88885480D01*
X222767440Y-88877000D01*
X228308382Y-88877000D01*
X228252478Y-88984213D01*
X228962560Y-89694295D01*
X229672642Y-88984213D01*
X229616738Y-88877000D01*
X230723000Y-88877000D01*
X230723000Y-105923000D01*
X225600000Y-105923000D01*
X225555270Y-105927386D01*
X225510619Y-105931449D01*
X225509017Y-105931921D01*
X225507350Y-105932084D01*
X225464381Y-105945058D01*
X225421313Y-105957733D01*
X225419829Y-105958509D01*
X225418229Y-105958992D01*
X225378665Y-105980028D01*
X225338812Y-106000863D01*
X225337505Y-106001914D01*
X225336032Y-106002697D01*
X225301243Y-106031070D01*
X225266261Y-106059197D01*
X225265188Y-106060475D01*
X225263889Y-106061535D01*
X225235223Y-106096187D01*
X225206421Y-106130511D01*
X225205616Y-106131975D01*
X225204549Y-106133265D01*
X225183188Y-106172772D01*
X225161572Y-106212090D01*
X225161066Y-106213684D01*
X225160271Y-106215155D01*
X225146999Y-106258032D01*
X225133424Y-106300826D01*
X225133238Y-106302488D01*
X225132743Y-106304086D01*
X225128058Y-106348664D01*
X225123046Y-106393340D01*
X225123024Y-106396558D01*
X225123012Y-106396670D01*
X225123022Y-106396782D01*
X225123000Y-106400000D01*
X225123000Y-114200000D01*
X225127386Y-114244730D01*
X225131449Y-114289381D01*
X225131921Y-114290983D01*
X225132084Y-114292650D01*
X225145058Y-114335619D01*
X225157733Y-114378687D01*
X225158509Y-114380171D01*
X225158992Y-114381771D01*
X225180028Y-114421335D01*
X225200863Y-114461188D01*
X225201914Y-114462495D01*
X225202697Y-114463968D01*
X225231070Y-114498757D01*
X225259197Y-114533739D01*
X225260475Y-114534812D01*
X225261535Y-114536111D01*
X225296187Y-114564777D01*
X225330511Y-114593579D01*
X225331975Y-114594384D01*
X225333265Y-114595451D01*
X225372772Y-114616812D01*
X225412090Y-114638428D01*
X225413684Y-114638934D01*
X225415155Y-114639729D01*
X225458032Y-114653001D01*
X225500826Y-114666576D01*
X225502488Y-114666762D01*
X225504086Y-114667257D01*
X225548664Y-114671942D01*
X225593340Y-114676954D01*
X225596558Y-114676976D01*
X225596670Y-114676988D01*
X225596782Y-114676978D01*
X225600000Y-114677000D01*
X230723000Y-114677000D01*
X230723000Y-116523000D01*
X223806162Y-116523000D01*
X223823751Y-116498066D01*
X223889717Y-116349905D01*
X223925648Y-116191752D01*
X223928235Y-116006509D01*
X223896733Y-115847414D01*
X223834930Y-115697469D01*
X223745180Y-115562383D01*
X223630900Y-115447303D01*
X223496444Y-115356611D01*
X223386051Y-115310206D01*
X223209563Y-114809295D01*
X223222351Y-114791166D01*
X223288317Y-114643005D01*
X223324248Y-114484852D01*
X223326835Y-114299609D01*
X223295333Y-114140514D01*
X223233530Y-113990569D01*
X223143780Y-113855483D01*
X223029500Y-113740403D01*
X222895044Y-113649711D01*
X222745534Y-113586863D01*
X222586663Y-113554251D01*
X222424484Y-113553119D01*
X222265174Y-113583509D01*
X222114801Y-113644264D01*
X221979092Y-113733069D01*
X221863216Y-113846543D01*
X221771588Y-113980362D01*
X221707698Y-114129430D01*
X221673978Y-114288069D01*
X221671713Y-114450236D01*
X221700991Y-114609755D01*
X221760694Y-114760549D01*
X221848550Y-114896874D01*
X221961212Y-115013539D01*
X222094388Y-115106099D01*
X222215231Y-115158894D01*
X222391742Y-115659872D01*
X222372988Y-115687262D01*
X222309098Y-115836330D01*
X222275378Y-115994969D01*
X222273113Y-116157136D01*
X222302391Y-116316655D01*
X222362094Y-116467449D01*
X222397894Y-116523000D01*
X190277000Y-116523000D01*
X190277000Y-109677436D01*
X194726713Y-109677436D01*
X194755991Y-109836955D01*
X194815694Y-109987749D01*
X194903550Y-110124074D01*
X195016212Y-110240739D01*
X195149388Y-110333299D01*
X195298007Y-110398229D01*
X195456406Y-110433055D01*
X195618554Y-110436452D01*
X195778273Y-110408289D01*
X195929480Y-110349640D01*
X196066415Y-110262738D01*
X196183864Y-110150893D01*
X196277351Y-110018366D01*
X196343317Y-109870205D01*
X196379248Y-109712052D01*
X196381835Y-109526809D01*
X196350333Y-109367714D01*
X196288530Y-109217769D01*
X196198780Y-109082683D01*
X196121729Y-109005092D01*
X196389464Y-104849300D01*
X196527550Y-104849300D01*
X196621800Y-104755050D01*
X196621800Y-104293550D01*
X196771800Y-104293550D01*
X196771800Y-104509431D01*
X196786288Y-104582267D01*
X196814707Y-104650876D01*
X196855965Y-104712623D01*
X196875800Y-104732458D01*
X196875800Y-104755050D01*
X196970050Y-104849300D01*
X197327550Y-104849300D01*
X197421800Y-104755050D01*
X197421800Y-104732458D01*
X197441635Y-104712623D01*
X197482893Y-104650876D01*
X197511312Y-104582267D01*
X197525800Y-104509431D01*
X197525800Y-104293550D01*
X197431550Y-104199300D01*
X197675800Y-104199300D01*
X197675800Y-104755050D01*
X197770050Y-104849300D01*
X197985932Y-104849300D01*
X198058767Y-104834812D01*
X198127377Y-104806393D01*
X198189124Y-104765135D01*
X198241635Y-104712623D01*
X198282893Y-104650876D01*
X198311312Y-104582267D01*
X198325800Y-104509431D01*
X198325800Y-104293550D01*
X198231550Y-104199300D01*
X197675800Y-104199300D01*
X197431550Y-104199300D01*
X196866050Y-104199300D01*
X196771800Y-104293550D01*
X196621800Y-104293550D01*
X196621800Y-104199300D01*
X196601800Y-104199300D01*
X196601800Y-103975050D01*
X196621800Y-103955050D01*
X196621800Y-103493550D01*
X196771800Y-103493550D01*
X196771800Y-103851050D01*
X196866050Y-103945300D01*
X196875800Y-103945300D01*
X196875800Y-103955050D01*
X196970050Y-104049300D01*
X197327550Y-104049300D01*
X197421800Y-103955050D01*
X197421800Y-103945300D01*
X197431550Y-103945300D01*
X197525800Y-103851050D01*
X197525800Y-103493550D01*
X197431550Y-103399300D01*
X197421800Y-103399300D01*
X197421800Y-103389550D01*
X197675800Y-103389550D01*
X197675800Y-103955050D01*
X197770050Y-104049300D01*
X197985932Y-104049300D01*
X198058767Y-104034812D01*
X198127377Y-104006393D01*
X198189124Y-103965135D01*
X198208959Y-103945300D01*
X198231550Y-103945300D01*
X198325800Y-103851050D01*
X198325800Y-103493550D01*
X198231550Y-103399300D01*
X198208959Y-103399300D01*
X198189124Y-103379465D01*
X198127377Y-103338207D01*
X198058767Y-103309788D01*
X197985932Y-103295300D01*
X197770050Y-103295300D01*
X197675800Y-103389550D01*
X197421800Y-103389550D01*
X197327550Y-103295300D01*
X196970050Y-103295300D01*
X196875800Y-103389550D01*
X196875800Y-103399300D01*
X196866050Y-103399300D01*
X196771800Y-103493550D01*
X196621800Y-103493550D01*
X196621800Y-103389550D01*
X196601800Y-103369550D01*
X196601800Y-103175050D01*
X196621800Y-103155050D01*
X196621800Y-102693550D01*
X196771800Y-102693550D01*
X196771800Y-103051050D01*
X196866050Y-103145300D01*
X196875800Y-103145300D01*
X196875800Y-103155050D01*
X196970050Y-103249300D01*
X197327550Y-103249300D01*
X197421800Y-103155050D01*
X197421800Y-103145300D01*
X197431550Y-103145300D01*
X197525800Y-103051050D01*
X197525800Y-102693550D01*
X197431550Y-102599300D01*
X197421800Y-102599300D01*
X197421800Y-102589550D01*
X197675800Y-102589550D01*
X197675800Y-103155050D01*
X197770050Y-103249300D01*
X197985932Y-103249300D01*
X198058767Y-103234812D01*
X198127377Y-103206393D01*
X198189124Y-103165135D01*
X198208959Y-103145300D01*
X198231550Y-103145300D01*
X198325800Y-103051050D01*
X198325800Y-102711552D01*
X205520072Y-102711552D01*
X205598912Y-103141115D01*
X205759685Y-103547183D01*
X205996270Y-103914290D01*
X206299653Y-104228452D01*
X206658279Y-104477704D01*
X207058489Y-104652551D01*
X207485038Y-104746334D01*
X207921680Y-104755481D01*
X208351782Y-104679642D01*
X208758963Y-104521707D01*
X209127712Y-104287692D01*
X209443985Y-103986509D01*
X209695735Y-103629631D01*
X209873372Y-103230652D01*
X209970130Y-102804768D01*
X209971431Y-102711552D01*
X215520072Y-102711552D01*
X215598912Y-103141115D01*
X215759685Y-103547183D01*
X215996270Y-103914290D01*
X216299653Y-104228452D01*
X216658279Y-104477704D01*
X217058489Y-104652551D01*
X217485038Y-104746334D01*
X217921680Y-104755481D01*
X218351782Y-104679642D01*
X218758963Y-104521707D01*
X219127712Y-104287692D01*
X219443985Y-103986509D01*
X219695735Y-103629631D01*
X219873372Y-103230652D01*
X219970130Y-102804768D01*
X219977096Y-102305931D01*
X219892267Y-101877512D01*
X219725839Y-101473728D01*
X219484152Y-101109960D01*
X219176412Y-100800064D01*
X218814340Y-100555844D01*
X218411728Y-100386601D01*
X217983911Y-100298783D01*
X217547185Y-100295734D01*
X217118183Y-100377570D01*
X216713247Y-100541175D01*
X216347801Y-100780316D01*
X216035764Y-101085885D01*
X215789022Y-101446243D01*
X215616973Y-101847664D01*
X215526170Y-102274857D01*
X215520072Y-102711552D01*
X209971431Y-102711552D01*
X209977096Y-102305931D01*
X209892267Y-101877512D01*
X209725839Y-101473728D01*
X209484152Y-101109960D01*
X209176412Y-100800064D01*
X208814340Y-100555844D01*
X208411728Y-100386601D01*
X207983911Y-100298783D01*
X207547185Y-100295734D01*
X207118183Y-100377570D01*
X206713247Y-100541175D01*
X206347801Y-100780316D01*
X206035764Y-101085885D01*
X205789022Y-101446243D01*
X205616973Y-101847664D01*
X205526170Y-102274857D01*
X205520072Y-102711552D01*
X198325800Y-102711552D01*
X198325800Y-102693550D01*
X198231550Y-102599300D01*
X198208959Y-102599300D01*
X198189124Y-102579465D01*
X198127377Y-102538207D01*
X198058767Y-102509788D01*
X197985932Y-102495300D01*
X197770050Y-102495300D01*
X197675800Y-102589550D01*
X197421800Y-102589550D01*
X197327550Y-102495300D01*
X196970050Y-102495300D01*
X196875800Y-102589550D01*
X196875800Y-102599300D01*
X196866050Y-102599300D01*
X196771800Y-102693550D01*
X196621800Y-102693550D01*
X196621800Y-102589550D01*
X196601800Y-102569550D01*
X196601800Y-102345300D01*
X196621800Y-102345300D01*
X196621800Y-102035169D01*
X196771800Y-102035169D01*
X196771800Y-102251050D01*
X196866050Y-102345300D01*
X197431550Y-102345300D01*
X197525800Y-102251050D01*
X197525800Y-102035169D01*
X197511312Y-101962333D01*
X197482893Y-101893724D01*
X197441635Y-101831977D01*
X197421800Y-101812142D01*
X197421800Y-101789550D01*
X197675800Y-101789550D01*
X197675800Y-102345300D01*
X198231550Y-102345300D01*
X198325800Y-102251050D01*
X198325800Y-102035169D01*
X198311312Y-101962333D01*
X198282893Y-101893724D01*
X198241635Y-101831977D01*
X198189124Y-101779465D01*
X198127377Y-101738207D01*
X198058767Y-101709788D01*
X197985932Y-101695300D01*
X197770050Y-101695300D01*
X197675800Y-101789550D01*
X197421800Y-101789550D01*
X197327550Y-101695300D01*
X196970050Y-101695300D01*
X196875800Y-101789550D01*
X196875800Y-101812142D01*
X196855965Y-101831977D01*
X196814707Y-101893724D01*
X196786288Y-101962333D01*
X196771800Y-102035169D01*
X196621800Y-102035169D01*
X196621800Y-101947550D01*
X199146083Y-96059803D01*
X199218796Y-96061326D01*
X199465352Y-96017852D01*
X199698769Y-95927315D01*
X199910155Y-95793166D01*
X200084153Y-95627470D01*
X209021387Y-95627470D01*
X209064825Y-95864143D01*
X209153406Y-96087873D01*
X209283755Y-96290136D01*
X209450909Y-96463229D01*
X209648500Y-96600558D01*
X209869002Y-96696893D01*
X210104015Y-96748564D01*
X210344590Y-96753603D01*
X210581561Y-96711819D01*
X210805904Y-96624802D01*
X211009072Y-96495868D01*
X211183327Y-96329926D01*
X211322032Y-96133299D01*
X211419904Y-95913475D01*
X211473215Y-95678828D01*
X211477053Y-95403986D01*
X211430315Y-95167942D01*
X211338619Y-94945471D01*
X211205458Y-94745048D01*
X211035904Y-94574306D01*
X210836415Y-94439749D01*
X210614589Y-94346502D01*
X210378877Y-94298117D01*
X210138256Y-94296437D01*
X209901891Y-94341526D01*
X209678785Y-94431667D01*
X209477437Y-94563425D01*
X209305515Y-94731783D01*
X209169569Y-94930328D01*
X209074776Y-95151497D01*
X209024747Y-95386866D01*
X209021387Y-95627470D01*
X200084153Y-95627470D01*
X200091459Y-95620513D01*
X200235774Y-95415932D01*
X200337605Y-95187217D01*
X200393072Y-94943078D01*
X200397065Y-94657120D01*
X200348436Y-94411528D01*
X200253031Y-94180059D01*
X200114484Y-93971528D01*
X199938072Y-93793880D01*
X199730514Y-93653881D01*
X199499716Y-93556862D01*
X199254470Y-93506520D01*
X199004116Y-93504773D01*
X198758190Y-93551685D01*
X198526061Y-93645472D01*
X198316568Y-93782560D01*
X198137693Y-93957728D01*
X197996248Y-94164303D01*
X197897620Y-94394418D01*
X197845568Y-94639307D01*
X197842072Y-94889643D01*
X197887267Y-95135890D01*
X197979430Y-95368668D01*
X198115053Y-95579113D01*
X198177611Y-95643894D01*
X195563939Y-101740138D01*
X195553480Y-101773098D01*
X195540927Y-101805317D01*
X195537957Y-101822014D01*
X195532829Y-101838173D01*
X195528972Y-101872526D01*
X195522914Y-101906579D01*
X195522390Y-101913919D01*
X195069942Y-108936810D01*
X195034092Y-108960269D01*
X194918216Y-109073743D01*
X194826588Y-109207562D01*
X194762698Y-109356630D01*
X194728978Y-109515269D01*
X194726713Y-109677436D01*
X190277000Y-109677436D01*
X190277000Y-95671987D01*
X191410058Y-95671987D01*
X191502257Y-95848808D01*
X191722195Y-95948859D01*
X191957426Y-96004079D01*
X192198910Y-96012346D01*
X192437366Y-95973344D01*
X192663632Y-95888570D01*
X192738023Y-95848808D01*
X192830222Y-95671987D01*
X192120140Y-94961905D01*
X191410058Y-95671987D01*
X190277000Y-95671987D01*
X190277000Y-94861070D01*
X190890094Y-94861070D01*
X190929096Y-95099526D01*
X191013870Y-95325792D01*
X191053632Y-95400183D01*
X191230453Y-95492382D01*
X191940535Y-94782300D01*
X192299745Y-94782300D01*
X193009827Y-95492382D01*
X193186648Y-95400183D01*
X193286699Y-95180245D01*
X193341919Y-94945014D01*
X193350186Y-94703530D01*
X193311184Y-94465074D01*
X193226410Y-94238808D01*
X193186648Y-94164417D01*
X193009827Y-94072218D01*
X192299745Y-94782300D01*
X191940535Y-94782300D01*
X191230453Y-94072218D01*
X191053632Y-94164417D01*
X190953581Y-94384355D01*
X190898361Y-94619586D01*
X190890094Y-94861070D01*
X190277000Y-94861070D01*
X190277000Y-93271687D01*
X191011278Y-93271687D01*
X191103477Y-93448508D01*
X191323415Y-93548559D01*
X191558646Y-93603779D01*
X191751837Y-93610393D01*
X191576648Y-93676030D01*
X191502257Y-93715792D01*
X191410058Y-93892613D01*
X192120140Y-94602695D01*
X192830222Y-93892613D01*
X192738023Y-93715792D01*
X192518085Y-93615741D01*
X192282854Y-93560521D01*
X192089663Y-93553907D01*
X192264852Y-93488270D01*
X192339243Y-93448508D01*
X192431442Y-93271687D01*
X197409538Y-93271687D01*
X197501737Y-93448508D01*
X197721675Y-93548559D01*
X197956906Y-93603779D01*
X198198390Y-93612046D01*
X198436846Y-93573044D01*
X198663112Y-93488270D01*
X198737503Y-93448508D01*
X198829702Y-93271687D01*
X198119620Y-92561605D01*
X197409538Y-93271687D01*
X192431442Y-93271687D01*
X191721360Y-92561605D01*
X191011278Y-93271687D01*
X190277000Y-93271687D01*
X190277000Y-92460770D01*
X190491314Y-92460770D01*
X190530316Y-92699226D01*
X190615090Y-92925492D01*
X190654852Y-92999883D01*
X190831673Y-93092082D01*
X191541755Y-92382000D01*
X191900965Y-92382000D01*
X192611047Y-93092082D01*
X192787868Y-92999883D01*
X192887919Y-92779945D01*
X192943139Y-92544714D01*
X192946012Y-92460770D01*
X196889574Y-92460770D01*
X196928576Y-92699226D01*
X197013350Y-92925492D01*
X197053112Y-92999883D01*
X197229933Y-93092082D01*
X197940015Y-92382000D01*
X198299225Y-92382000D01*
X199009307Y-93092082D01*
X199186128Y-92999883D01*
X199286179Y-92779945D01*
X199341399Y-92544714D01*
X199349666Y-92303230D01*
X199330495Y-92186015D01*
X208075690Y-92186015D01*
X208166505Y-92361666D01*
X208384490Y-92460572D01*
X208617582Y-92515050D01*
X208856823Y-92523008D01*
X209093020Y-92484139D01*
X209317096Y-92399937D01*
X209388695Y-92361666D01*
X209479510Y-92186015D01*
X208777600Y-91484105D01*
X208075690Y-92186015D01*
X199330495Y-92186015D01*
X199310664Y-92064774D01*
X199225890Y-91838508D01*
X199186128Y-91764117D01*
X199009307Y-91671918D01*
X198299225Y-92382000D01*
X197940015Y-92382000D01*
X197229933Y-91671918D01*
X197053112Y-91764117D01*
X196953061Y-91984055D01*
X196897841Y-92219286D01*
X196889574Y-92460770D01*
X192946012Y-92460770D01*
X192951406Y-92303230D01*
X192912404Y-92064774D01*
X192827630Y-91838508D01*
X192787868Y-91764117D01*
X192611047Y-91671918D01*
X191900965Y-92382000D01*
X191541755Y-92382000D01*
X190831673Y-91671918D01*
X190654852Y-91764117D01*
X190554801Y-91984055D01*
X190499581Y-92219286D01*
X190491314Y-92460770D01*
X190277000Y-92460770D01*
X190277000Y-91492313D01*
X191011278Y-91492313D01*
X191721360Y-92202395D01*
X192431442Y-91492313D01*
X197409538Y-91492313D01*
X198119620Y-92202395D01*
X198829702Y-91492313D01*
X198773081Y-91383723D01*
X207559092Y-91383723D01*
X207597961Y-91619920D01*
X207682163Y-91843996D01*
X207720434Y-91915595D01*
X207896085Y-92006410D01*
X208597995Y-91304500D01*
X208957205Y-91304500D01*
X209659115Y-92006410D01*
X209834766Y-91915595D01*
X209933672Y-91697610D01*
X209988150Y-91464518D01*
X209996108Y-91225277D01*
X209957239Y-90989080D01*
X209873037Y-90765004D01*
X209834766Y-90693405D01*
X209659115Y-90602590D01*
X208957205Y-91304500D01*
X208597995Y-91304500D01*
X207896085Y-90602590D01*
X207720434Y-90693405D01*
X207621528Y-90911390D01*
X207567050Y-91144482D01*
X207559092Y-91383723D01*
X198773081Y-91383723D01*
X198737503Y-91315492D01*
X198517565Y-91215441D01*
X198282334Y-91160221D01*
X198040850Y-91151954D01*
X197802394Y-91190956D01*
X197576128Y-91275730D01*
X197501737Y-91315492D01*
X197409538Y-91492313D01*
X192431442Y-91492313D01*
X192339243Y-91315492D01*
X192119305Y-91215441D01*
X191884074Y-91160221D01*
X191642590Y-91151954D01*
X191404134Y-91190956D01*
X191177868Y-91275730D01*
X191103477Y-91315492D01*
X191011278Y-91492313D01*
X190277000Y-91492313D01*
X190277000Y-88877000D01*
X193478244Y-88877000D01*
X193317848Y-88981960D01*
X193317848Y-88981960D01*
G37*
X193317848Y-88981960D02*
X193138973Y-89157128D01*
X192997528Y-89363703D01*
X192898900Y-89593818D01*
X192846848Y-89838707D01*
X192843352Y-90089043D01*
X192888547Y-90335290D01*
X192980710Y-90568068D01*
X193116333Y-90778513D01*
X193290247Y-90958607D01*
X193495830Y-91101491D01*
X193725251Y-91201722D01*
X193969771Y-91255483D01*
X194220076Y-91260726D01*
X194466632Y-91217252D01*
X194700049Y-91126715D01*
X194911435Y-90992566D01*
X195092739Y-90819913D01*
X195237054Y-90615332D01*
X195322692Y-90422985D01*
X208075690Y-90422985D01*
X208777600Y-91124895D01*
X209436195Y-90466300D01*
X210050334Y-90466300D01*
X210050334Y-92142700D01*
X210055756Y-92210698D01*
X210091473Y-92326030D01*
X210157906Y-92426846D01*
X210249795Y-92505163D01*
X210359865Y-92554779D01*
X210479400Y-92571766D01*
X212155800Y-92571766D01*
X212223798Y-92566344D01*
X212339130Y-92530627D01*
X212439946Y-92464194D01*
X212518263Y-92372305D01*
X212567879Y-92262235D01*
X212584866Y-92142700D01*
X212584866Y-90466300D01*
X212579444Y-90398302D01*
X212543727Y-90282970D01*
X212477294Y-90182154D01*
X212385405Y-90103837D01*
X212275335Y-90054221D01*
X212155800Y-90037234D01*
X210479400Y-90037234D01*
X210411402Y-90042656D01*
X210296070Y-90078373D01*
X210195254Y-90144806D01*
X210116937Y-90236695D01*
X210067321Y-90346765D01*
X210050334Y-90466300D01*
X209436195Y-90466300D01*
X209479510Y-90422985D01*
X209388695Y-90247334D01*
X209170710Y-90148428D01*
X208937618Y-90093950D01*
X208698377Y-90085992D01*
X208462180Y-90124861D01*
X208238104Y-90209063D01*
X208166505Y-90247334D01*
X208075690Y-90422985D01*
X195322692Y-90422985D01*
X195338885Y-90386617D01*
X195394352Y-90142478D01*
X195398345Y-89856520D01*
X195349716Y-89610928D01*
X195254311Y-89379459D01*
X195115764Y-89170928D01*
X194939352Y-88993280D01*
X194766959Y-88877000D01*
X221155608Y-88877000D01*
X220979633Y-89049328D01*
X220838188Y-89255903D01*
X220739560Y-89486018D01*
X220687508Y-89730907D01*
X220684012Y-89981243D01*
X220693657Y-90033794D01*
X213419218Y-94495600D01*
X213336415Y-94439749D01*
X213114589Y-94346502D01*
X212878877Y-94298117D01*
X212638256Y-94296437D01*
X212401891Y-94341526D01*
X212178785Y-94431667D01*
X211977437Y-94563425D01*
X211805515Y-94731783D01*
X211669569Y-94930328D01*
X211574776Y-95151497D01*
X211524747Y-95386866D01*
X211521387Y-95627470D01*
X211564825Y-95864143D01*
X211653406Y-96087873D01*
X211783755Y-96290136D01*
X211950909Y-96463229D01*
X212148500Y-96600558D01*
X212369002Y-96696893D01*
X212604015Y-96748564D01*
X212844590Y-96753603D01*
X213081561Y-96711819D01*
X213305904Y-96624802D01*
X213509072Y-96495868D01*
X213632328Y-96378492D01*
X214575413Y-96378492D01*
X214661595Y-96550236D01*
X214873051Y-96645315D01*
X215098992Y-96697314D01*
X215330738Y-96704236D01*
X215559380Y-96665812D01*
X215776133Y-96583521D01*
X215838405Y-96550236D01*
X215924587Y-96378492D01*
X215250000Y-95703905D01*
X214575413Y-96378492D01*
X213632328Y-96378492D01*
X213683327Y-96329926D01*
X213822032Y-96133299D01*
X213919904Y-95913475D01*
X213973215Y-95678828D01*
X213977053Y-95403986D01*
X213974569Y-95391439D01*
X214088957Y-95321279D01*
X214076986Y-95373292D01*
X214070064Y-95605038D01*
X214108488Y-95833680D01*
X214190779Y-96050433D01*
X214224064Y-96112705D01*
X214395808Y-96198887D01*
X215070395Y-95524300D01*
X215429605Y-95524300D01*
X216104192Y-96198887D01*
X216275936Y-96112705D01*
X216371015Y-95901249D01*
X216423014Y-95675308D01*
X216429936Y-95443562D01*
X216391512Y-95214920D01*
X216309221Y-94998167D01*
X216275936Y-94935895D01*
X216104192Y-94849713D01*
X215429605Y-95524300D01*
X215070395Y-95524300D01*
X215056253Y-95510158D01*
X215235858Y-95330553D01*
X215250000Y-95344695D01*
X215812852Y-94781843D01*
X225682732Y-94781843D01*
X225727927Y-95028090D01*
X225820090Y-95260868D01*
X225955713Y-95471313D01*
X226129627Y-95651407D01*
X226335210Y-95794291D01*
X226564631Y-95894522D01*
X226809151Y-95948283D01*
X227059456Y-95953526D01*
X227306012Y-95910052D01*
X227539429Y-95819515D01*
X227750815Y-95685366D01*
X227932119Y-95512713D01*
X228076434Y-95308132D01*
X228178265Y-95079417D01*
X228233732Y-94835278D01*
X228237725Y-94549320D01*
X228189096Y-94303728D01*
X228093691Y-94072259D01*
X227955144Y-93863728D01*
X227778732Y-93686080D01*
X227571174Y-93546081D01*
X227340376Y-93449062D01*
X227095130Y-93398720D01*
X226844776Y-93396973D01*
X226598850Y-93443885D01*
X226366721Y-93537672D01*
X226157228Y-93674760D01*
X225978353Y-93849928D01*
X225836908Y-94056503D01*
X225738280Y-94286618D01*
X225686228Y-94531507D01*
X225682732Y-94781843D01*
X215812852Y-94781843D01*
X215924587Y-94670108D01*
X215838405Y-94498364D01*
X215626949Y-94403285D01*
X215596907Y-94396371D01*
X217606324Y-93163887D01*
X222252998Y-93163887D01*
X222345197Y-93340708D01*
X222565135Y-93440759D01*
X222800366Y-93495979D01*
X223041850Y-93504246D01*
X223280306Y-93465244D01*
X223506572Y-93380470D01*
X223580963Y-93340708D01*
X223673162Y-93163887D01*
X228651258Y-93163887D01*
X228743457Y-93340708D01*
X228963395Y-93440759D01*
X229198626Y-93495979D01*
X229440110Y-93504246D01*
X229678566Y-93465244D01*
X229904832Y-93380470D01*
X229979223Y-93340708D01*
X230071422Y-93163887D01*
X229361340Y-92453805D01*
X228651258Y-93163887D01*
X223673162Y-93163887D01*
X222963080Y-92453805D01*
X222252998Y-93163887D01*
X217606324Y-93163887D01*
X218928428Y-92352970D01*
X221733034Y-92352970D01*
X221772036Y-92591426D01*
X221856810Y-92817692D01*
X221896572Y-92892083D01*
X222073393Y-92984282D01*
X222783475Y-92274200D01*
X223142685Y-92274200D01*
X223852767Y-92984282D01*
X224029588Y-92892083D01*
X224129639Y-92672145D01*
X224184859Y-92436914D01*
X224187732Y-92352970D01*
X228131294Y-92352970D01*
X228170296Y-92591426D01*
X228255070Y-92817692D01*
X228294832Y-92892083D01*
X228471653Y-92984282D01*
X229181735Y-92274200D01*
X229540945Y-92274200D01*
X230251027Y-92984282D01*
X230427848Y-92892083D01*
X230527899Y-92672145D01*
X230583119Y-92436914D01*
X230591386Y-92195430D01*
X230552384Y-91956974D01*
X230467610Y-91730708D01*
X230427848Y-91656317D01*
X230251027Y-91564118D01*
X229540945Y-92274200D01*
X229181735Y-92274200D01*
X228471653Y-91564118D01*
X228294832Y-91656317D01*
X228194781Y-91876255D01*
X228139561Y-92111486D01*
X228131294Y-92352970D01*
X224187732Y-92352970D01*
X224193126Y-92195430D01*
X224154124Y-91956974D01*
X224069350Y-91730708D01*
X224029588Y-91656317D01*
X223852767Y-91564118D01*
X223142685Y-92274200D01*
X222783475Y-92274200D01*
X222073393Y-91564118D01*
X221896572Y-91656317D01*
X221796521Y-91876255D01*
X221741301Y-92111486D01*
X221733034Y-92352970D01*
X218928428Y-92352970D01*
X220507381Y-91384513D01*
X222252998Y-91384513D01*
X222963080Y-92094595D01*
X223673162Y-91384513D01*
X223580963Y-91207692D01*
X223361025Y-91107641D01*
X223125794Y-91052421D01*
X222884310Y-91044154D01*
X222645854Y-91083156D01*
X222419588Y-91167930D01*
X222345197Y-91207692D01*
X222252998Y-91384513D01*
X220507381Y-91384513D01*
X221246520Y-90931160D01*
X221336490Y-90993691D01*
X221565911Y-91093922D01*
X221810431Y-91147683D01*
X222060736Y-91152926D01*
X222307292Y-91109452D01*
X222540709Y-91018915D01*
X222752095Y-90884766D01*
X222879345Y-90763587D01*
X228252478Y-90763587D01*
X228344677Y-90940408D01*
X228564615Y-91040459D01*
X228799846Y-91095679D01*
X228993037Y-91102293D01*
X228817848Y-91167930D01*
X228743457Y-91207692D01*
X228651258Y-91384513D01*
X229361340Y-92094595D01*
X230071422Y-91384513D01*
X229979223Y-91207692D01*
X229759285Y-91107641D01*
X229524054Y-91052421D01*
X229330863Y-91045807D01*
X229506052Y-90980170D01*
X229580443Y-90940408D01*
X229672642Y-90763587D01*
X228962560Y-90053505D01*
X228252478Y-90763587D01*
X222879345Y-90763587D01*
X222933399Y-90712113D01*
X223077714Y-90507532D01*
X223179545Y-90278817D01*
X223235012Y-90034678D01*
X223236157Y-89952670D01*
X227732514Y-89952670D01*
X227771516Y-90191126D01*
X227856290Y-90417392D01*
X227896052Y-90491783D01*
X228072873Y-90583982D01*
X228782955Y-89873900D01*
X229142165Y-89873900D01*
X229852247Y-90583982D01*
X230029068Y-90491783D01*
X230129119Y-90271845D01*
X230184339Y-90036614D01*
X230192606Y-89795130D01*
X230153604Y-89556674D01*
X230068830Y-89330408D01*
X230029068Y-89256017D01*
X229852247Y-89163818D01*
X229142165Y-89873900D01*
X228782955Y-89873900D01*
X228072873Y-89163818D01*
X227896052Y-89256017D01*
X227796001Y-89475955D01*
X227740781Y-89711186D01*
X227732514Y-89952670D01*
X223236157Y-89952670D01*
X223239005Y-89748720D01*
X223190376Y-89503128D01*
X223094971Y-89271659D01*
X222956424Y-89063128D01*
X222780012Y-88885480D01*
X222767440Y-88877000D01*
X228308382Y-88877000D01*
X228252478Y-88984213D01*
X228962560Y-89694295D01*
X229672642Y-88984213D01*
X229616738Y-88877000D01*
X230723000Y-88877000D01*
X230723000Y-105923000D01*
X225600000Y-105923000D01*
X225555270Y-105927386D01*
X225510619Y-105931449D01*
X225509017Y-105931921D01*
X225507350Y-105932084D01*
X225464381Y-105945058D01*
X225421313Y-105957733D01*
X225419829Y-105958509D01*
X225418229Y-105958992D01*
X225378665Y-105980028D01*
X225338812Y-106000863D01*
X225337505Y-106001914D01*
X225336032Y-106002697D01*
X225301243Y-106031070D01*
X225266261Y-106059197D01*
X225265188Y-106060475D01*
X225263889Y-106061535D01*
X225235223Y-106096187D01*
X225206421Y-106130511D01*
X225205616Y-106131975D01*
X225204549Y-106133265D01*
X225183188Y-106172772D01*
X225161572Y-106212090D01*
X225161066Y-106213684D01*
X225160271Y-106215155D01*
X225146999Y-106258032D01*
X225133424Y-106300826D01*
X225133238Y-106302488D01*
X225132743Y-106304086D01*
X225128058Y-106348664D01*
X225123046Y-106393340D01*
X225123024Y-106396558D01*
X225123012Y-106396670D01*
X225123022Y-106396782D01*
X225123000Y-106400000D01*
X225123000Y-114200000D01*
X225127386Y-114244730D01*
X225131449Y-114289381D01*
X225131921Y-114290983D01*
X225132084Y-114292650D01*
X225145058Y-114335619D01*
X225157733Y-114378687D01*
X225158509Y-114380171D01*
X225158992Y-114381771D01*
X225180028Y-114421335D01*
X225200863Y-114461188D01*
X225201914Y-114462495D01*
X225202697Y-114463968D01*
X225231070Y-114498757D01*
X225259197Y-114533739D01*
X225260475Y-114534812D01*
X225261535Y-114536111D01*
X225296187Y-114564777D01*
X225330511Y-114593579D01*
X225331975Y-114594384D01*
X225333265Y-114595451D01*
X225372772Y-114616812D01*
X225412090Y-114638428D01*
X225413684Y-114638934D01*
X225415155Y-114639729D01*
X225458032Y-114653001D01*
X225500826Y-114666576D01*
X225502488Y-114666762D01*
X225504086Y-114667257D01*
X225548664Y-114671942D01*
X225593340Y-114676954D01*
X225596558Y-114676976D01*
X225596670Y-114676988D01*
X225596782Y-114676978D01*
X225600000Y-114677000D01*
X230723000Y-114677000D01*
X230723000Y-116523000D01*
X223806162Y-116523000D01*
X223823751Y-116498066D01*
X223889717Y-116349905D01*
X223925648Y-116191752D01*
X223928235Y-116006509D01*
X223896733Y-115847414D01*
X223834930Y-115697469D01*
X223745180Y-115562383D01*
X223630900Y-115447303D01*
X223496444Y-115356611D01*
X223386051Y-115310206D01*
X223209563Y-114809295D01*
X223222351Y-114791166D01*
X223288317Y-114643005D01*
X223324248Y-114484852D01*
X223326835Y-114299609D01*
X223295333Y-114140514D01*
X223233530Y-113990569D01*
X223143780Y-113855483D01*
X223029500Y-113740403D01*
X222895044Y-113649711D01*
X222745534Y-113586863D01*
X222586663Y-113554251D01*
X222424484Y-113553119D01*
X222265174Y-113583509D01*
X222114801Y-113644264D01*
X221979092Y-113733069D01*
X221863216Y-113846543D01*
X221771588Y-113980362D01*
X221707698Y-114129430D01*
X221673978Y-114288069D01*
X221671713Y-114450236D01*
X221700991Y-114609755D01*
X221760694Y-114760549D01*
X221848550Y-114896874D01*
X221961212Y-115013539D01*
X222094388Y-115106099D01*
X222215231Y-115158894D01*
X222391742Y-115659872D01*
X222372988Y-115687262D01*
X222309098Y-115836330D01*
X222275378Y-115994969D01*
X222273113Y-116157136D01*
X222302391Y-116316655D01*
X222362094Y-116467449D01*
X222397894Y-116523000D01*
X190277000Y-116523000D01*
X190277000Y-109677436D01*
X194726713Y-109677436D01*
X194755991Y-109836955D01*
X194815694Y-109987749D01*
X194903550Y-110124074D01*
X195016212Y-110240739D01*
X195149388Y-110333299D01*
X195298007Y-110398229D01*
X195456406Y-110433055D01*
X195618554Y-110436452D01*
X195778273Y-110408289D01*
X195929480Y-110349640D01*
X196066415Y-110262738D01*
X196183864Y-110150893D01*
X196277351Y-110018366D01*
X196343317Y-109870205D01*
X196379248Y-109712052D01*
X196381835Y-109526809D01*
X196350333Y-109367714D01*
X196288530Y-109217769D01*
X196198780Y-109082683D01*
X196121729Y-109005092D01*
X196389464Y-104849300D01*
X196527550Y-104849300D01*
X196621800Y-104755050D01*
X196621800Y-104293550D01*
X196771800Y-104293550D01*
X196771800Y-104509431D01*
X196786288Y-104582267D01*
X196814707Y-104650876D01*
X196855965Y-104712623D01*
X196875800Y-104732458D01*
X196875800Y-104755050D01*
X196970050Y-104849300D01*
X197327550Y-104849300D01*
X197421800Y-104755050D01*
X197421800Y-104732458D01*
X197441635Y-104712623D01*
X197482893Y-104650876D01*
X197511312Y-104582267D01*
X197525800Y-104509431D01*
X197525800Y-104293550D01*
X197431550Y-104199300D01*
X197675800Y-104199300D01*
X197675800Y-104755050D01*
X197770050Y-104849300D01*
X197985932Y-104849300D01*
X198058767Y-104834812D01*
X198127377Y-104806393D01*
X198189124Y-104765135D01*
X198241635Y-104712623D01*
X198282893Y-104650876D01*
X198311312Y-104582267D01*
X198325800Y-104509431D01*
X198325800Y-104293550D01*
X198231550Y-104199300D01*
X197675800Y-104199300D01*
X197431550Y-104199300D01*
X196866050Y-104199300D01*
X196771800Y-104293550D01*
X196621800Y-104293550D01*
X196621800Y-104199300D01*
X196601800Y-104199300D01*
X196601800Y-103975050D01*
X196621800Y-103955050D01*
X196621800Y-103493550D01*
X196771800Y-103493550D01*
X196771800Y-103851050D01*
X196866050Y-103945300D01*
X196875800Y-103945300D01*
X196875800Y-103955050D01*
X196970050Y-104049300D01*
X197327550Y-104049300D01*
X197421800Y-103955050D01*
X197421800Y-103945300D01*
X197431550Y-103945300D01*
X197525800Y-103851050D01*
X197525800Y-103493550D01*
X197431550Y-103399300D01*
X197421800Y-103399300D01*
X197421800Y-103389550D01*
X197675800Y-103389550D01*
X197675800Y-103955050D01*
X197770050Y-104049300D01*
X197985932Y-104049300D01*
X198058767Y-104034812D01*
X198127377Y-104006393D01*
X198189124Y-103965135D01*
X198208959Y-103945300D01*
X198231550Y-103945300D01*
X198325800Y-103851050D01*
X198325800Y-103493550D01*
X198231550Y-103399300D01*
X198208959Y-103399300D01*
X198189124Y-103379465D01*
X198127377Y-103338207D01*
X198058767Y-103309788D01*
X197985932Y-103295300D01*
X197770050Y-103295300D01*
X197675800Y-103389550D01*
X197421800Y-103389550D01*
X197327550Y-103295300D01*
X196970050Y-103295300D01*
X196875800Y-103389550D01*
X196875800Y-103399300D01*
X196866050Y-103399300D01*
X196771800Y-103493550D01*
X196621800Y-103493550D01*
X196621800Y-103389550D01*
X196601800Y-103369550D01*
X196601800Y-103175050D01*
X196621800Y-103155050D01*
X196621800Y-102693550D01*
X196771800Y-102693550D01*
X196771800Y-103051050D01*
X196866050Y-103145300D01*
X196875800Y-103145300D01*
X196875800Y-103155050D01*
X196970050Y-103249300D01*
X197327550Y-103249300D01*
X197421800Y-103155050D01*
X197421800Y-103145300D01*
X197431550Y-103145300D01*
X197525800Y-103051050D01*
X197525800Y-102693550D01*
X197431550Y-102599300D01*
X197421800Y-102599300D01*
X197421800Y-102589550D01*
X197675800Y-102589550D01*
X197675800Y-103155050D01*
X197770050Y-103249300D01*
X197985932Y-103249300D01*
X198058767Y-103234812D01*
X198127377Y-103206393D01*
X198189124Y-103165135D01*
X198208959Y-103145300D01*
X198231550Y-103145300D01*
X198325800Y-103051050D01*
X198325800Y-102711552D01*
X205520072Y-102711552D01*
X205598912Y-103141115D01*
X205759685Y-103547183D01*
X205996270Y-103914290D01*
X206299653Y-104228452D01*
X206658279Y-104477704D01*
X207058489Y-104652551D01*
X207485038Y-104746334D01*
X207921680Y-104755481D01*
X208351782Y-104679642D01*
X208758963Y-104521707D01*
X209127712Y-104287692D01*
X209443985Y-103986509D01*
X209695735Y-103629631D01*
X209873372Y-103230652D01*
X209970130Y-102804768D01*
X209971431Y-102711552D01*
X215520072Y-102711552D01*
X215598912Y-103141115D01*
X215759685Y-103547183D01*
X215996270Y-103914290D01*
X216299653Y-104228452D01*
X216658279Y-104477704D01*
X217058489Y-104652551D01*
X217485038Y-104746334D01*
X217921680Y-104755481D01*
X218351782Y-104679642D01*
X218758963Y-104521707D01*
X219127712Y-104287692D01*
X219443985Y-103986509D01*
X219695735Y-103629631D01*
X219873372Y-103230652D01*
X219970130Y-102804768D01*
X219977096Y-102305931D01*
X219892267Y-101877512D01*
X219725839Y-101473728D01*
X219484152Y-101109960D01*
X219176412Y-100800064D01*
X218814340Y-100555844D01*
X218411728Y-100386601D01*
X217983911Y-100298783D01*
X217547185Y-100295734D01*
X217118183Y-100377570D01*
X216713247Y-100541175D01*
X216347801Y-100780316D01*
X216035764Y-101085885D01*
X215789022Y-101446243D01*
X215616973Y-101847664D01*
X215526170Y-102274857D01*
X215520072Y-102711552D01*
X209971431Y-102711552D01*
X209977096Y-102305931D01*
X209892267Y-101877512D01*
X209725839Y-101473728D01*
X209484152Y-101109960D01*
X209176412Y-100800064D01*
X208814340Y-100555844D01*
X208411728Y-100386601D01*
X207983911Y-100298783D01*
X207547185Y-100295734D01*
X207118183Y-100377570D01*
X206713247Y-100541175D01*
X206347801Y-100780316D01*
X206035764Y-101085885D01*
X205789022Y-101446243D01*
X205616973Y-101847664D01*
X205526170Y-102274857D01*
X205520072Y-102711552D01*
X198325800Y-102711552D01*
X198325800Y-102693550D01*
X198231550Y-102599300D01*
X198208959Y-102599300D01*
X198189124Y-102579465D01*
X198127377Y-102538207D01*
X198058767Y-102509788D01*
X197985932Y-102495300D01*
X197770050Y-102495300D01*
X197675800Y-102589550D01*
X197421800Y-102589550D01*
X197327550Y-102495300D01*
X196970050Y-102495300D01*
X196875800Y-102589550D01*
X196875800Y-102599300D01*
X196866050Y-102599300D01*
X196771800Y-102693550D01*
X196621800Y-102693550D01*
X196621800Y-102589550D01*
X196601800Y-102569550D01*
X196601800Y-102345300D01*
X196621800Y-102345300D01*
X196621800Y-102035169D01*
X196771800Y-102035169D01*
X196771800Y-102251050D01*
X196866050Y-102345300D01*
X197431550Y-102345300D01*
X197525800Y-102251050D01*
X197525800Y-102035169D01*
X197511312Y-101962333D01*
X197482893Y-101893724D01*
X197441635Y-101831977D01*
X197421800Y-101812142D01*
X197421800Y-101789550D01*
X197675800Y-101789550D01*
X197675800Y-102345300D01*
X198231550Y-102345300D01*
X198325800Y-102251050D01*
X198325800Y-102035169D01*
X198311312Y-101962333D01*
X198282893Y-101893724D01*
X198241635Y-101831977D01*
X198189124Y-101779465D01*
X198127377Y-101738207D01*
X198058767Y-101709788D01*
X197985932Y-101695300D01*
X197770050Y-101695300D01*
X197675800Y-101789550D01*
X197421800Y-101789550D01*
X197327550Y-101695300D01*
X196970050Y-101695300D01*
X196875800Y-101789550D01*
X196875800Y-101812142D01*
X196855965Y-101831977D01*
X196814707Y-101893724D01*
X196786288Y-101962333D01*
X196771800Y-102035169D01*
X196621800Y-102035169D01*
X196621800Y-101947550D01*
X199146083Y-96059803D01*
X199218796Y-96061326D01*
X199465352Y-96017852D01*
X199698769Y-95927315D01*
X199910155Y-95793166D01*
X200084153Y-95627470D01*
X209021387Y-95627470D01*
X209064825Y-95864143D01*
X209153406Y-96087873D01*
X209283755Y-96290136D01*
X209450909Y-96463229D01*
X209648500Y-96600558D01*
X209869002Y-96696893D01*
X210104015Y-96748564D01*
X210344590Y-96753603D01*
X210581561Y-96711819D01*
X210805904Y-96624802D01*
X211009072Y-96495868D01*
X211183327Y-96329926D01*
X211322032Y-96133299D01*
X211419904Y-95913475D01*
X211473215Y-95678828D01*
X211477053Y-95403986D01*
X211430315Y-95167942D01*
X211338619Y-94945471D01*
X211205458Y-94745048D01*
X211035904Y-94574306D01*
X210836415Y-94439749D01*
X210614589Y-94346502D01*
X210378877Y-94298117D01*
X210138256Y-94296437D01*
X209901891Y-94341526D01*
X209678785Y-94431667D01*
X209477437Y-94563425D01*
X209305515Y-94731783D01*
X209169569Y-94930328D01*
X209074776Y-95151497D01*
X209024747Y-95386866D01*
X209021387Y-95627470D01*
X200084153Y-95627470D01*
X200091459Y-95620513D01*
X200235774Y-95415932D01*
X200337605Y-95187217D01*
X200393072Y-94943078D01*
X200397065Y-94657120D01*
X200348436Y-94411528D01*
X200253031Y-94180059D01*
X200114484Y-93971528D01*
X199938072Y-93793880D01*
X199730514Y-93653881D01*
X199499716Y-93556862D01*
X199254470Y-93506520D01*
X199004116Y-93504773D01*
X198758190Y-93551685D01*
X198526061Y-93645472D01*
X198316568Y-93782560D01*
X198137693Y-93957728D01*
X197996248Y-94164303D01*
X197897620Y-94394418D01*
X197845568Y-94639307D01*
X197842072Y-94889643D01*
X197887267Y-95135890D01*
X197979430Y-95368668D01*
X198115053Y-95579113D01*
X198177611Y-95643894D01*
X195563939Y-101740138D01*
X195553480Y-101773098D01*
X195540927Y-101805317D01*
X195537957Y-101822014D01*
X195532829Y-101838173D01*
X195528972Y-101872526D01*
X195522914Y-101906579D01*
X195522390Y-101913919D01*
X195069942Y-108936810D01*
X195034092Y-108960269D01*
X194918216Y-109073743D01*
X194826588Y-109207562D01*
X194762698Y-109356630D01*
X194728978Y-109515269D01*
X194726713Y-109677436D01*
X190277000Y-109677436D01*
X190277000Y-95671987D01*
X191410058Y-95671987D01*
X191502257Y-95848808D01*
X191722195Y-95948859D01*
X191957426Y-96004079D01*
X192198910Y-96012346D01*
X192437366Y-95973344D01*
X192663632Y-95888570D01*
X192738023Y-95848808D01*
X192830222Y-95671987D01*
X192120140Y-94961905D01*
X191410058Y-95671987D01*
X190277000Y-95671987D01*
X190277000Y-94861070D01*
X190890094Y-94861070D01*
X190929096Y-95099526D01*
X191013870Y-95325792D01*
X191053632Y-95400183D01*
X191230453Y-95492382D01*
X191940535Y-94782300D01*
X192299745Y-94782300D01*
X193009827Y-95492382D01*
X193186648Y-95400183D01*
X193286699Y-95180245D01*
X193341919Y-94945014D01*
X193350186Y-94703530D01*
X193311184Y-94465074D01*
X193226410Y-94238808D01*
X193186648Y-94164417D01*
X193009827Y-94072218D01*
X192299745Y-94782300D01*
X191940535Y-94782300D01*
X191230453Y-94072218D01*
X191053632Y-94164417D01*
X190953581Y-94384355D01*
X190898361Y-94619586D01*
X190890094Y-94861070D01*
X190277000Y-94861070D01*
X190277000Y-93271687D01*
X191011278Y-93271687D01*
X191103477Y-93448508D01*
X191323415Y-93548559D01*
X191558646Y-93603779D01*
X191751837Y-93610393D01*
X191576648Y-93676030D01*
X191502257Y-93715792D01*
X191410058Y-93892613D01*
X192120140Y-94602695D01*
X192830222Y-93892613D01*
X192738023Y-93715792D01*
X192518085Y-93615741D01*
X192282854Y-93560521D01*
X192089663Y-93553907D01*
X192264852Y-93488270D01*
X192339243Y-93448508D01*
X192431442Y-93271687D01*
X197409538Y-93271687D01*
X197501737Y-93448508D01*
X197721675Y-93548559D01*
X197956906Y-93603779D01*
X198198390Y-93612046D01*
X198436846Y-93573044D01*
X198663112Y-93488270D01*
X198737503Y-93448508D01*
X198829702Y-93271687D01*
X198119620Y-92561605D01*
X197409538Y-93271687D01*
X192431442Y-93271687D01*
X191721360Y-92561605D01*
X191011278Y-93271687D01*
X190277000Y-93271687D01*
X190277000Y-92460770D01*
X190491314Y-92460770D01*
X190530316Y-92699226D01*
X190615090Y-92925492D01*
X190654852Y-92999883D01*
X190831673Y-93092082D01*
X191541755Y-92382000D01*
X191900965Y-92382000D01*
X192611047Y-93092082D01*
X192787868Y-92999883D01*
X192887919Y-92779945D01*
X192943139Y-92544714D01*
X192946012Y-92460770D01*
X196889574Y-92460770D01*
X196928576Y-92699226D01*
X197013350Y-92925492D01*
X197053112Y-92999883D01*
X197229933Y-93092082D01*
X197940015Y-92382000D01*
X198299225Y-92382000D01*
X199009307Y-93092082D01*
X199186128Y-92999883D01*
X199286179Y-92779945D01*
X199341399Y-92544714D01*
X199349666Y-92303230D01*
X199330495Y-92186015D01*
X208075690Y-92186015D01*
X208166505Y-92361666D01*
X208384490Y-92460572D01*
X208617582Y-92515050D01*
X208856823Y-92523008D01*
X209093020Y-92484139D01*
X209317096Y-92399937D01*
X209388695Y-92361666D01*
X209479510Y-92186015D01*
X208777600Y-91484105D01*
X208075690Y-92186015D01*
X199330495Y-92186015D01*
X199310664Y-92064774D01*
X199225890Y-91838508D01*
X199186128Y-91764117D01*
X199009307Y-91671918D01*
X198299225Y-92382000D01*
X197940015Y-92382000D01*
X197229933Y-91671918D01*
X197053112Y-91764117D01*
X196953061Y-91984055D01*
X196897841Y-92219286D01*
X196889574Y-92460770D01*
X192946012Y-92460770D01*
X192951406Y-92303230D01*
X192912404Y-92064774D01*
X192827630Y-91838508D01*
X192787868Y-91764117D01*
X192611047Y-91671918D01*
X191900965Y-92382000D01*
X191541755Y-92382000D01*
X190831673Y-91671918D01*
X190654852Y-91764117D01*
X190554801Y-91984055D01*
X190499581Y-92219286D01*
X190491314Y-92460770D01*
X190277000Y-92460770D01*
X190277000Y-91492313D01*
X191011278Y-91492313D01*
X191721360Y-92202395D01*
X192431442Y-91492313D01*
X197409538Y-91492313D01*
X198119620Y-92202395D01*
X198829702Y-91492313D01*
X198773081Y-91383723D01*
X207559092Y-91383723D01*
X207597961Y-91619920D01*
X207682163Y-91843996D01*
X207720434Y-91915595D01*
X207896085Y-92006410D01*
X208597995Y-91304500D01*
X208957205Y-91304500D01*
X209659115Y-92006410D01*
X209834766Y-91915595D01*
X209933672Y-91697610D01*
X209988150Y-91464518D01*
X209996108Y-91225277D01*
X209957239Y-90989080D01*
X209873037Y-90765004D01*
X209834766Y-90693405D01*
X209659115Y-90602590D01*
X208957205Y-91304500D01*
X208597995Y-91304500D01*
X207896085Y-90602590D01*
X207720434Y-90693405D01*
X207621528Y-90911390D01*
X207567050Y-91144482D01*
X207559092Y-91383723D01*
X198773081Y-91383723D01*
X198737503Y-91315492D01*
X198517565Y-91215441D01*
X198282334Y-91160221D01*
X198040850Y-91151954D01*
X197802394Y-91190956D01*
X197576128Y-91275730D01*
X197501737Y-91315492D01*
X197409538Y-91492313D01*
X192431442Y-91492313D01*
X192339243Y-91315492D01*
X192119305Y-91215441D01*
X191884074Y-91160221D01*
X191642590Y-91151954D01*
X191404134Y-91190956D01*
X191177868Y-91275730D01*
X191103477Y-91315492D01*
X191011278Y-91492313D01*
X190277000Y-91492313D01*
X190277000Y-88877000D01*
X193478244Y-88877000D01*
X193317848Y-88981960D01*
M02*
