G04 #@! TF.FileFunction,Legend,Top*
%FSLAX46Y46*%
G04 Gerber Fmt 4.6, Leading zero omitted, Abs format (unit mm)*
G04 Created by KiCad (PCBNEW 4.0.0-rc1-stable) date 19.10.2015 17:54:31*
%MOMM*%
G01*
G04 APERTURE LIST*
%ADD10C,0.100000*%
%ADD11C,0.150000*%
%ADD12C,0.149860*%
%ADD13C,0.254000*%
G04 APERTURE END LIST*
D10*
D11*
X223735700Y-101916400D02*
X222935700Y-101916400D01*
X222935700Y-101916400D02*
X222935700Y-98916400D01*
X222935700Y-98916400D02*
X224535700Y-98916400D01*
X224535700Y-98916400D02*
X224535700Y-101916400D01*
X224535700Y-101916400D02*
X223735700Y-101916400D01*
X218751600Y-113050200D02*
X217951600Y-113050200D01*
X217951600Y-113050200D02*
X217951600Y-110050200D01*
X217951600Y-110050200D02*
X219551600Y-110050200D01*
X219551600Y-110050200D02*
X219551600Y-113050200D01*
X219551600Y-113050200D02*
X218751600Y-113050200D01*
X193403400Y-106314200D02*
X194203400Y-106314200D01*
X194203400Y-106314200D02*
X194203400Y-109314200D01*
X194203400Y-109314200D02*
X192603400Y-109314200D01*
X192603400Y-109314200D02*
X192603400Y-106314200D01*
X192603400Y-106314200D02*
X193403400Y-106314200D01*
X196765100Y-97222200D02*
X197565100Y-97222200D01*
X197565100Y-97222200D02*
X197565100Y-100222200D01*
X197565100Y-100222200D02*
X195965100Y-100222200D01*
X195965100Y-100222200D02*
X195965100Y-97222200D01*
X195965100Y-97222200D02*
X196765100Y-97222200D01*
X200506600Y-106294600D02*
X201306600Y-106294600D01*
X201306600Y-106294600D02*
X201306600Y-109294600D01*
X201306600Y-109294600D02*
X199706600Y-109294600D01*
X199706600Y-109294600D02*
X199706600Y-106294600D01*
X199706600Y-106294600D02*
X200506600Y-106294600D01*
X216751600Y-113050200D02*
X215951600Y-113050200D01*
X215951600Y-113050200D02*
X215951600Y-110050200D01*
X215951600Y-110050200D02*
X217551600Y-110050200D01*
X217551600Y-110050200D02*
X217551600Y-113050200D01*
X217551600Y-113050200D02*
X216751600Y-113050200D01*
X201835400Y-100712600D02*
X202635400Y-100712600D01*
X202635400Y-100712600D02*
X202635400Y-103712600D01*
X202635400Y-103712600D02*
X201035400Y-103712600D01*
X201035400Y-103712600D02*
X201035400Y-100712600D01*
X201035400Y-100712600D02*
X201835400Y-100712600D01*
X200418400Y-100228100D02*
X199618400Y-100228100D01*
X199618400Y-100228100D02*
X199618400Y-97228100D01*
X199618400Y-97228100D02*
X201218400Y-97228100D01*
X201218400Y-97228100D02*
X201218400Y-100228100D01*
X201218400Y-100228100D02*
X200418400Y-100228100D01*
X198594100Y-100221800D02*
X197794100Y-100221800D01*
X197794100Y-100221800D02*
X197794100Y-97221800D01*
X197794100Y-97221800D02*
X199394100Y-97221800D01*
X199394100Y-97221800D02*
X199394100Y-100221800D01*
X199394100Y-100221800D02*
X198594100Y-100221800D01*
X198648800Y-101772300D02*
X198648800Y-101372300D01*
X198648800Y-104772300D02*
X198648800Y-105172300D01*
X195648800Y-101772300D02*
X195648800Y-101372300D01*
X195648800Y-104772300D02*
X195648800Y-105172300D01*
X195048800Y-104772300D02*
X195048800Y-101772300D01*
X195048800Y-101772300D02*
X199248800Y-101772300D01*
X199248800Y-101772300D02*
X199248800Y-104772300D01*
X199248800Y-104772300D02*
X195048800Y-104772300D01*
X219351600Y-115150200D02*
X218051600Y-115150200D01*
X218051600Y-115150200D02*
X218051600Y-116250200D01*
X219351600Y-116250200D02*
X216151600Y-116250200D01*
X216151600Y-116250200D02*
X216151600Y-113850200D01*
X216151600Y-113850200D02*
X219351600Y-113850200D01*
X219351600Y-113850200D02*
X219351600Y-116250200D01*
X194981900Y-100233800D02*
X194181900Y-100233800D01*
X194181900Y-100233800D02*
X194181900Y-97233800D01*
X194181900Y-97233800D02*
X195781900Y-97233800D01*
X195781900Y-97233800D02*
X195781900Y-100233800D01*
X195781900Y-100233800D02*
X194981900Y-100233800D01*
X190631600Y-101897000D02*
X190631600Y-101097000D01*
X190631600Y-101097000D02*
X193631600Y-101097000D01*
X193631600Y-101097000D02*
X193631600Y-102697000D01*
X193631600Y-102697000D02*
X190631600Y-102697000D01*
X190631600Y-102697000D02*
X190631600Y-101897000D01*
X193621800Y-103657100D02*
X193621800Y-104457100D01*
X193621800Y-104457100D02*
X190621800Y-104457100D01*
X190621800Y-104457100D02*
X190621800Y-102857100D01*
X190621800Y-102857100D02*
X193621800Y-102857100D01*
X193621800Y-102857100D02*
X193621800Y-103657100D01*
X225677700Y-101914600D02*
X224877700Y-101914600D01*
X224877700Y-101914600D02*
X224877700Y-98914600D01*
X224877700Y-98914600D02*
X226477700Y-98914600D01*
X226477700Y-98914600D02*
X226477700Y-101914600D01*
X226477700Y-101914600D02*
X225677700Y-101914600D01*
X195191400Y-109307900D02*
X194391400Y-109307900D01*
X194391400Y-109307900D02*
X194391400Y-106307900D01*
X194391400Y-106307900D02*
X195991400Y-106307900D01*
X195991400Y-106307900D02*
X195991400Y-109307900D01*
X195991400Y-109307900D02*
X195191400Y-109307900D01*
X196950100Y-109300100D02*
X196150100Y-109300100D01*
X196150100Y-109300100D02*
X196150100Y-106300100D01*
X196150100Y-106300100D02*
X197750100Y-106300100D01*
X197750100Y-106300100D02*
X197750100Y-109300100D01*
X197750100Y-109300100D02*
X196950100Y-109300100D01*
X198719200Y-106300200D02*
X199519200Y-106300200D01*
X199519200Y-106300200D02*
X199519200Y-109300200D01*
X199519200Y-109300200D02*
X197919200Y-109300200D01*
X197919200Y-109300200D02*
X197919200Y-106300200D01*
X197919200Y-106300200D02*
X198719200Y-106300200D01*
X217750000Y-102524300D02*
X217750000Y-97024300D01*
X217750000Y-97024300D02*
X207750000Y-97024300D01*
X207750000Y-97024300D02*
X207750000Y-102524300D01*
X217750000Y-102524300D02*
X217750000Y-108024300D01*
X217750000Y-108024300D02*
X207750000Y-108024300D01*
X207750000Y-108024300D02*
X207750000Y-102524300D01*
X215750000Y-102524300D02*
G75*
G03X215750000Y-102524300I-3000000J0D01*
G01*
X215854400Y-90604400D02*
X216654400Y-90604400D01*
X216654400Y-90604400D02*
X216654400Y-93604400D01*
X216654400Y-93604400D02*
X215054400Y-93604400D01*
X215054400Y-93604400D02*
X215054400Y-90604400D01*
X215054400Y-90604400D02*
X215854400Y-90604400D01*
X231200800Y-114230700D02*
X231200800Y-116530700D01*
X231200800Y-116530700D02*
X223500800Y-116530700D01*
X223500800Y-116530700D02*
X221800800Y-114030700D01*
X221800800Y-114030700D02*
X221800800Y-106630700D01*
X221800800Y-106630700D02*
X223500800Y-104130700D01*
X223500800Y-104130700D02*
X231200800Y-104130700D01*
X231200800Y-104130700D02*
X231200800Y-106430700D01*
X231200800Y-114230700D02*
X225600800Y-114230700D01*
X225600800Y-114230700D02*
X225600800Y-106430700D01*
X225600800Y-106430700D02*
X231200800Y-106430700D01*
D12*
X189920500Y-95181080D02*
X189920500Y-95381740D01*
X189920500Y-95381740D02*
X201119360Y-95381740D01*
X201119360Y-95381740D02*
X201119360Y-89382260D01*
X201119360Y-89382260D02*
X189920500Y-89382260D01*
X189920500Y-89382260D02*
X189920500Y-89582920D01*
X189920500Y-95181080D02*
X187121420Y-95181080D01*
X187121420Y-95181080D02*
X187121420Y-89582920D01*
X187121420Y-89582920D02*
X189920500Y-89582920D01*
X189920500Y-89582920D02*
X189920500Y-95181080D01*
X231162200Y-89475120D02*
X231162200Y-89274460D01*
X231162200Y-89274460D02*
X219963340Y-89274460D01*
X219963340Y-89274460D02*
X219963340Y-95273940D01*
X219963340Y-95273940D02*
X231162200Y-95273940D01*
X231162200Y-95273940D02*
X231162200Y-95073280D01*
X231162200Y-89475120D02*
X233961280Y-89475120D01*
X233961280Y-89475120D02*
X233961280Y-95073280D01*
X233961280Y-95073280D02*
X231162200Y-95073280D01*
X231162200Y-95073280D02*
X231162200Y-89475120D01*
D13*
X211048360Y-89803360D02*
X209046840Y-89803360D01*
X209046840Y-89803360D02*
X208546460Y-90303740D01*
X211548740Y-90303740D02*
X211048360Y-89803360D01*
X208546460Y-92305260D02*
X209046840Y-92805640D01*
X209046840Y-92805640D02*
X211048360Y-92805640D01*
X211048360Y-92805640D02*
X211548740Y-92305260D01*
D11*
X224014286Y-100500000D02*
X224042857Y-100528571D01*
X224071429Y-100614285D01*
X224071429Y-100671428D01*
X224042857Y-100757143D01*
X223985714Y-100814285D01*
X223928571Y-100842857D01*
X223814286Y-100871428D01*
X223728571Y-100871428D01*
X223614286Y-100842857D01*
X223557143Y-100814285D01*
X223500000Y-100757143D01*
X223471429Y-100671428D01*
X223471429Y-100614285D01*
X223500000Y-100528571D01*
X223528571Y-100500000D01*
X224071429Y-99928571D02*
X224071429Y-100271428D01*
X224071429Y-100100000D02*
X223471429Y-100100000D01*
X223557143Y-100157143D01*
X223614286Y-100214285D01*
X223642857Y-100271428D01*
X222471429Y-100785714D02*
X222471429Y-101128571D01*
X222471429Y-100957143D02*
X221871429Y-100957143D01*
X221957143Y-101014286D01*
X222014286Y-101071428D01*
X222042857Y-101128571D01*
X221871429Y-100414285D02*
X221871429Y-100357142D01*
X221900000Y-100299999D01*
X221928571Y-100271428D01*
X221985714Y-100242857D01*
X222100000Y-100214285D01*
X222242857Y-100214285D01*
X222357143Y-100242857D01*
X222414286Y-100271428D01*
X222442857Y-100299999D01*
X222471429Y-100357142D01*
X222471429Y-100414285D01*
X222442857Y-100471428D01*
X222414286Y-100499999D01*
X222357143Y-100528571D01*
X222242857Y-100557142D01*
X222100000Y-100557142D01*
X221985714Y-100528571D01*
X221928571Y-100499999D01*
X221900000Y-100471428D01*
X221871429Y-100414285D01*
X222071429Y-99957142D02*
X222471429Y-99957142D01*
X222128571Y-99957142D02*
X222100000Y-99928570D01*
X222071429Y-99871428D01*
X222071429Y-99785713D01*
X222100000Y-99728570D01*
X222157143Y-99699999D01*
X222471429Y-99699999D01*
X218914286Y-111500000D02*
X218942857Y-111528571D01*
X218971429Y-111614285D01*
X218971429Y-111671428D01*
X218942857Y-111757143D01*
X218885714Y-111814285D01*
X218828571Y-111842857D01*
X218714286Y-111871428D01*
X218628571Y-111871428D01*
X218514286Y-111842857D01*
X218457143Y-111814285D01*
X218400000Y-111757143D01*
X218371429Y-111671428D01*
X218371429Y-111614285D01*
X218400000Y-111528571D01*
X218428571Y-111500000D01*
X218428571Y-111271428D02*
X218400000Y-111242857D01*
X218371429Y-111185714D01*
X218371429Y-111042857D01*
X218400000Y-110985714D01*
X218428571Y-110957143D01*
X218485714Y-110928571D01*
X218542857Y-110928571D01*
X218628571Y-110957143D01*
X218971429Y-111300000D01*
X218971429Y-110928571D01*
X218971429Y-109100000D02*
X218971429Y-109442857D01*
X218971429Y-109271429D02*
X218371429Y-109271429D01*
X218457143Y-109328572D01*
X218514286Y-109385714D01*
X218542857Y-109442857D01*
X218571429Y-108585714D02*
X218971429Y-108585714D01*
X218571429Y-108842857D02*
X218885714Y-108842857D01*
X218942857Y-108814285D01*
X218971429Y-108757143D01*
X218971429Y-108671428D01*
X218942857Y-108614285D01*
X218914286Y-108585714D01*
X193614286Y-108000000D02*
X193642857Y-108028571D01*
X193671429Y-108114285D01*
X193671429Y-108171428D01*
X193642857Y-108257143D01*
X193585714Y-108314285D01*
X193528571Y-108342857D01*
X193414286Y-108371428D01*
X193328571Y-108371428D01*
X193214286Y-108342857D01*
X193157143Y-108314285D01*
X193100000Y-108257143D01*
X193071429Y-108171428D01*
X193071429Y-108114285D01*
X193100000Y-108028571D01*
X193128571Y-108000000D01*
X193071429Y-107800000D02*
X193071429Y-107428571D01*
X193300000Y-107628571D01*
X193300000Y-107542857D01*
X193328571Y-107485714D01*
X193357143Y-107457143D01*
X193414286Y-107428571D01*
X193557143Y-107428571D01*
X193614286Y-107457143D01*
X193642857Y-107485714D01*
X193671429Y-107542857D01*
X193671429Y-107714285D01*
X193642857Y-107771428D01*
X193614286Y-107800000D01*
X192971429Y-112114286D02*
X192971429Y-112057143D01*
X193000000Y-112000000D01*
X193028571Y-111971429D01*
X193085714Y-111942858D01*
X193200000Y-111914286D01*
X193342857Y-111914286D01*
X193457143Y-111942858D01*
X193514286Y-111971429D01*
X193542857Y-112000000D01*
X193571429Y-112057143D01*
X193571429Y-112114286D01*
X193542857Y-112171429D01*
X193514286Y-112200000D01*
X193457143Y-112228572D01*
X193342857Y-112257143D01*
X193200000Y-112257143D01*
X193085714Y-112228572D01*
X193028571Y-112200000D01*
X193000000Y-112171429D01*
X192971429Y-112114286D01*
X193514286Y-111657143D02*
X193542857Y-111628571D01*
X193571429Y-111657143D01*
X193542857Y-111685714D01*
X193514286Y-111657143D01*
X193571429Y-111657143D01*
X193171429Y-111114286D02*
X193571429Y-111114286D01*
X192942857Y-111257143D02*
X193371429Y-111400000D01*
X193371429Y-111028572D01*
X192971429Y-110857143D02*
X192971429Y-110457143D01*
X193571429Y-110714286D01*
X193171429Y-109971428D02*
X193571429Y-109971428D01*
X193171429Y-110228571D02*
X193485714Y-110228571D01*
X193542857Y-110199999D01*
X193571429Y-110142857D01*
X193571429Y-110057142D01*
X193542857Y-109999999D01*
X193514286Y-109971428D01*
X197014286Y-98800000D02*
X197042857Y-98828571D01*
X197071429Y-98914285D01*
X197071429Y-98971428D01*
X197042857Y-99057143D01*
X196985714Y-99114285D01*
X196928571Y-99142857D01*
X196814286Y-99171428D01*
X196728571Y-99171428D01*
X196614286Y-99142857D01*
X196557143Y-99114285D01*
X196500000Y-99057143D01*
X196471429Y-98971428D01*
X196471429Y-98914285D01*
X196500000Y-98828571D01*
X196528571Y-98800000D01*
X196671429Y-98285714D02*
X197071429Y-98285714D01*
X196442857Y-98428571D02*
X196871429Y-98571428D01*
X196871429Y-98200000D01*
X195971429Y-96071429D02*
X196028572Y-96071429D01*
X196085715Y-96100000D01*
X196114286Y-96128571D01*
X196142857Y-96185714D01*
X196171429Y-96300000D01*
X196171429Y-96442857D01*
X196142857Y-96557143D01*
X196114286Y-96614286D01*
X196085715Y-96642857D01*
X196028572Y-96671429D01*
X195971429Y-96671429D01*
X195914286Y-96642857D01*
X195885715Y-96614286D01*
X195857143Y-96557143D01*
X195828572Y-96442857D01*
X195828572Y-96300000D01*
X195857143Y-96185714D01*
X195885715Y-96128571D01*
X195914286Y-96100000D01*
X195971429Y-96071429D01*
X196428572Y-96614286D02*
X196457144Y-96642857D01*
X196428572Y-96671429D01*
X196400001Y-96642857D01*
X196428572Y-96614286D01*
X196428572Y-96671429D01*
X197028572Y-96671429D02*
X196685715Y-96671429D01*
X196857143Y-96671429D02*
X196857143Y-96071429D01*
X196800000Y-96157143D01*
X196742858Y-96214286D01*
X196685715Y-96242857D01*
X197542858Y-96271429D02*
X197542858Y-96671429D01*
X197285715Y-96271429D02*
X197285715Y-96585714D01*
X197314287Y-96642857D01*
X197371429Y-96671429D01*
X197457144Y-96671429D01*
X197514287Y-96642857D01*
X197542858Y-96614286D01*
X200814286Y-107900000D02*
X200842857Y-107928571D01*
X200871429Y-108014285D01*
X200871429Y-108071428D01*
X200842857Y-108157143D01*
X200785714Y-108214285D01*
X200728571Y-108242857D01*
X200614286Y-108271428D01*
X200528571Y-108271428D01*
X200414286Y-108242857D01*
X200357143Y-108214285D01*
X200300000Y-108157143D01*
X200271429Y-108071428D01*
X200271429Y-108014285D01*
X200300000Y-107928571D01*
X200328571Y-107900000D01*
X200271429Y-107357143D02*
X200271429Y-107642857D01*
X200557143Y-107671428D01*
X200528571Y-107642857D01*
X200500000Y-107585714D01*
X200500000Y-107442857D01*
X200528571Y-107385714D01*
X200557143Y-107357143D01*
X200614286Y-107328571D01*
X200757143Y-107328571D01*
X200814286Y-107357143D01*
X200842857Y-107385714D01*
X200871429Y-107442857D01*
X200871429Y-107585714D01*
X200842857Y-107642857D01*
X200814286Y-107671428D01*
X200471429Y-111500000D02*
X200871429Y-111500000D01*
X200242857Y-111642857D02*
X200671429Y-111785714D01*
X200671429Y-111414286D01*
X200271429Y-111242857D02*
X200271429Y-110842857D01*
X200871429Y-111100000D01*
X200471429Y-110614285D02*
X200871429Y-110614285D01*
X200528571Y-110614285D02*
X200500000Y-110585713D01*
X200471429Y-110528571D01*
X200471429Y-110442856D01*
X200500000Y-110385713D01*
X200557143Y-110357142D01*
X200871429Y-110357142D01*
X200557143Y-109871428D02*
X200557143Y-110071428D01*
X200871429Y-110071428D02*
X200271429Y-110071428D01*
X200271429Y-109785714D01*
X217014286Y-111700000D02*
X217042857Y-111728571D01*
X217071429Y-111814285D01*
X217071429Y-111871428D01*
X217042857Y-111957143D01*
X216985714Y-112014285D01*
X216928571Y-112042857D01*
X216814286Y-112071428D01*
X216728571Y-112071428D01*
X216614286Y-112042857D01*
X216557143Y-112014285D01*
X216500000Y-111957143D01*
X216471429Y-111871428D01*
X216471429Y-111814285D01*
X216500000Y-111728571D01*
X216528571Y-111700000D01*
X216471429Y-111185714D02*
X216471429Y-111300000D01*
X216500000Y-111357143D01*
X216528571Y-111385714D01*
X216614286Y-111442857D01*
X216728571Y-111471428D01*
X216957143Y-111471428D01*
X217014286Y-111442857D01*
X217042857Y-111414285D01*
X217071429Y-111357143D01*
X217071429Y-111242857D01*
X217042857Y-111185714D01*
X217014286Y-111157143D01*
X216957143Y-111128571D01*
X216814286Y-111128571D01*
X216757143Y-111157143D01*
X216728571Y-111185714D01*
X216700000Y-111242857D01*
X216700000Y-111357143D01*
X216728571Y-111414285D01*
X216757143Y-111442857D01*
X216814286Y-111471428D01*
X214971429Y-112128571D02*
X214971429Y-112071428D01*
X215000000Y-112014285D01*
X215028571Y-111985714D01*
X215085714Y-111957143D01*
X215200000Y-111928571D01*
X215342857Y-111928571D01*
X215457143Y-111957143D01*
X215514286Y-111985714D01*
X215542857Y-112014285D01*
X215571429Y-112071428D01*
X215571429Y-112128571D01*
X215542857Y-112185714D01*
X215514286Y-112214285D01*
X215457143Y-112242857D01*
X215342857Y-112271428D01*
X215200000Y-112271428D01*
X215085714Y-112242857D01*
X215028571Y-112214285D01*
X215000000Y-112185714D01*
X214971429Y-112128571D01*
X215514286Y-111671428D02*
X215542857Y-111642856D01*
X215571429Y-111671428D01*
X215542857Y-111699999D01*
X215514286Y-111671428D01*
X215571429Y-111671428D01*
X215571429Y-111071428D02*
X215571429Y-111414285D01*
X215571429Y-111242857D02*
X214971429Y-111242857D01*
X215057143Y-111300000D01*
X215114286Y-111357142D01*
X215142857Y-111414285D01*
X215171429Y-110557142D02*
X215571429Y-110557142D01*
X215171429Y-110814285D02*
X215485714Y-110814285D01*
X215542857Y-110785713D01*
X215571429Y-110728571D01*
X215571429Y-110642856D01*
X215542857Y-110585713D01*
X215514286Y-110557142D01*
X202114286Y-102200000D02*
X202142857Y-102228571D01*
X202171429Y-102314285D01*
X202171429Y-102371428D01*
X202142857Y-102457143D01*
X202085714Y-102514285D01*
X202028571Y-102542857D01*
X201914286Y-102571428D01*
X201828571Y-102571428D01*
X201714286Y-102542857D01*
X201657143Y-102514285D01*
X201600000Y-102457143D01*
X201571429Y-102371428D01*
X201571429Y-102314285D01*
X201600000Y-102228571D01*
X201628571Y-102200000D01*
X201571429Y-102000000D02*
X201571429Y-101600000D01*
X202171429Y-101857143D01*
X203128571Y-103271428D02*
X203100000Y-103242857D01*
X203071429Y-103185714D01*
X203071429Y-103042857D01*
X203100000Y-102985714D01*
X203128571Y-102957143D01*
X203185714Y-102928571D01*
X203242857Y-102928571D01*
X203328571Y-102957143D01*
X203671429Y-103300000D01*
X203671429Y-102928571D01*
X203614286Y-102671428D02*
X203642857Y-102642856D01*
X203671429Y-102671428D01*
X203642857Y-102699999D01*
X203614286Y-102671428D01*
X203671429Y-102671428D01*
X203128571Y-102414285D02*
X203100000Y-102385714D01*
X203071429Y-102328571D01*
X203071429Y-102185714D01*
X203100000Y-102128571D01*
X203128571Y-102100000D01*
X203185714Y-102071428D01*
X203242857Y-102071428D01*
X203328571Y-102100000D01*
X203671429Y-102442857D01*
X203671429Y-102071428D01*
X203271429Y-101557142D02*
X203671429Y-101557142D01*
X203271429Y-101814285D02*
X203585714Y-101814285D01*
X203642857Y-101785713D01*
X203671429Y-101728571D01*
X203671429Y-101642856D01*
X203642857Y-101585713D01*
X203614286Y-101557142D01*
X200614286Y-98900000D02*
X200642857Y-98928571D01*
X200671429Y-99014285D01*
X200671429Y-99071428D01*
X200642857Y-99157143D01*
X200585714Y-99214285D01*
X200528571Y-99242857D01*
X200414286Y-99271428D01*
X200328571Y-99271428D01*
X200214286Y-99242857D01*
X200157143Y-99214285D01*
X200100000Y-99157143D01*
X200071429Y-99071428D01*
X200071429Y-99014285D01*
X200100000Y-98928571D01*
X200128571Y-98900000D01*
X200328571Y-98557143D02*
X200300000Y-98614285D01*
X200271429Y-98642857D01*
X200214286Y-98671428D01*
X200185714Y-98671428D01*
X200128571Y-98642857D01*
X200100000Y-98614285D01*
X200071429Y-98557143D01*
X200071429Y-98442857D01*
X200100000Y-98385714D01*
X200128571Y-98357143D01*
X200185714Y-98328571D01*
X200214286Y-98328571D01*
X200271429Y-98357143D01*
X200300000Y-98385714D01*
X200328571Y-98442857D01*
X200328571Y-98557143D01*
X200357143Y-98614285D01*
X200385714Y-98642857D01*
X200442857Y-98671428D01*
X200557143Y-98671428D01*
X200614286Y-98642857D01*
X200642857Y-98614285D01*
X200671429Y-98557143D01*
X200671429Y-98442857D01*
X200642857Y-98385714D01*
X200614286Y-98357143D01*
X200557143Y-98328571D01*
X200442857Y-98328571D01*
X200385714Y-98357143D01*
X200357143Y-98385714D01*
X200328571Y-98442857D01*
X200571429Y-96500000D02*
X200571429Y-96842857D01*
X200571429Y-96671429D02*
X199971429Y-96671429D01*
X200057143Y-96728572D01*
X200114286Y-96785714D01*
X200142857Y-96842857D01*
X200171429Y-95985714D02*
X200571429Y-95985714D01*
X200171429Y-96242857D02*
X200485714Y-96242857D01*
X200542857Y-96214285D01*
X200571429Y-96157143D01*
X200571429Y-96071428D01*
X200542857Y-96014285D01*
X200514286Y-95985714D01*
X198814286Y-98700000D02*
X198842857Y-98728571D01*
X198871429Y-98814285D01*
X198871429Y-98871428D01*
X198842857Y-98957143D01*
X198785714Y-99014285D01*
X198728571Y-99042857D01*
X198614286Y-99071428D01*
X198528571Y-99071428D01*
X198414286Y-99042857D01*
X198357143Y-99014285D01*
X198300000Y-98957143D01*
X198271429Y-98871428D01*
X198271429Y-98814285D01*
X198300000Y-98728571D01*
X198328571Y-98700000D01*
X198871429Y-98414285D02*
X198871429Y-98300000D01*
X198842857Y-98242857D01*
X198814286Y-98214285D01*
X198728571Y-98157143D01*
X198614286Y-98128571D01*
X198385714Y-98128571D01*
X198328571Y-98157143D01*
X198300000Y-98185714D01*
X198271429Y-98242857D01*
X198271429Y-98357143D01*
X198300000Y-98414285D01*
X198328571Y-98442857D01*
X198385714Y-98471428D01*
X198528571Y-98471428D01*
X198585714Y-98442857D01*
X198614286Y-98414285D01*
X198642857Y-98357143D01*
X198642857Y-98242857D01*
X198614286Y-98185714D01*
X198585714Y-98157143D01*
X198528571Y-98128571D01*
X198771429Y-96500000D02*
X198771429Y-96842857D01*
X198771429Y-96671429D02*
X198171429Y-96671429D01*
X198257143Y-96728572D01*
X198314286Y-96785714D01*
X198342857Y-96842857D01*
X198371429Y-95985714D02*
X198771429Y-95985714D01*
X198371429Y-96242857D02*
X198685714Y-96242857D01*
X198742857Y-96214285D01*
X198771429Y-96157143D01*
X198771429Y-96071428D01*
X198742857Y-96014285D01*
X198714286Y-95985714D01*
X200071429Y-104042857D02*
X199471429Y-104042857D01*
X199471429Y-103900000D01*
X199500000Y-103814285D01*
X199557143Y-103757143D01*
X199614286Y-103728571D01*
X199728571Y-103700000D01*
X199814286Y-103700000D01*
X199928571Y-103728571D01*
X199985714Y-103757143D01*
X200042857Y-103814285D01*
X200071429Y-103900000D01*
X200071429Y-104042857D01*
X200071429Y-103128571D02*
X200071429Y-103471428D01*
X200071429Y-103300000D02*
X199471429Y-103300000D01*
X199557143Y-103357143D01*
X199614286Y-103414285D01*
X199642857Y-103471428D01*
X194771429Y-105085715D02*
X194171429Y-105085715D01*
X194600000Y-104885715D01*
X194171429Y-104685715D01*
X194771429Y-104685715D01*
X194600000Y-104428572D02*
X194600000Y-104142858D01*
X194771429Y-104485715D02*
X194171429Y-104285715D01*
X194771429Y-104085715D01*
X194171429Y-103942858D02*
X194771429Y-103542858D01*
X194171429Y-103542858D02*
X194771429Y-103942858D01*
X194771429Y-103285714D02*
X194771429Y-103171429D01*
X194742857Y-103114286D01*
X194714286Y-103085714D01*
X194628571Y-103028572D01*
X194514286Y-103000000D01*
X194285714Y-103000000D01*
X194228571Y-103028572D01*
X194200000Y-103057143D01*
X194171429Y-103114286D01*
X194171429Y-103228572D01*
X194200000Y-103285714D01*
X194228571Y-103314286D01*
X194285714Y-103342857D01*
X194428571Y-103342857D01*
X194485714Y-103314286D01*
X194514286Y-103285714D01*
X194542857Y-103228572D01*
X194542857Y-103114286D01*
X194514286Y-103057143D01*
X194485714Y-103028572D01*
X194428571Y-103000000D01*
X194428571Y-102657143D02*
X194400000Y-102714285D01*
X194371429Y-102742857D01*
X194314286Y-102771428D01*
X194285714Y-102771428D01*
X194228571Y-102742857D01*
X194200000Y-102714285D01*
X194171429Y-102657143D01*
X194171429Y-102542857D01*
X194200000Y-102485714D01*
X194228571Y-102457143D01*
X194285714Y-102428571D01*
X194314286Y-102428571D01*
X194371429Y-102457143D01*
X194400000Y-102485714D01*
X194428571Y-102542857D01*
X194428571Y-102657143D01*
X194457143Y-102714285D01*
X194485714Y-102742857D01*
X194542857Y-102771428D01*
X194657143Y-102771428D01*
X194714286Y-102742857D01*
X194742857Y-102714285D01*
X194771429Y-102657143D01*
X194771429Y-102542857D01*
X194742857Y-102485714D01*
X194714286Y-102457143D01*
X194657143Y-102428571D01*
X194542857Y-102428571D01*
X194485714Y-102457143D01*
X194457143Y-102485714D01*
X194428571Y-102542857D01*
X194771429Y-101857142D02*
X194771429Y-102199999D01*
X194771429Y-102028571D02*
X194171429Y-102028571D01*
X194257143Y-102085714D01*
X194314286Y-102142856D01*
X194342857Y-102199999D01*
X194371429Y-101342856D02*
X194771429Y-101342856D01*
X194142857Y-101485713D02*
X194571429Y-101628570D01*
X194571429Y-101257142D01*
X198420229Y-105000871D02*
X198420229Y-105343728D01*
X198420229Y-105172300D02*
X197820229Y-105172300D01*
X197905943Y-105229443D01*
X197963086Y-105286585D01*
X197991657Y-105343728D01*
X219700000Y-115271429D02*
X219700000Y-114671429D01*
X219842857Y-114671429D01*
X219928572Y-114700000D01*
X219985714Y-114757143D01*
X220014286Y-114814286D01*
X220042857Y-114928571D01*
X220042857Y-115014286D01*
X220014286Y-115128571D01*
X219985714Y-115185714D01*
X219928572Y-115242857D01*
X219842857Y-115271429D01*
X219700000Y-115271429D01*
X220271429Y-115100000D02*
X220557143Y-115100000D01*
X220214286Y-115271429D02*
X220414286Y-114671429D01*
X220614286Y-115271429D01*
X221128572Y-115271429D02*
X220785715Y-115271429D01*
X220957143Y-115271429D02*
X220957143Y-114671429D01*
X220900000Y-114757143D01*
X220842858Y-114814286D01*
X220785715Y-114842857D01*
X210971428Y-115271429D02*
X210971428Y-114671429D01*
X211314285Y-115271429D01*
X211314285Y-114671429D01*
X211942856Y-115214286D02*
X211914285Y-115242857D01*
X211828571Y-115271429D01*
X211771428Y-115271429D01*
X211685713Y-115242857D01*
X211628571Y-115185714D01*
X211599999Y-115128571D01*
X211571428Y-115014286D01*
X211571428Y-114928571D01*
X211599999Y-114814286D01*
X211628571Y-114757143D01*
X211685713Y-114700000D01*
X211771428Y-114671429D01*
X211828571Y-114671429D01*
X211914285Y-114700000D01*
X211942856Y-114728571D01*
X212199999Y-115271429D02*
X212199999Y-114671429D01*
X212428571Y-114671429D01*
X212485713Y-114700000D01*
X212514285Y-114728571D01*
X212542856Y-114785714D01*
X212542856Y-114871429D01*
X212514285Y-114928571D01*
X212485713Y-114957143D01*
X212428571Y-114985714D01*
X212199999Y-114985714D01*
X213057142Y-114671429D02*
X212942856Y-114671429D01*
X212885713Y-114700000D01*
X212857142Y-114728571D01*
X212799999Y-114814286D01*
X212771428Y-114928571D01*
X212771428Y-115157143D01*
X212799999Y-115214286D01*
X212828571Y-115242857D01*
X212885713Y-115271429D01*
X212999999Y-115271429D01*
X213057142Y-115242857D01*
X213085713Y-115214286D01*
X213114285Y-115157143D01*
X213114285Y-115014286D01*
X213085713Y-114957143D01*
X213057142Y-114928571D01*
X212999999Y-114900000D01*
X212885713Y-114900000D01*
X212828571Y-114928571D01*
X212799999Y-114957143D01*
X212771428Y-115014286D01*
X213628571Y-114671429D02*
X213514285Y-114671429D01*
X213457142Y-114700000D01*
X213428571Y-114728571D01*
X213371428Y-114814286D01*
X213342857Y-114928571D01*
X213342857Y-115157143D01*
X213371428Y-115214286D01*
X213400000Y-115242857D01*
X213457142Y-115271429D01*
X213571428Y-115271429D01*
X213628571Y-115242857D01*
X213657142Y-115214286D01*
X213685714Y-115157143D01*
X213685714Y-115014286D01*
X213657142Y-114957143D01*
X213628571Y-114928571D01*
X213571428Y-114900000D01*
X213457142Y-114900000D01*
X213400000Y-114928571D01*
X213371428Y-114957143D01*
X213342857Y-115014286D01*
X213914286Y-114728571D02*
X213942857Y-114700000D01*
X214000000Y-114671429D01*
X214142857Y-114671429D01*
X214200000Y-114700000D01*
X214228571Y-114728571D01*
X214257143Y-114785714D01*
X214257143Y-114842857D01*
X214228571Y-114928571D01*
X213885714Y-115271429D01*
X214257143Y-115271429D01*
X214485715Y-115242857D02*
X214571429Y-115271429D01*
X214714286Y-115271429D01*
X214771429Y-115242857D01*
X214800000Y-115214286D01*
X214828572Y-115157143D01*
X214828572Y-115100000D01*
X214800000Y-115042857D01*
X214771429Y-115014286D01*
X214714286Y-114985714D01*
X214600000Y-114957143D01*
X214542858Y-114928571D01*
X214514286Y-114900000D01*
X214485715Y-114842857D01*
X214485715Y-114785714D01*
X214514286Y-114728571D01*
X214542858Y-114700000D01*
X214600000Y-114671429D01*
X214742858Y-114671429D01*
X214828572Y-114700000D01*
X215485715Y-115328571D02*
X215428572Y-115300000D01*
X215371429Y-115242857D01*
X215285715Y-115157143D01*
X215228572Y-115128571D01*
X215171429Y-115128571D01*
X215200001Y-115271429D02*
X215142858Y-115242857D01*
X215085715Y-115185714D01*
X215057144Y-115071429D01*
X215057144Y-114871429D01*
X215085715Y-114757143D01*
X215142858Y-114700000D01*
X215200001Y-114671429D01*
X215314287Y-114671429D01*
X215371429Y-114700000D01*
X215428572Y-114757143D01*
X215457144Y-114871429D01*
X215457144Y-115071429D01*
X215428572Y-115185714D01*
X215371429Y-115242857D01*
X215314287Y-115271429D01*
X215200001Y-115271429D01*
X219923029Y-116121629D02*
X219580172Y-116121629D01*
X219751600Y-116121629D02*
X219751600Y-115521629D01*
X219694457Y-115607343D01*
X219637315Y-115664486D01*
X219580172Y-115693057D01*
X193357143Y-98800000D02*
X193357143Y-99000000D01*
X193671429Y-99000000D02*
X193071429Y-99000000D01*
X193071429Y-98714286D01*
X193671429Y-98171428D02*
X193671429Y-98514285D01*
X193671429Y-98342857D02*
X193071429Y-98342857D01*
X193157143Y-98400000D01*
X193214286Y-98457142D01*
X193242857Y-98514285D01*
X195057143Y-99871429D02*
X195057143Y-100071429D01*
X195371429Y-100071429D02*
X194771429Y-100071429D01*
X194771429Y-99785715D01*
X194971429Y-99300000D02*
X195371429Y-99300000D01*
X194971429Y-99557143D02*
X195285714Y-99557143D01*
X195342857Y-99528571D01*
X195371429Y-99471429D01*
X195371429Y-99385714D01*
X195342857Y-99328571D01*
X195314286Y-99300000D01*
X195342857Y-99042857D02*
X195371429Y-98985714D01*
X195371429Y-98871429D01*
X195342857Y-98814286D01*
X195285714Y-98785714D01*
X195257143Y-98785714D01*
X195200000Y-98814286D01*
X195171429Y-98871429D01*
X195171429Y-98957143D01*
X195142857Y-99014286D01*
X195085714Y-99042857D01*
X195057143Y-99042857D01*
X195000000Y-99014286D01*
X194971429Y-98957143D01*
X194971429Y-98871429D01*
X195000000Y-98814286D01*
X195342857Y-98300000D02*
X195371429Y-98357143D01*
X195371429Y-98471429D01*
X195342857Y-98528572D01*
X195285714Y-98557143D01*
X195057143Y-98557143D01*
X195000000Y-98528572D01*
X194971429Y-98471429D01*
X194971429Y-98357143D01*
X195000000Y-98300000D01*
X195057143Y-98271429D01*
X195114286Y-98271429D01*
X195171429Y-98557143D01*
X194771429Y-97900000D02*
X194771429Y-97842857D01*
X194800000Y-97785714D01*
X194828571Y-97757143D01*
X194885714Y-97728572D01*
X195000000Y-97700000D01*
X195142857Y-97700000D01*
X195257143Y-97728572D01*
X195314286Y-97757143D01*
X195342857Y-97785714D01*
X195371429Y-97842857D01*
X195371429Y-97900000D01*
X195342857Y-97957143D01*
X195314286Y-97985714D01*
X195257143Y-98014286D01*
X195142857Y-98042857D01*
X195000000Y-98042857D01*
X194885714Y-98014286D01*
X194828571Y-97985714D01*
X194800000Y-97957143D01*
X194771429Y-97900000D01*
X195371429Y-97100000D02*
X195085714Y-97300000D01*
X195371429Y-97442857D02*
X194771429Y-97442857D01*
X194771429Y-97214285D01*
X194800000Y-97157143D01*
X194828571Y-97128571D01*
X194885714Y-97100000D01*
X194971429Y-97100000D01*
X195028571Y-97128571D01*
X195057143Y-97157143D01*
X195085714Y-97214285D01*
X195085714Y-97442857D01*
X191868100Y-100584143D02*
X191668100Y-100584143D01*
X191668100Y-100898429D02*
X191668100Y-100298429D01*
X191953814Y-100298429D01*
X192153815Y-100355571D02*
X192182386Y-100327000D01*
X192239529Y-100298429D01*
X192382386Y-100298429D01*
X192439529Y-100327000D01*
X192468100Y-100355571D01*
X192496672Y-100412714D01*
X192496672Y-100469857D01*
X192468100Y-100555571D01*
X192125243Y-100898429D01*
X192496672Y-100898429D01*
X190728571Y-103557143D02*
X190528571Y-103557143D01*
X190528571Y-103871429D02*
X190528571Y-103271429D01*
X190814285Y-103271429D01*
X191300000Y-103471429D02*
X191300000Y-103871429D01*
X191042857Y-103471429D02*
X191042857Y-103785714D01*
X191071429Y-103842857D01*
X191128571Y-103871429D01*
X191214286Y-103871429D01*
X191271429Y-103842857D01*
X191300000Y-103814286D01*
X191557143Y-103842857D02*
X191614286Y-103871429D01*
X191728571Y-103871429D01*
X191785714Y-103842857D01*
X191814286Y-103785714D01*
X191814286Y-103757143D01*
X191785714Y-103700000D01*
X191728571Y-103671429D01*
X191642857Y-103671429D01*
X191585714Y-103642857D01*
X191557143Y-103585714D01*
X191557143Y-103557143D01*
X191585714Y-103500000D01*
X191642857Y-103471429D01*
X191728571Y-103471429D01*
X191785714Y-103500000D01*
X192300000Y-103842857D02*
X192242857Y-103871429D01*
X192128571Y-103871429D01*
X192071428Y-103842857D01*
X192042857Y-103785714D01*
X192042857Y-103557143D01*
X192071428Y-103500000D01*
X192128571Y-103471429D01*
X192242857Y-103471429D01*
X192300000Y-103500000D01*
X192328571Y-103557143D01*
X192328571Y-103614286D01*
X192042857Y-103671429D01*
X192700000Y-103271429D02*
X192757143Y-103271429D01*
X192814286Y-103300000D01*
X192842857Y-103328571D01*
X192871428Y-103385714D01*
X192900000Y-103500000D01*
X192900000Y-103642857D01*
X192871428Y-103757143D01*
X192842857Y-103814286D01*
X192814286Y-103842857D01*
X192757143Y-103871429D01*
X192700000Y-103871429D01*
X192642857Y-103842857D01*
X192614286Y-103814286D01*
X192585714Y-103757143D01*
X192557143Y-103642857D01*
X192557143Y-103500000D01*
X192585714Y-103385714D01*
X192614286Y-103328571D01*
X192642857Y-103300000D01*
X192700000Y-103271429D01*
X193500000Y-103871429D02*
X193300000Y-103585714D01*
X193157143Y-103871429D02*
X193157143Y-103271429D01*
X193385715Y-103271429D01*
X193442857Y-103300000D01*
X193471429Y-103328571D01*
X193500000Y-103385714D01*
X193500000Y-103471429D01*
X193471429Y-103528571D01*
X193442857Y-103557143D01*
X193385715Y-103585714D01*
X193157143Y-103585714D01*
X191985300Y-104884243D02*
X191785300Y-104884243D01*
X191785300Y-105198529D02*
X191785300Y-104598529D01*
X192071014Y-104598529D01*
X192242443Y-104598529D02*
X192613872Y-104598529D01*
X192413872Y-104827100D01*
X192499586Y-104827100D01*
X192556729Y-104855671D01*
X192585300Y-104884243D01*
X192613872Y-104941386D01*
X192613872Y-105084243D01*
X192585300Y-105141386D01*
X192556729Y-105169957D01*
X192499586Y-105198529D01*
X192328158Y-105198529D01*
X192271015Y-105169957D01*
X192242443Y-105141386D01*
X190828571Y-101857143D02*
X190628571Y-101857143D01*
X190628571Y-102171429D02*
X190628571Y-101571429D01*
X190914285Y-101571429D01*
X191400000Y-101771429D02*
X191400000Y-102171429D01*
X191142857Y-101771429D02*
X191142857Y-102085714D01*
X191171429Y-102142857D01*
X191228571Y-102171429D01*
X191314286Y-102171429D01*
X191371429Y-102142857D01*
X191400000Y-102114286D01*
X191657143Y-102142857D02*
X191714286Y-102171429D01*
X191828571Y-102171429D01*
X191885714Y-102142857D01*
X191914286Y-102085714D01*
X191914286Y-102057143D01*
X191885714Y-102000000D01*
X191828571Y-101971429D01*
X191742857Y-101971429D01*
X191685714Y-101942857D01*
X191657143Y-101885714D01*
X191657143Y-101857143D01*
X191685714Y-101800000D01*
X191742857Y-101771429D01*
X191828571Y-101771429D01*
X191885714Y-101800000D01*
X192400000Y-102142857D02*
X192342857Y-102171429D01*
X192228571Y-102171429D01*
X192171428Y-102142857D01*
X192142857Y-102085714D01*
X192142857Y-101857143D01*
X192171428Y-101800000D01*
X192228571Y-101771429D01*
X192342857Y-101771429D01*
X192400000Y-101800000D01*
X192428571Y-101857143D01*
X192428571Y-101914286D01*
X192142857Y-101971429D01*
X192800000Y-101571429D02*
X192857143Y-101571429D01*
X192914286Y-101600000D01*
X192942857Y-101628571D01*
X192971428Y-101685714D01*
X193000000Y-101800000D01*
X193000000Y-101942857D01*
X192971428Y-102057143D01*
X192942857Y-102114286D01*
X192914286Y-102142857D01*
X192857143Y-102171429D01*
X192800000Y-102171429D01*
X192742857Y-102142857D01*
X192714286Y-102114286D01*
X192685714Y-102057143D01*
X192657143Y-101942857D01*
X192657143Y-101800000D01*
X192685714Y-101685714D01*
X192714286Y-101628571D01*
X192742857Y-101600000D01*
X192800000Y-101571429D01*
X193600000Y-102171429D02*
X193400000Y-101885714D01*
X193257143Y-102171429D02*
X193257143Y-101571429D01*
X193485715Y-101571429D01*
X193542857Y-101600000D01*
X193571429Y-101628571D01*
X193600000Y-101685714D01*
X193600000Y-101771429D01*
X193571429Y-101828571D01*
X193542857Y-101857143D01*
X193485715Y-101885714D01*
X193257143Y-101885714D01*
X225971429Y-100500000D02*
X225685714Y-100700000D01*
X225971429Y-100842857D02*
X225371429Y-100842857D01*
X225371429Y-100614285D01*
X225400000Y-100557143D01*
X225428571Y-100528571D01*
X225485714Y-100500000D01*
X225571429Y-100500000D01*
X225628571Y-100528571D01*
X225657143Y-100557143D01*
X225685714Y-100614285D01*
X225685714Y-100842857D01*
X225971429Y-99928571D02*
X225971429Y-100271428D01*
X225971429Y-100100000D02*
X225371429Y-100100000D01*
X225457143Y-100157143D01*
X225514286Y-100214285D01*
X225542857Y-100271428D01*
X227348669Y-100486968D02*
X227348669Y-100829825D01*
X227348669Y-100658397D02*
X226748669Y-100658397D01*
X226834383Y-100715540D01*
X226891526Y-100772682D01*
X226920097Y-100829825D01*
X227348669Y-100229825D02*
X226748669Y-100229825D01*
X227177240Y-100029825D01*
X226748669Y-99829825D01*
X227348669Y-99829825D01*
X195371429Y-107900000D02*
X195085714Y-108100000D01*
X195371429Y-108242857D02*
X194771429Y-108242857D01*
X194771429Y-108014285D01*
X194800000Y-107957143D01*
X194828571Y-107928571D01*
X194885714Y-107900000D01*
X194971429Y-107900000D01*
X195028571Y-107928571D01*
X195057143Y-107957143D01*
X195085714Y-108014285D01*
X195085714Y-108242857D01*
X194828571Y-107671428D02*
X194800000Y-107642857D01*
X194771429Y-107585714D01*
X194771429Y-107442857D01*
X194800000Y-107385714D01*
X194828571Y-107357143D01*
X194885714Y-107328571D01*
X194942857Y-107328571D01*
X195028571Y-107357143D01*
X195371429Y-107700000D01*
X195371429Y-107328571D01*
X194828571Y-110814285D02*
X194800000Y-110785714D01*
X194771429Y-110728571D01*
X194771429Y-110585714D01*
X194800000Y-110528571D01*
X194828571Y-110500000D01*
X194885714Y-110471428D01*
X194942857Y-110471428D01*
X195028571Y-110500000D01*
X195371429Y-110842857D01*
X195371429Y-110471428D01*
X195371429Y-110214285D02*
X194771429Y-110214285D01*
X195142857Y-110157142D02*
X195371429Y-109985713D01*
X194971429Y-109985713D02*
X195200000Y-110214285D01*
X197171429Y-107900000D02*
X196885714Y-108100000D01*
X197171429Y-108242857D02*
X196571429Y-108242857D01*
X196571429Y-108014285D01*
X196600000Y-107957143D01*
X196628571Y-107928571D01*
X196685714Y-107900000D01*
X196771429Y-107900000D01*
X196828571Y-107928571D01*
X196857143Y-107957143D01*
X196885714Y-108014285D01*
X196885714Y-108242857D01*
X196571429Y-107700000D02*
X196571429Y-107328571D01*
X196800000Y-107528571D01*
X196800000Y-107442857D01*
X196828571Y-107385714D01*
X196857143Y-107357143D01*
X196914286Y-107328571D01*
X197057143Y-107328571D01*
X197114286Y-107357143D01*
X197142857Y-107385714D01*
X197171429Y-107442857D01*
X197171429Y-107614285D01*
X197142857Y-107671428D01*
X197114286Y-107700000D01*
X197071429Y-111542857D02*
X197071429Y-111885714D01*
X197071429Y-111714286D02*
X196471429Y-111714286D01*
X196557143Y-111771429D01*
X196614286Y-111828571D01*
X196642857Y-111885714D01*
X196471429Y-111000000D02*
X196471429Y-111285714D01*
X196757143Y-111314285D01*
X196728571Y-111285714D01*
X196700000Y-111228571D01*
X196700000Y-111085714D01*
X196728571Y-111028571D01*
X196757143Y-111000000D01*
X196814286Y-110971428D01*
X196957143Y-110971428D01*
X197014286Y-111000000D01*
X197042857Y-111028571D01*
X197071429Y-111085714D01*
X197071429Y-111228571D01*
X197042857Y-111285714D01*
X197014286Y-111314285D01*
X196471429Y-110599999D02*
X196471429Y-110542856D01*
X196500000Y-110485713D01*
X196528571Y-110457142D01*
X196585714Y-110428571D01*
X196700000Y-110399999D01*
X196842857Y-110399999D01*
X196957143Y-110428571D01*
X197014286Y-110457142D01*
X197042857Y-110485713D01*
X197071429Y-110542856D01*
X197071429Y-110599999D01*
X197042857Y-110657142D01*
X197014286Y-110685713D01*
X196957143Y-110714285D01*
X196842857Y-110742856D01*
X196700000Y-110742856D01*
X196585714Y-110714285D01*
X196528571Y-110685713D01*
X196500000Y-110657142D01*
X196471429Y-110599999D01*
X197071429Y-110142856D02*
X196471429Y-110142856D01*
X196842857Y-110085713D02*
X197071429Y-109914284D01*
X196671429Y-109914284D02*
X196900000Y-110142856D01*
X198971429Y-107800000D02*
X198685714Y-108000000D01*
X198971429Y-108142857D02*
X198371429Y-108142857D01*
X198371429Y-107914285D01*
X198400000Y-107857143D01*
X198428571Y-107828571D01*
X198485714Y-107800000D01*
X198571429Y-107800000D01*
X198628571Y-107828571D01*
X198657143Y-107857143D01*
X198685714Y-107914285D01*
X198685714Y-108142857D01*
X198571429Y-107285714D02*
X198971429Y-107285714D01*
X198342857Y-107428571D02*
X198771429Y-107571428D01*
X198771429Y-107200000D01*
X198971429Y-111442857D02*
X198971429Y-111785714D01*
X198971429Y-111614286D02*
X198371429Y-111614286D01*
X198457143Y-111671429D01*
X198514286Y-111728571D01*
X198542857Y-111785714D01*
X198371429Y-111071428D02*
X198371429Y-111014285D01*
X198400000Y-110957142D01*
X198428571Y-110928571D01*
X198485714Y-110900000D01*
X198600000Y-110871428D01*
X198742857Y-110871428D01*
X198857143Y-110900000D01*
X198914286Y-110928571D01*
X198942857Y-110957142D01*
X198971429Y-111014285D01*
X198971429Y-111071428D01*
X198942857Y-111128571D01*
X198914286Y-111157142D01*
X198857143Y-111185714D01*
X198742857Y-111214285D01*
X198600000Y-111214285D01*
X198485714Y-111185714D01*
X198428571Y-111157142D01*
X198400000Y-111128571D01*
X198371429Y-111071428D01*
X198371429Y-110499999D02*
X198371429Y-110442856D01*
X198400000Y-110385713D01*
X198428571Y-110357142D01*
X198485714Y-110328571D01*
X198600000Y-110299999D01*
X198742857Y-110299999D01*
X198857143Y-110328571D01*
X198914286Y-110357142D01*
X198942857Y-110385713D01*
X198971429Y-110442856D01*
X198971429Y-110499999D01*
X198942857Y-110557142D01*
X198914286Y-110585713D01*
X198857143Y-110614285D01*
X198742857Y-110642856D01*
X198600000Y-110642856D01*
X198485714Y-110614285D01*
X198428571Y-110585713D01*
X198400000Y-110557142D01*
X198371429Y-110499999D01*
X198971429Y-110042856D02*
X198371429Y-110042856D01*
X198742857Y-109985713D02*
X198971429Y-109814284D01*
X198571429Y-109814284D02*
X198800000Y-110042856D01*
X210900000Y-109171429D02*
X210700000Y-108885714D01*
X210557143Y-109171429D02*
X210557143Y-108571429D01*
X210785715Y-108571429D01*
X210842857Y-108600000D01*
X210871429Y-108628571D01*
X210900000Y-108685714D01*
X210900000Y-108771429D01*
X210871429Y-108828571D01*
X210842857Y-108857143D01*
X210785715Y-108885714D01*
X210557143Y-108885714D01*
X211442857Y-108571429D02*
X211157143Y-108571429D01*
X211128572Y-108857143D01*
X211157143Y-108828571D01*
X211214286Y-108800000D01*
X211357143Y-108800000D01*
X211414286Y-108828571D01*
X211442857Y-108857143D01*
X211471429Y-108914286D01*
X211471429Y-109057143D01*
X211442857Y-109114286D01*
X211414286Y-109142857D01*
X211357143Y-109171429D01*
X211214286Y-109171429D01*
X211157143Y-109142857D01*
X211128572Y-109114286D01*
X213600000Y-108528571D02*
X213628571Y-108500000D01*
X213685714Y-108471429D01*
X213828571Y-108471429D01*
X213885714Y-108500000D01*
X213914285Y-108528571D01*
X213942857Y-108585714D01*
X213942857Y-108642857D01*
X213914285Y-108728571D01*
X213571428Y-109071429D01*
X213942857Y-109071429D01*
X214314286Y-108471429D02*
X214371429Y-108471429D01*
X214428572Y-108500000D01*
X214457143Y-108528571D01*
X214485714Y-108585714D01*
X214514286Y-108700000D01*
X214514286Y-108842857D01*
X214485714Y-108957143D01*
X214457143Y-109014286D01*
X214428572Y-109042857D01*
X214371429Y-109071429D01*
X214314286Y-109071429D01*
X214257143Y-109042857D01*
X214228572Y-109014286D01*
X214200000Y-108957143D01*
X214171429Y-108842857D01*
X214171429Y-108700000D01*
X214200000Y-108585714D01*
X214228572Y-108528571D01*
X214257143Y-108500000D01*
X214314286Y-108471429D01*
X214771429Y-109071429D02*
X214771429Y-108471429D01*
X214828572Y-108842857D02*
X215000001Y-109071429D01*
X215000001Y-108671429D02*
X214771429Y-108900000D01*
X217395829Y-92140900D02*
X217110114Y-92340900D01*
X217395829Y-92483757D02*
X216795829Y-92483757D01*
X216795829Y-92255185D01*
X216824400Y-92198043D01*
X216852971Y-92169471D01*
X216910114Y-92140900D01*
X216995829Y-92140900D01*
X217052971Y-92169471D01*
X217081543Y-92198043D01*
X217110114Y-92255185D01*
X217110114Y-92483757D01*
X216795829Y-91626614D02*
X216795829Y-91740900D01*
X216824400Y-91798043D01*
X216852971Y-91826614D01*
X216938686Y-91883757D01*
X217052971Y-91912328D01*
X217281543Y-91912328D01*
X217338686Y-91883757D01*
X217367257Y-91855185D01*
X217395829Y-91798043D01*
X217395829Y-91683757D01*
X217367257Y-91626614D01*
X217338686Y-91598043D01*
X217281543Y-91569471D01*
X217138686Y-91569471D01*
X217081543Y-91598043D01*
X217052971Y-91626614D01*
X217024400Y-91683757D01*
X217024400Y-91798043D01*
X217052971Y-91855185D01*
X217081543Y-91883757D01*
X217138686Y-91912328D01*
X214726289Y-92274888D02*
X214726289Y-92617745D01*
X214726289Y-92446317D02*
X214126289Y-92446317D01*
X214212003Y-92503460D01*
X214269146Y-92560602D01*
X214297717Y-92617745D01*
X214726289Y-92017745D02*
X214126289Y-92017745D01*
X214497717Y-91960602D02*
X214726289Y-91789173D01*
X214326289Y-91789173D02*
X214554860Y-92017745D01*
X220871429Y-113828572D02*
X221471429Y-113428572D01*
X220871429Y-113428572D02*
X221471429Y-113828572D01*
X221471429Y-112914286D02*
X221471429Y-113200000D01*
X220871429Y-113200000D01*
X221471429Y-112400000D02*
X221471429Y-112742857D01*
X221471429Y-112571429D02*
X220871429Y-112571429D01*
X220957143Y-112628572D01*
X221014286Y-112685714D01*
X221042857Y-112742857D01*
X220871429Y-110857142D02*
X221357143Y-110857142D01*
X221414286Y-110828570D01*
X221442857Y-110799999D01*
X221471429Y-110742856D01*
X221471429Y-110628570D01*
X221442857Y-110571428D01*
X221414286Y-110542856D01*
X221357143Y-110514285D01*
X220871429Y-110514285D01*
X221442857Y-110257142D02*
X221471429Y-110171428D01*
X221471429Y-110028571D01*
X221442857Y-109971428D01*
X221414286Y-109942857D01*
X221357143Y-109914285D01*
X221300000Y-109914285D01*
X221242857Y-109942857D01*
X221214286Y-109971428D01*
X221185714Y-110028571D01*
X221157143Y-110142857D01*
X221128571Y-110199999D01*
X221100000Y-110228571D01*
X221042857Y-110257142D01*
X220985714Y-110257142D01*
X220928571Y-110228571D01*
X220900000Y-110199999D01*
X220871429Y-110142857D01*
X220871429Y-109999999D01*
X220900000Y-109914285D01*
X221157143Y-109457142D02*
X221185714Y-109371428D01*
X221214286Y-109342856D01*
X221271429Y-109314285D01*
X221357143Y-109314285D01*
X221414286Y-109342856D01*
X221442857Y-109371428D01*
X221471429Y-109428570D01*
X221471429Y-109657142D01*
X220871429Y-109657142D01*
X220871429Y-109457142D01*
X220900000Y-109399999D01*
X220928571Y-109371428D01*
X220985714Y-109342856D01*
X221042857Y-109342856D01*
X221100000Y-109371428D01*
X221128571Y-109399999D01*
X221157143Y-109457142D01*
X221157143Y-109657142D01*
X221528571Y-109199999D02*
X221528571Y-108742856D01*
X221471429Y-108599999D02*
X220871429Y-108599999D01*
X221300000Y-108399999D01*
X220871429Y-108199999D01*
X221471429Y-108199999D01*
X221471429Y-107914285D02*
X220871429Y-107914285D01*
X221471429Y-107628571D02*
X220871429Y-107628571D01*
X221471429Y-107285714D01*
X220871429Y-107285714D01*
X221471429Y-107000000D02*
X220871429Y-107000000D01*
X221528571Y-106857143D02*
X221528571Y-106400000D01*
X221157143Y-106057143D02*
X221185714Y-105971429D01*
X221214286Y-105942857D01*
X221271429Y-105914286D01*
X221357143Y-105914286D01*
X221414286Y-105942857D01*
X221442857Y-105971429D01*
X221471429Y-106028571D01*
X221471429Y-106257143D01*
X220871429Y-106257143D01*
X220871429Y-106057143D01*
X220900000Y-106000000D01*
X220928571Y-105971429D01*
X220985714Y-105942857D01*
X221042857Y-105942857D01*
X221100000Y-105971429D01*
X221128571Y-106000000D01*
X221157143Y-106057143D01*
X221157143Y-106257143D01*
X190471428Y-95971429D02*
X190871428Y-96571429D01*
X190871428Y-95971429D02*
X190471428Y-96571429D01*
X191385714Y-96571429D02*
X191100000Y-96571429D01*
X191100000Y-95971429D01*
X191557143Y-96028571D02*
X191585714Y-96000000D01*
X191642857Y-95971429D01*
X191785714Y-95971429D01*
X191842857Y-96000000D01*
X191871428Y-96028571D01*
X191900000Y-96085714D01*
X191900000Y-96142857D01*
X191871428Y-96228571D01*
X191528571Y-96571429D01*
X191900000Y-96571429D01*
X196371430Y-90614286D02*
X196342859Y-90642857D01*
X196257145Y-90671429D01*
X196200002Y-90671429D01*
X196114287Y-90642857D01*
X196057145Y-90585714D01*
X196028573Y-90528571D01*
X196000002Y-90414286D01*
X196000002Y-90328571D01*
X196028573Y-90214286D01*
X196057145Y-90157143D01*
X196114287Y-90100000D01*
X196200002Y-90071429D01*
X196257145Y-90071429D01*
X196342859Y-90100000D01*
X196371430Y-90128571D01*
X196742859Y-90071429D02*
X196857145Y-90071429D01*
X196914287Y-90100000D01*
X196971430Y-90157143D01*
X197000002Y-90271429D01*
X197000002Y-90471429D01*
X196971430Y-90585714D01*
X196914287Y-90642857D01*
X196857145Y-90671429D01*
X196742859Y-90671429D01*
X196685716Y-90642857D01*
X196628573Y-90585714D01*
X196600002Y-90471429D01*
X196600002Y-90271429D01*
X196628573Y-90157143D01*
X196685716Y-90100000D01*
X196742859Y-90071429D01*
X197257144Y-90671429D02*
X197257144Y-90071429D01*
X197600001Y-90671429D01*
X197600001Y-90071429D01*
X197885715Y-90671429D02*
X197885715Y-90071429D01*
X198228572Y-90671429D01*
X198228572Y-90071429D01*
X198371429Y-90728571D02*
X198828572Y-90728571D01*
X198942858Y-90500000D02*
X199228572Y-90500000D01*
X198885715Y-90671429D02*
X199085715Y-90071429D01*
X199285715Y-90671429D01*
X199485715Y-90071429D02*
X199485715Y-90557143D01*
X199514287Y-90614286D01*
X199542858Y-90642857D01*
X199600001Y-90671429D01*
X199714287Y-90671429D01*
X199771429Y-90642857D01*
X199800001Y-90614286D01*
X199828572Y-90557143D01*
X199828572Y-90071429D01*
X200114286Y-90671429D02*
X200114286Y-90071429D01*
X200257143Y-90071429D01*
X200342858Y-90100000D01*
X200400000Y-90157143D01*
X200428572Y-90214286D01*
X200457143Y-90328571D01*
X200457143Y-90414286D01*
X200428572Y-90528571D01*
X200400000Y-90585714D01*
X200342858Y-90642857D01*
X200257143Y-90671429D01*
X200114286Y-90671429D01*
X200714286Y-90671429D02*
X200714286Y-90071429D01*
X201114286Y-90071429D02*
X201228572Y-90071429D01*
X201285714Y-90100000D01*
X201342857Y-90157143D01*
X201371429Y-90271429D01*
X201371429Y-90471429D01*
X201342857Y-90585714D01*
X201285714Y-90642857D01*
X201228572Y-90671429D01*
X201114286Y-90671429D01*
X201057143Y-90642857D01*
X201000000Y-90585714D01*
X200971429Y-90471429D01*
X200971429Y-90271429D01*
X201000000Y-90157143D01*
X201057143Y-90100000D01*
X201114286Y-90071429D01*
X201485714Y-90728571D02*
X201942857Y-90728571D01*
X202057143Y-90642857D02*
X202142857Y-90671429D01*
X202285714Y-90671429D01*
X202342857Y-90642857D01*
X202371428Y-90614286D01*
X202400000Y-90557143D01*
X202400000Y-90500000D01*
X202371428Y-90442857D01*
X202342857Y-90414286D01*
X202285714Y-90385714D01*
X202171428Y-90357143D01*
X202114286Y-90328571D01*
X202085714Y-90300000D01*
X202057143Y-90242857D01*
X202057143Y-90185714D01*
X202085714Y-90128571D01*
X202114286Y-90100000D01*
X202171428Y-90071429D01*
X202314286Y-90071429D01*
X202400000Y-90100000D01*
X202657143Y-90671429D02*
X202657143Y-90071429D01*
X202942857Y-90671429D02*
X202942857Y-90071429D01*
X203142857Y-90500000D01*
X203342857Y-90071429D01*
X203342857Y-90671429D01*
X203628571Y-90671429D02*
X203628571Y-90071429D01*
X203857143Y-90071429D01*
X203914285Y-90100000D01*
X203942857Y-90128571D01*
X203971428Y-90185714D01*
X203971428Y-90271429D01*
X203942857Y-90328571D01*
X203914285Y-90357143D01*
X203857143Y-90385714D01*
X203628571Y-90385714D01*
X204514285Y-90671429D02*
X204228571Y-90671429D01*
X204228571Y-90071429D01*
X204714285Y-90357143D02*
X204914285Y-90357143D01*
X204999999Y-90671429D02*
X204714285Y-90671429D01*
X204714285Y-90071429D01*
X204999999Y-90071429D01*
X219571428Y-96071429D02*
X219971428Y-96671429D01*
X219971428Y-96071429D02*
X219571428Y-96671429D01*
X220485714Y-96671429D02*
X220200000Y-96671429D01*
X220200000Y-96071429D01*
X220628571Y-96071429D02*
X221000000Y-96071429D01*
X220800000Y-96300000D01*
X220885714Y-96300000D01*
X220942857Y-96328571D01*
X220971428Y-96357143D01*
X221000000Y-96414286D01*
X221000000Y-96557143D01*
X220971428Y-96614286D01*
X220942857Y-96642857D01*
X220885714Y-96671429D01*
X220714286Y-96671429D01*
X220657143Y-96642857D01*
X220628571Y-96614286D01*
X221971430Y-96614286D02*
X221942859Y-96642857D01*
X221857145Y-96671429D01*
X221800002Y-96671429D01*
X221714287Y-96642857D01*
X221657145Y-96585714D01*
X221628573Y-96528571D01*
X221600002Y-96414286D01*
X221600002Y-96328571D01*
X221628573Y-96214286D01*
X221657145Y-96157143D01*
X221714287Y-96100000D01*
X221800002Y-96071429D01*
X221857145Y-96071429D01*
X221942859Y-96100000D01*
X221971430Y-96128571D01*
X222342859Y-96071429D02*
X222457145Y-96071429D01*
X222514287Y-96100000D01*
X222571430Y-96157143D01*
X222600002Y-96271429D01*
X222600002Y-96471429D01*
X222571430Y-96585714D01*
X222514287Y-96642857D01*
X222457145Y-96671429D01*
X222342859Y-96671429D01*
X222285716Y-96642857D01*
X222228573Y-96585714D01*
X222200002Y-96471429D01*
X222200002Y-96271429D01*
X222228573Y-96157143D01*
X222285716Y-96100000D01*
X222342859Y-96071429D01*
X222857144Y-96671429D02*
X222857144Y-96071429D01*
X223200001Y-96671429D01*
X223200001Y-96071429D01*
X223485715Y-96671429D02*
X223485715Y-96071429D01*
X223828572Y-96671429D01*
X223828572Y-96071429D01*
X223971429Y-96728571D02*
X224428572Y-96728571D01*
X224542858Y-96500000D02*
X224828572Y-96500000D01*
X224485715Y-96671429D02*
X224685715Y-96071429D01*
X224885715Y-96671429D01*
X225085715Y-96071429D02*
X225085715Y-96557143D01*
X225114287Y-96614286D01*
X225142858Y-96642857D01*
X225200001Y-96671429D01*
X225314287Y-96671429D01*
X225371429Y-96642857D01*
X225400001Y-96614286D01*
X225428572Y-96557143D01*
X225428572Y-96071429D01*
X225714286Y-96671429D02*
X225714286Y-96071429D01*
X225857143Y-96071429D01*
X225942858Y-96100000D01*
X226000000Y-96157143D01*
X226028572Y-96214286D01*
X226057143Y-96328571D01*
X226057143Y-96414286D01*
X226028572Y-96528571D01*
X226000000Y-96585714D01*
X225942858Y-96642857D01*
X225857143Y-96671429D01*
X225714286Y-96671429D01*
X226314286Y-96671429D02*
X226314286Y-96071429D01*
X226714286Y-96071429D02*
X226828572Y-96071429D01*
X226885714Y-96100000D01*
X226942857Y-96157143D01*
X226971429Y-96271429D01*
X226971429Y-96471429D01*
X226942857Y-96585714D01*
X226885714Y-96642857D01*
X226828572Y-96671429D01*
X226714286Y-96671429D01*
X226657143Y-96642857D01*
X226600000Y-96585714D01*
X226571429Y-96471429D01*
X226571429Y-96271429D01*
X226600000Y-96157143D01*
X226657143Y-96100000D01*
X226714286Y-96071429D01*
X227085714Y-96728571D02*
X227542857Y-96728571D01*
X227657143Y-96642857D02*
X227742857Y-96671429D01*
X227885714Y-96671429D01*
X227942857Y-96642857D01*
X227971428Y-96614286D01*
X228000000Y-96557143D01*
X228000000Y-96500000D01*
X227971428Y-96442857D01*
X227942857Y-96414286D01*
X227885714Y-96385714D01*
X227771428Y-96357143D01*
X227714286Y-96328571D01*
X227685714Y-96300000D01*
X227657143Y-96242857D01*
X227657143Y-96185714D01*
X227685714Y-96128571D01*
X227714286Y-96100000D01*
X227771428Y-96071429D01*
X227914286Y-96071429D01*
X228000000Y-96100000D01*
X228257143Y-96671429D02*
X228257143Y-96071429D01*
X228542857Y-96671429D02*
X228542857Y-96071429D01*
X228742857Y-96500000D01*
X228942857Y-96071429D01*
X228942857Y-96671429D01*
X229228571Y-96671429D02*
X229228571Y-96071429D01*
X229457143Y-96071429D01*
X229514285Y-96100000D01*
X229542857Y-96128571D01*
X229571428Y-96185714D01*
X229571428Y-96271429D01*
X229542857Y-96328571D01*
X229514285Y-96357143D01*
X229457143Y-96385714D01*
X229228571Y-96385714D01*
X230114285Y-96671429D02*
X229828571Y-96671429D01*
X229828571Y-96071429D01*
X230314285Y-96357143D02*
X230514285Y-96357143D01*
X230599999Y-96671429D02*
X230314285Y-96671429D01*
X230314285Y-96071429D01*
X230599999Y-96071429D01*
M02*
