G04 #@! TF.FileFunction,Soldermask,Top*
%FSLAX46Y46*%
G04 Gerber Fmt 4.6, Leading zero omitted, Abs format (unit mm)*
G04 Created by KiCad (PCBNEW 4.0.0-rc1-stable) date 19.10.2015 17:54:31*
%MOMM*%
G01*
G04 APERTURE LIST*
%ADD10C,0.100000*%
%ADD11C,1.100000*%
%ADD12R,1.216000X1.089000*%
%ADD13R,1.000000X1.000000*%
%ADD14R,1.000000X0.400000*%
%ADD15O,1.000000X0.400000*%
%ADD16R,1.099160X0.901040*%
%ADD17O,1.099160X0.901040*%
%ADD18R,1.300000X1.200000*%
%ADD19R,1.300000X1.100000*%
%ADD20R,1.200000X1.300000*%
%ADD21R,1.100000X1.300000*%
%ADD22R,1.200000X1.100000*%
%ADD23C,3.800000*%
%ADD24C,1.800000*%
%ADD25R,2.700000X1.700000*%
%ADD26R,1.700000X2.700000*%
%ADD27R,1.450000X0.600000*%
%ADD28C,1.899260*%
%ADD29R,1.876400X1.876400*%
%ADD30C,1.876400*%
G04 APERTURE END LIST*
D10*
D11*
X194981900Y-99233800D02*
X194981900Y-98233800D01*
X191631600Y-101897000D02*
X192631600Y-101897000D01*
X192621800Y-103657100D02*
X191621800Y-103657100D01*
D12*
X223735700Y-101178400D03*
X223735700Y-99654400D03*
X218751600Y-112312200D03*
X218751600Y-110788200D03*
X193403400Y-107052200D03*
X193403400Y-108576200D03*
X196765100Y-97960200D03*
X196765100Y-99484200D03*
X200506600Y-107032600D03*
X200506600Y-108556600D03*
X216751600Y-112312200D03*
X216751600Y-110788200D03*
X201835400Y-101450600D03*
X201835400Y-102974600D03*
X200418400Y-99490100D03*
X200418400Y-97966100D03*
X198594100Y-99483800D03*
X198594100Y-97959800D03*
D13*
X196748800Y-103272300D03*
X197548800Y-103272300D03*
X196748800Y-102472300D03*
X197548800Y-102472300D03*
X196748800Y-104072300D03*
X197548800Y-104072300D03*
D14*
X198648800Y-104472300D03*
D15*
X198648800Y-104072300D03*
X198648800Y-103672300D03*
X198648800Y-103272300D03*
X198648800Y-102872300D03*
X198648800Y-102472300D03*
X198648800Y-102072300D03*
X195648800Y-102072300D03*
X195648800Y-102472300D03*
X195648800Y-102872300D03*
X195648800Y-103272300D03*
X195648800Y-103672300D03*
X195648800Y-104072300D03*
X195648800Y-104472300D03*
D16*
X218701560Y-115700440D03*
D17*
X218701560Y-114399960D03*
X216801640Y-114399960D03*
X216801640Y-115700440D03*
D18*
X194981900Y-99483800D03*
D19*
X194981900Y-97933800D03*
D20*
X191381600Y-101897000D03*
D21*
X192931600Y-101897000D03*
D20*
X192871800Y-103657100D03*
D21*
X191321800Y-103657100D03*
D22*
X225677700Y-101164600D03*
X225677700Y-99664600D03*
X195191400Y-108557900D03*
X195191400Y-107057900D03*
X196950100Y-108550100D03*
X196950100Y-107050100D03*
X198719200Y-107050200D03*
X198719200Y-108550200D03*
D23*
X217750000Y-102524300D03*
X207750000Y-102524300D03*
D24*
X215250000Y-95524300D03*
X212750000Y-95524300D03*
X210250000Y-95524300D03*
D22*
X215854400Y-91354400D03*
X215854400Y-92854400D03*
D25*
X229250800Y-115480700D03*
X229250800Y-105180700D03*
X225050800Y-115480700D03*
X225050800Y-105180700D03*
D26*
X222850800Y-112530700D03*
X222850800Y-108130700D03*
D27*
X224725800Y-111630700D03*
X224725800Y-110980700D03*
X224725800Y-110330700D03*
X224725800Y-109680700D03*
X224725800Y-109030700D03*
D28*
X191721360Y-92382000D03*
X192120140Y-94782300D03*
X194121660Y-89981700D03*
X199120380Y-94782300D03*
X198119620Y-92382000D03*
X229361340Y-92274200D03*
X228962560Y-89873900D03*
X226961040Y-94674500D03*
X221962320Y-89873900D03*
X222963080Y-92274200D03*
D29*
X211317600Y-91304500D03*
D30*
X208777600Y-91304500D03*
M02*
